<?xml version="1.0" encoding="UTF-8"?>
<svg xmlns="http://www.w3.org/2000/svg" viewBox="0 0 56 56">
  <g id="BG">
    <path d="M0,9C0,4.03,4.03,0,9,0h38c4.97,0,9,4.03,9,9v38c0,4.97-4.03,9-9,9H9C4.03,56,0,51.97,0,47V9Z" style="fill: #103e36;"/>
  </g>
  <g id="Icons">
    <path d="M25.91,19.66c1.27-.82,2.91-.82,4.18,0l8.06,5.17c.21.14.34.37.35.63,0,.25-.13.49-.34.63l-3.16,2.06v5.56c0,.16-.05.32-.15.45h0s0,0,0,0h0s0,.01,0,.01c0,0,0,.01-.02.02,0,0,0,0,0,.01-.02.03-.05.06-.09.1-.07.08-.18.2-.32.33-.28.27-.69.61-1.25.96-1.12.69-2.82,1.36-5.16,1.36s-4.04-.67-5.16-1.36c-.56-.34-.97-.69-1.25-.96-.14-.13-.24-.25-.32-.33-.04-.05-.08-.1-.12-.15,0,0,0,0,0,0-.1-.13-.15-.29-.15-.45v-5.56l-2-1.31v5.36c0,.41-.34.75-.75.75s-.75-.34-.75-.75v-6.75c0-.27.14-.51.36-.64l8.05-5.16ZM30.12,31.34c-1.29.84-2.95.84-4.24,0l-3.38-2.21v4.3s.08.08.13.13c.21.2.54.48,1,.76.91.56,2.34,1.14,4.37,1.14s3.46-.58,4.37-1.14c.46-.28.79-.56,1-.76.05-.05.09-.09.13-.13v-4.3l-3.38,2.21ZM29.28,20.92c-.78-.5-1.78-.5-2.56,0l-7.09,4.54,7.07,4.62c.79.52,1.81.52,2.6,0l7.07-4.62-7.09-4.54Z" style="fill: #fff;"/>
  </g>
</svg>