<?xml version="1.0" encoding="UTF-8"?>
<svg width="36px" height="36px" viewBox="0 0 36 36" version="1.1" xmlns="http://www.w3.org/2000/svg" xmlns:xlink="http://www.w3.org/1999/xlink">
    <title>assets/stocks/aapl</title>
    <g id="assets/stocks/aapl" stroke="none" stroke-width="1" fill="none" fill-rule="evenodd">
        <g id="asset-bg" fill="#F2F4F7" fill-rule="nonzero">
            <path d="M18,0 C20.8367471,0 23.520171,0.656195372 25.906802,1.82505292 C31.8842661,4.75252847 36,10.8958457 36,18 C36,27.9415547 27.9415547,36 18,36 C8.05935938,36 0,27.9426094 0,18 C0,8.05935938 8.05935937,0 18,0 Z" id="bg"></path>
        </g>
        <g id="apple-black" transform="translate(8.000000, 6.000000)" fill="#000000" fill-rule="nonzero">
            <path d="M16.2927914,12.7285134 C16.3264599,16.3542674 19.4734973,17.5608128 19.5083636,17.5761711 C19.481754,17.6612193 19.0055187,19.2955722 17.8503529,20.9837433 C16.8517219,22.4432941 15.8153583,23.8974118 14.1827166,23.9275294 C12.5784813,23.9570909 12.062631,22.9762567 10.2285348,22.9762567 C8.39499465,22.9762567 7.82186096,23.8974545 6.30327273,23.9571337 C4.72735829,24.0168128 3.52727273,22.3789091 2.52042781,20.9247059 C0.462973262,17.9501604 -1.10934759,12.5193583 1.00188235,8.85347594 C2.05069519,7.03298396 3.92500535,5.88017112 5.95940107,5.85060963 C7.50690909,5.82109091 8.96752941,6.89172193 9.91358289,6.89172193 C10.8590374,6.89172193 12.6340107,5.60419251 14.5000214,5.79328342 C15.2811979,5.82579679 17.4740107,6.10883422 18.8820107,8.16983957 C18.7685561,8.24017112 16.2655829,9.69728342 16.2927914,12.7285134 M13.2778182,3.82536898 C14.1144813,2.81262032 14.6776043,1.40278075 14.5239786,0 C13.3179893,0.0484705882 11.8596791,0.803636364 10.9946524,1.81582888 C10.2194225,2.71217112 9.54049198,4.14682353 9.72367914,5.52183957 C11.067893,5.62583957 12.4411123,4.83875936 13.2778182,3.82536898" id="Shape"></path>
        </g>
    </g>
</svg>