<svg width="25" height="27" viewBox="0 0 25 27" fill="none" xmlns="http://www.w3.org/2000/svg">
<path d="M15.6321 1.67946L12.7592 0.0234375L9.36697 5.88979L7.27529 2.27269L4.40253 3.92872L8.36918 10.7885L8.37653 10.7843L9.3698 12.5091L15.6321 1.67946Z" fill="white"/>
<path d="M23.9958 7.41419V10.7262H11.4712L12.4706 9.00508L12.4633 9.00083L16.43 2.14106L19.3029 3.79709L17.2112 7.41419H23.9958Z" fill="white"/>
<path d="M-0.00424648 19.5622V16.2501H12.5204L11.521 17.9713L11.5283 17.9755L7.56153 24.8353L4.68865 23.1793L6.78033 19.5622H-0.00424648Z" fill="white"/>
<path d="M0.781601 6.15337L3.65448 4.49734L9.91675 15.3269L7.92414 15.3233V15.3318H-0.00927734V12.0197H4.17395L0.781601 6.15337Z" fill="white"/>
<path d="M20.3522 22.4967L23.2251 20.8407L19.8327 14.9743H24.0159V11.6623H16.0825V11.6707L14.0898 11.6671L20.3522 22.4967Z" fill="white"/>
<path d="M11.2409 26.9529L8.36802 25.2969L14.6303 14.4673L15.6236 16.1921L15.6309 16.1879L19.5976 23.0476L16.7248 24.7037L14.6331 21.0866L11.2409 26.9529Z" fill="white"/>
</svg>
