<?xml version="1.0" encoding="utf-8"?>
<!-- Generator: Adobe Illustrator 27.4.1, SVG Export Plug-In . SVG Version: 6.00 Build 0)  -->
<svg version="1.1" id="Layer_1" xmlns="http://www.w3.org/2000/svg" xmlns:xlink="http://www.w3.org/1999/xlink" x="0px" y="0px"
	 viewBox="0 0 36 36" style="enable-background:new 0 0 36 36;" xml:space="preserve">
<style type="text/css">
	.st0{fill:#F2FAF6;}
	.st1{fill:none;stroke:#27D17F;stroke-linecap:round;stroke-linejoin:round;}
</style>
<g id="Group_1310" transform="translate(-611 -200)">
	<g id="Group_1082" transform="translate(406 -97)">
		<path id="Rectangle" class="st0" d="M223,297L223,297c9.9,0,18,8.1,18,18l0,0c0,9.9-8.1,18-18,18l0,0c-9.9,0-18-8.1-18-18l0,0
			C205,305.1,213.1,297,223,297z"/>
	</g>
</g>
<g id="Group_2344" transform="translate(1.243 1)">
	<path id="Path_29" class="st1" d="M14.1,9.9c0.4,0,0.8-0.2,1.1-0.4l0.5-0.5c0.6-0.6,1.6-0.6,2.2,0l0.5,0.5c0.3,0.3,0.7,0.4,1.1,0.4
		h0.7c0.8,0,1.5,0.7,1.5,1.5v0.7c0,0.4,0.2,0.8,0.4,1.1l0.5,0.5c0.6,0.6,0.6,1.6,0,2.2l-0.5,0.5c-0.3,0.3-0.4,0.7-0.4,1.1v0.7
		c0,0.8-0.7,1.5-1.5,1.5h-0.7c-0.4,0-0.8,0.2-1.1,0.4l-0.5,0.5c-0.6,0.6-1.6,0.6-2.2,0l-0.5-0.5c-0.3-0.3-0.7-0.4-1.1-0.4h-0.7
		c-0.8,0-1.5-0.7-1.5-1.5v-0.7c0-0.4-0.2-0.8-0.4-1.1l-0.5-0.5c-0.6-0.6-0.6-1.6,0-2.2l0.5-0.5"/>
	<path id="Path_30" class="st1" d="M19.3,22.2v3.4l-2.6-1.5l-2.6,1.5v-3.4"/>
</g>
</svg>
