<?xml version="1.0" encoding="UTF-8"?>
<svg height="36" viewBox="0 0 36 36" width="36" xmlns="http://www.w3.org/2000/svg"><g fill="none" fill-rule="nonzero"><path d="m18 0c2.8367471 0 5.520171.65619537 7.906802 1.82505292 5.9774641 2.92747555 10.093198 9.07079278 10.093198 16.17494708 0 9.9415547-8.0584453 18-18 18-9.94064062 0-18-8.0573906-18-18 0-9.94064062 8.05935937-18 18-18z" fill="#f2f4f7"/><path d="m19.6532922 7.67617271v10.20042639h10.2004264v1.7739873c0 6.613286-5.3611276 11.9744136-11.9744136 11.9744136-6.6132861 0-11.9744137-5.3611276-11.9744137-11.9744136 0-6.6132861 5.3611276-11.97441369 11.9744137-11.97441369zm2.0511727 8.14925369v-10.2004264l.4571204.01763318.3848356.02181161c.0581156.00398347.1132193.00814104.1653111.01247271l.2764086.02807926c4.6202436.58013027 8.2790704 4.25046842 8.8416238 8.87615794l.0263765.2680299.0224471.338011.0185179.407992c.0027588.0738304.005354.1505767.0077854.2302388z" fill="#876f58"/></g></svg>