<svg width="160" height="40" viewBox="0 0 160 40" fill="none" xmlns="http://www.w3.org/2000/svg">
<g clip-path="url(#clip0_9_192)">
<path d="M159.944 14.5496H156.32V15.8792C155.032 14.8362 153.469 14.2491 151.75 14.2491C147.733 14.2491 144.512 17.5043 144.512 22.0117C144.512 26.5504 147.764 29.7713 151.812 29.7713C153.683 29.7713 155.185 29.127 156.32 28.1753V29.574H160V14.5496H159.944ZM156.013 23.9285C156.013 24.2606 155.88 24.579 155.646 24.8144C154.819 25.6456 153.726 26.1513 152.425 26.1513C150.279 26.1513 148.5 24.4658 148.5 22.0117C148.5 19.6198 150.248 17.9013 152.363 17.9013C153.774 17.9013 155.032 18.5164 156.013 19.6511V23.9285Z" fill="#282828"/>
<path d="M18.2323 7.71004L18.2317 7.71021L17.5718 7.91834V10.4043C17.5718 11.6524 16.7507 12.783 15.575 13.1536L8.78589 15.2943L8.78593 18.9791L17.7087 16.1658C19.8254 15.5065 21.0889 13.6795 21.0889 11.2784V9.62952C21.0889 8.50357 19.7985 7.2142 18.2323 7.71004Z" fill="#282828"/>
<path d="M16.6475 2.6821C18.0254 2.2487 19.1181 2.27235 19.7778 2.34934L18.1964 1.1942C17.4675 0.665964 15.2441 -0.570071 12.5025 0.303884L0.519531 4.08225L4.03409 6.65907L16.6475 2.6821Z" fill="#282828"/>
<path d="M23.2513 17.5718C23.2513 17.5718 25.479 15.5496 25.479 11.2041V9.36528C25.479 6.50398 22.1842 1.85485 16.9082 3.52111L4.39302 7.46712V30.6744L7.90736 29.5665V23.8618L19.2027 20.3009C21.3079 19.6436 23.0627 21.2949 23.0627 23.1313V25.3931C23.0627 27.6956 21.0296 30.961 17.8409 31.9623L0.519531 37.4232L4.03392 40L19.6376 35.0808C22.9315 34.0329 26.5771 31.207 26.5771 25.207V22.8967C26.5771 19.2685 23.2513 17.5718 23.2513 17.5718ZM17.9719 17.004L7.90736 20.1774V10.044L17.9651 6.87278C20.0649 6.21539 21.9647 7.89341 21.9647 9.62849L21.9656 11.2781C21.9656 14.1643 20.3865 16.2464 17.9719 17.004Z" fill="#282828"/>
<path d="M22.1842 25.3931V23.1339C22.1842 21.8576 20.951 20.6695 19.4643 21.1396L18.6697 21.3901L18.6699 24.518C18.6699 26.0594 17.6822 27.4063 16.2122 27.8697L3.51493 31.8726L3.51455 7.36762L0 4.79077V36.6658L17.5763 31.1246C20.3326 30.2556 22.1842 27.4594 22.1842 25.3931Z" fill="#282828"/>
<path d="M44.25 14.2492C42.6559 14.2492 41.2137 14.7621 39.9877 15.6496L40 7.99994L36 9.24999V29.574H39.6802V28.1944C40.8149 29.1463 42.3173 29.7904 44.1894 29.7904C48.2357 29.7904 51.4877 26.5691 51.4877 22.0302C51.4877 17.5221 48.2668 14.2492 44.25 14.2492ZM43.5746 26.1702C42.2743 26.1702 41.181 25.6643 40.354 24.833C40.1198 24.5977 39.9877 24.2792 39.9877 23.9472V19.6691C40.9685 18.5344 42.2257 17.9193 43.6369 17.9193C45.7524 17.9193 47.5002 19.638 47.5002 22.0302C47.5002 24.4845 45.7213 26.1702 43.5746 26.1702Z" fill="#282828"/>
<path d="M138.271 15.6341C137.043 14.7465 135.572 14.2491 134.007 14.2491C129.99 14.2491 126.771 17.5066 126.771 22.0144C126.771 26.5533 130.021 29.7744 134.069 29.7744C135.94 29.7744 137.442 29.1303 138.577 28.1787V29.574H142.257L142.257 8L138.272 9.24999L138.271 15.6341ZM138.271 23.9308C138.271 24.2631 138.139 24.5819 137.904 24.8172C137.076 25.6485 135.983 26.1544 134.683 26.1544C132.536 26.1544 130.757 24.4687 130.757 22.0144C130.757 19.6223 132.505 17.9038 134.62 17.9038C136.031 17.9038 137.289 18.5186 138.271 19.6533V23.9308Z" fill="#282828"/>
<path d="M103.155 15.851C101.868 14.808 100.304 14.2552 98.587 14.2552C94.5682 14.2552 91.3491 17.4761 91.3491 21.9835C91.3491 26.5222 94.5993 29.7904 98.6474 29.7904C100.518 29.7904 102.02 29.0988 103.155 28.1471V29.574H106.835V14.5496H103.155V15.851ZM102.849 23.9003C102.849 24.2323 102.717 24.551 102.483 24.7863C101.655 25.6174 100.561 26.1231 99.2605 26.1231C97.1139 26.1231 95.335 24.4376 95.335 21.9835C95.335 19.5916 97.0828 17.8731 99.2001 17.8731C100.611 17.8731 101.868 18.4881 102.849 19.6229V23.9003Z" fill="#282828"/>
<path d="M118.029 14.2623C116.373 14.2623 114.779 14.8754 113.582 15.8874V14.5497H109.904V29.574H113.89V19.7214C114.442 18.9545 115.822 17.8804 117.508 17.8804C118.428 17.8804 119.226 18.1877 119.748 18.7093C120.299 19.2618 120.638 20.0269 120.638 21.5V29.574H124.623V21.8679C124.623 19.3224 124.102 17.7284 123.121 16.5626C121.924 15.1205 120.054 14.2623 118.029 14.2623Z" fill="#282828"/>
<path d="M82.5775 14.2427C80.8609 14.2427 79.2962 14.7955 78.0079 15.8385V14.5496H74.3277L74.3275 36L78.3154 34.75V28.3798C79.3876 29.209 80.7986 29.7904 82.5171 29.7904C86.5654 29.7904 89.8154 26.5095 89.8154 21.9708C89.8154 17.4636 86.5945 14.2427 82.5775 14.2427ZM81.9021 26.1106C80.6018 26.1106 79.5085 25.6047 78.6815 24.7734C78.4473 24.5381 78.3152 24.2196 78.3152 23.8877V19.6102C79.296 18.4757 80.5534 17.8606 81.9644 17.8606C84.0799 17.8606 85.8277 19.5789 85.8277 21.9708C85.8277 24.4251 84.0488 26.1106 81.9021 26.1106Z" fill="#282828"/>
<path d="M57.821 14.5497H53.8351V29.574H57.821V14.5497Z" fill="#282828"/>
<path d="M55.828 8C54.448 8 53.3135 9.07239 53.3135 10.4523C53.3135 11.8322 54.448 12.9064 55.828 12.9064C57.2079 12.9064 58.3424 11.8322 58.3424 10.4523C58.3424 9.07239 57.2079 8 55.828 8Z" fill="#282828"/>
<path d="M69.4048 26.3554C68.823 26.3554 68.3324 26.2016 68.0249 25.8941C67.7486 25.6198 67.6261 25.1274 67.6261 24.3313V17.7688H71.5625V14.5496H67.6261V10L63.64 11.25L63.6402 14.5496H60.2839V17.7688H63.6402V24.3917C63.6402 26.2329 64.0682 27.3674 64.8057 28.2259C65.8473 29.4207 67.3807 29.7904 68.823 29.7904C70.1113 29.7904 71.1697 29.491 72.0841 28.9617L70.7687 26.0785C70.3547 26.2429 69.912 26.3554 69.4048 26.3554Z" fill="#282828"/>
</g>
<defs>
<clipPath id="clip0_9_192">
<rect width="160" height="40" fill="white"/>
</clipPath>
</defs>
</svg>
