<?xml version="1.0" encoding="UTF-8"?>
<svg id="Layer_1" data-name="Layer 1" xmlns="http://www.w3.org/2000/svg" viewBox="0 0 56 56">
  <defs>
    <style>
      .cls-1 {
        fill: #103e36;
      }

      .cls-2 {
        fill: #fff;
      }
    </style>
  </defs>
  <path class="cls-1" d="M0,9C0,4.03,4.03,0,9,0h38c4.97,0,9,4.03,9,9v38c0,4.97-4.03,9-9,9H9C4.03,56,0,51.97,0,47V9Z"/>
  <g>
    <path class="cls-2" d="M9.61,30.04v-3.84l10-6.2v4.03l-6.62,4.08,6.62,4.08v4.06l-10-6.2h0Z"/>
    <path class="cls-2" d="M31.3,17.13h3.59l-10.19,21.74h-3.59l10.19-21.74h0Z"/>
    <path class="cls-2" d="M36.39,32.19l6.62-4.08-6.62-4.08v-4.03l10,6.2v3.84l-10,6.2v-4.06h0Z"/>
  </g>
</svg>