<?xml version="1.0" encoding="UTF-8"?>
<svg id="Layer_1" data-name="Layer 1" xmlns="http://www.w3.org/2000/svg" viewBox="0 0 56 56">
  <defs>
    <style>
      .cls-1 {
        fill-rule: evenodd;
      }

      .cls-1, .cls-2 {
        fill: #fff;
      }

      .cls-3 {
        fill: #103e36;
      }
    </style>
  </defs>
  <path class="cls-3" d="M0,9C0,4.03,4.03,0,9,0h38c4.97,0,9,4.03,9,9v38c0,4.97-4.03,9-9,9H9C4.03,56,0,51.97,0,47V9Z"/>
  <path class="cls-1" d="M44.43,19.37c-.21-3.15-6.24-5.52-14.04-5.52s-13.81,2.37-14.04,5.49c0,.07,0,.13,0,.2v6.22c-2.97,1.03-4.65,2.49-4.77,4.11,0,.07,0,.14,0,.22v6.38c0,.06,0,.13,0,.19.13,1.72,1.96,3.23,5.14,4.24h.03c2.88.86,5.87,1.28,8.87,1.25,7.77,0,13.81-2.36,14.04-5.5v-6.41c2.97-1.03,4.66-2.49,4.78-4.11v-.03s0-.03,0-.05v-6.69ZM17.48,19.43c.14-2.15,5.36-4.48,12.91-4.48s12.77,2.31,12.91,4.48c0,.02,0,.04,0,.06,0,.93-.94,1.89-2.64,2.68-2.51,1.19-6.25,1.87-10.28,1.87s-7.77-.68-10.28-1.87c-1.7-.8-2.64-1.75-2.64-2.68,0,.01,0-.01,0-.06h0ZM16.54,26.94s0-.03,0-.04h0c-2.34.84-3.74,1.97-3.84,3.08v.09c0,.08.02.16.04.24.11.67.7,1.32,1.67,1.89.3.19.62.36.94.51.43.2.88.38,1.33.53,2.42.85,5.6,1.33,8.96,1.33h.58c.22,0,.43-.01.63-.02h0c.22,0,.43-.02.63-.02l.67-.04c.35-.03.71-.06,1.06-.1h.2l.24-.03h.08c.22-.03.44-.06.67-.09l.22-.03h.07c.13-.02.25-.04.38-.07.14-.03.28-.05.43-.08.29-.04.56-.1.82-.16h.03l.32-.07.13-.03.37-.09.16-.04.37-.11.06-.09c.34-.1.65-.21.97-.32h0l.15-.05c.06-.02.11-.05.17-.07h0s.09-.04.14-.06c.05-.02.11-.04.17-.07.2-.08.4-.16.54-.23l.08-.04c.16-.08.32-.16.48-.25l.16-.09c.12-.06.22-.13.33-.2l.18-.12.25-.19.16-.12c.09-.07.17-.14.25-.22l.09-.08c.09-.1.18-.2.26-.3.03-.04.05-.08.07-.12.05-.07.09-.13.13-.21,0-.01.01-.03.02-.04.02-.03.03-.05.03-.08.01-.03.02-.06.03-.09h-.05l-.41.1c-.18.05-.37.1-.56.14l-.44.1c-.07.01-.14.03-.21.04h0c-.12.02-.23.05-.35.07l-.47.08-.15.02c-.16.03-.32.05-.44.07-.09.02-.17.03-.26.04h0c-.06,0-.13.02-.22.03-.14.02-.29.04-.43.06h0c-.06,0-.13.02-.19.02l-.47.05-.67.06-.45.03h-.08s0,0,0,0h0c-.22.02-.44.03-.66.03h-2.86c-.39-.01-.77-.04-1.14-.06h-.16c-.36-.03-.72-.06-1.07-.1h-.18c-.35-.04-.69-.08-1.02-.13l-.17-.03c-.34-.05-.67-.11-.99-.17l-.14-.03c-.33-.06-.65-.13-.97-.21h-.08c-.32-.08-.63-.16-.94-.25h-.03c-.3-.09-.59-.18-.88-.28l-.09-.03c-.27-.09-.53-.19-.78-.29l-.11-.05c-.25-.1-.48-.21-.7-.31l-.11-.05c-.22-.11-.43-.22-.63-.34l-.1-.06c-.07-.05-.14-.09-.21-.14h0c-.12-.08-.24-.16-.35-.24l-.07-.05c-.18-.13-.35-.27-.5-.4l-.03-.03c-.15-.14-.29-.28-.43-.43-.12-.14-.23-.29-.33-.45l-.03-.05c-.09-.14-.16-.29-.23-.45ZM25.62,41.03c-2.88.04-5.75-.37-8.52-1.19h-.03c-2.64-.84-4.27-2.06-4.36-3.26,0-.03,0-.06,0-.09v-4.1l.12.1.15.13c.12.1.25.2.37.29l.18.12c.14.1.29.19.46.28l.18.11c.21.12.42.23.65.34l.06.03c.18.09.38.17.58.24h0l.11.04c2.61,1.07,6.23,1.68,10.08,1.68h1.76c.26,0,.52-.02.77-.04h.09c.4-.04.85-.08,1.26-.13l.25-.03h.07l.68-.1.27-.04h.02c.29-.04.58-.09.88-.15.12-.02.23-.04.34-.06.17-.03.33-.06.48-.1l.09-.02h.05c.25-.05.48-.11.7-.17l.11-.03c.24-.06.47-.13.69-.19.41-.12.81-.26,1.19-.4.1-.04.2-.08.29-.12h0c.06-.03.13-.05.19-.08l.11-.04c.15-.06.34-.14.5-.21l.06-.03c.23-.11.45-.22.65-.34l.18-.1.07-.04h0c.13-.08.26-.16.39-.25l.17-.12c.13-.1.26-.19.37-.29l.15-.13s.04-.03.06-.05c.02-.02.04-.03.06-.05v4.11c-.17,2.16-5.39,4.47-12.94,4.47ZM30.38,30.49c2.89.03,5.76-.37,8.53-1.2,2.66-.85,4.3-2.07,4.41-3.27v-4.17s-.03.02-.04.04c-.02.02-.04.03-.06.05l-.18.16c-.11.09-.22.18-.34.26l-.21.15c-.13.09-.27.18-.42.27-.03.01-.05.03-.07.04-.04.03-.09.05-.13.08-.22.14-.46.26-.7.37-2.65,1.26-6.57,1.98-10.76,1.98s-8.11-.72-10.76-1.98c-.25-.13-.48-.25-.7-.37-.06-.03-.11-.06-.16-.09-.01,0-.03-.02-.04-.03-.15-.09-.29-.18-.42-.27l-.21-.15c-.08-.06-.18-.14-.25-.2-.04-.03-.07-.05-.09-.07-.06-.05-.12-.09-.17-.14,0,0,0,0-.01,0l-.1-.09v4.15s0,.05,0,.07c0,.01,0,.02,0,.03.02.13.05.25.1.37.83,2.03,5.87,4.02,12.8,4.02Z"/>
  <path class="cls-2" d="M44.43,19.37h.39s0-.03,0-.03l-.39.03ZM16.35,19.34l-.39-.03h0s.39.03.39.03ZM16.35,19.54h.39v-.02s-.39.02-.39.02ZM16.35,25.76l.13.37.26-.09v-.28h-.39ZM11.57,29.87l-.39-.03h0s.39.03.39.03ZM11.57,30.08h.39v-.02s-.39.02-.39.02ZM11.57,36.47l.39.02h0v-.02h-.39ZM11.57,36.66l-.39.02h0s.39-.02.39-.02ZM16.71,40.9l-.12.37.06.02h.06v-.39ZM16.74,40.9l.11-.37-.05-.02h-.06v.39ZM25.61,42.15v-.39h0v.39ZM39.65,36.65l.39.03h0v-.03h-.39ZM39.65,30.24l-.13-.37-.26.09v.28h.39ZM44.43,26.13l.39.03h0v-.03h-.39ZM44.43,26.1l-.39-.04v.02s0,.02,0,.02h.39ZM44.43,26.05h-.39v.04s.39-.04.39-.04ZM17.48,19.43v.39h.36l.02-.36-.39-.03ZM43.3,19.43l-.39.03h0s.39-.03.39-.03ZM43.3,19.5l-.39-.03v.02s0,.02,0,.02h.39ZM40.66,22.18l-.17-.35h0s.17.35.17.35ZM20.1,22.18l.17-.35h0s-.17.35-.17.35ZM17.47,19.5h.39l-.76-.12.37.12ZM17.47,19.43v-.39h-.36l-.03.36.39.03ZM16.54,26.9l.39.04.04-.43h-.43v.39ZM16.54,26.94l-.39.04v.06s.03.05.03.05l.36-.15ZM16.53,26.9v-.39h-.07l-.06.02.13.37ZM12.69,29.98l-.39-.03v.02s0,.02,0,.02h.39ZM12.69,30.08h-.39v.04s.39-.04.39-.04ZM12.74,30.32l.38-.06v-.02s0-.02,0-.02l-.37.1ZM14.41,32.21l.21-.33h0s-.2.33-.2.33ZM15.34,32.72l-.17.35h0s.16-.35.16-.35ZM16.67,33.25l.13-.37h0s-.13.37-.13.37ZM26.21,34.59v.39h0s0-.39,0-.39ZM26.84,34.57v-.39h-.02s.02.39.02.39ZM26.84,34.57v.39h.02s-.02-.39-.02-.39ZM27.47,34.55v.39h.02s-.02-.39-.02-.39ZM28.14,34.51l.02.39h0s-.03-.39-.03-.39ZM29.2,34.41v-.39h-.04s.04.39.04.39ZM29.39,34.41v.39h.05s-.05-.39-.05-.39ZM29.63,34.38v-.39h-.05s.05.39.05.39ZM29.71,34.38v.39h.05s-.05-.39-.05-.39ZM30.38,34.28l.06.38h0s-.06-.38-.06-.38ZM30.6,34.25v-.39h-.06s.06.39.06.39ZM30.67,34.25v.39h.06s-.06-.39-.06-.39ZM31.04,34.18l.07.38h0l-.07-.38ZM31.48,34.1l.06.38h0l-.06-.38ZM32.3,33.94v-.39h-.09s.09.39.09.39ZM32.33,33.94v.39h.08s-.08-.39-.08-.39ZM32.65,33.88l.08.38h0s-.09-.38-.09-.38ZM32.77,33.85l.09.38h0s-.09-.38-.09-.38ZM33.15,33.75l.09.38h.01s-.11-.38-.11-.38ZM33.3,33.71l.11.37h0s-.11-.37-.11-.37ZM33.68,33.6l.11.37.13-.04.08-.11-.32-.22ZM33.74,33.51l-.11-.37-.13.04-.08.11.32.22ZM34.71,33.19l-.12-.37h0s.13.37.13.37ZM34.71,33.19l.12.37h0s-.13-.37-.13-.37ZM34.86,33.14l.13.37h0s-.14-.37-.14-.37ZM35.02,33.07l.15.36h.01s0,0,0,0l-.17-.35ZM35.02,33.07l-.15-.36h-.02s.17.36.17.36ZM35.02,33.07l-.15-.36h0s.15.36.15.36ZM35.16,33.01l.14.36h0s-.15-.36-.15-.36ZM35.33,32.95l.14.36h0l-.14-.36ZM35.86,32.72l-.17-.35h0s.17.35.17.35ZM35.94,32.68l-.17-.35h0l.17.35ZM36.42,32.44l.19.34h0s-.19-.34-.19-.34ZM36.57,32.35l-.19-.34h0s.19.34.19.34ZM36.9,32.15l.21.33h0s-.21-.33-.21-.33ZM37.08,32.03l.21.33h.02s-.23-.33-.23-.33ZM37.33,31.85l.23.31h0s-.24-.31-.24-.31ZM37.49,31.72l.24.31h0s-.24-.31-.24-.31ZM37.73,31.5l-.26-.29h-.01s-.01.02-.01.02l.28.27ZM37.83,31.42l.26.29h.01s.01-.02.01-.02l-.28-.27ZM38.08,31.11l-.31-.23h0l.31.23ZM38.16,31l-.32-.23v.02s-.03.02-.03.02l.34.19ZM38.29,30.79l.34.19h0s0-.03,0-.03l-.35-.16ZM38.31,30.75l.33.2h0l-.33-.2ZM38.35,30.67l-.36-.16-.03.07v.08h.39ZM38.38,30.58l.37.12.16-.51h-.53v.39ZM38.33,30.58v-.39h-.09s.09.39.09.39ZM37.92,30.68l-.09-.38h0s.1.38.1.38ZM37.36,30.82l-.08-.38h0s.08.38.08.38ZM36.92,30.92l.07.38h0s-.08-.38-.08-.38ZM36.71,30.96l-.08-.38h0s.08.38.08.38ZM36.71,30.96l.08.38h0s-.08-.38-.08-.38ZM36.71,30.96l.08.38h0s-.08-.38-.08-.38ZM36.36,31.03l.07.38h0l-.07-.38ZM35.89,31.11l.06.38h0s-.07-.38-.07-.38ZM35.74,31.13l.06.38h0s-.06-.38-.06-.38ZM35.3,31.2l.06.38h0l-.06-.38ZM35.04,31.24l.04.39h0s-.05-.39-.05-.39ZM35.04,31.24l-.04-.39h-.01s.06.39.06.39ZM35.04,31.24l.05.39h0s-.05-.39-.05-.39ZM34.83,31.27l.06.38h0l-.06-.38ZM34.4,31.33l-.05-.39h0s.05.39.05.39ZM34.4,31.33l.05.39h0s-.05-.39-.05-.39ZM34.21,31.35l.04.39h0s-.05-.39-.05-.39ZM33.74,31.4l.03.39h0s-.04-.39-.04-.39ZM33.07,31.46l.03.39h0s-.03-.39-.03-.39ZM32.62,31.49l-.03-.39h0s.03.39.03.39ZM32.54,31.5l.02.39h0s-.03-.39-.03-.39ZM32.54,31.5v.39h.02s-.02-.39-.02-.39ZM32.54,31.5v-.39h-.03s.03.39.03.39ZM29.01,31.53v.39s0,0,0,0v-.39ZM27.87,31.47l.02-.39h-.01s-.01,0-.01,0v.39ZM27.71,31.47l-.03.39h.01s.01,0,.01,0v-.39ZM26.64,31.38l.04-.39h-.02s-.02,0-.02,0v.39ZM26.46,31.38l-.05.39h.02s.02,0,.02,0v-.39ZM25.44,31.25l-.06.38h0s.06-.38.06-.38ZM25.27,31.22l.06-.38-.06.38ZM24.28,31.05l-.07.38h0s.07-.38.07-.38ZM24.14,31.02l-.07.38h0s.07-.38.07-.38ZM23.18,30.82l.09-.38h-.04s-.05-.01-.05-.01v.39ZM23.1,30.82l-.09.38h.05s.05.01.05.01v-.39ZM22.16,30.57l.11-.37h-.05s-.05-.01-.05-.01v.39ZM22.13,30.57l-.11.37h.05s.05.01.05.01v-.39ZM21.25,30.3l.12-.37h0s-.12.37-.12.37ZM21.16,30.27l-.13.37h0s.12-.37.12-.37ZM20.38,29.98l-.15.36h0s.15-.36.15-.36ZM20.27,29.93l.15-.36h0s-.15.36-.15.36ZM19.56,29.61l.17-.35h0s-.16.35-.16.35ZM19.45,29.56l-.18.35h.01s.16-.35.16-.35ZM18.82,29.22l-.19.34h0s.19-.34.19-.34ZM18.72,29.17l-.22.32h.01s.01.01.01.01l.19-.34ZM18.51,29.03l-.21.33h0l.21-.33ZM18.51,29.03l.21-.33h0s-.21.33-.21.33ZM18.16,28.79l-.23.32h0s.22-.32.22-.32ZM18.09,28.74l-.23.31h0s.23-.31.23-.31ZM17.59,28.34l.26-.29h0s-.26.29-.26.29ZM17.56,28.32l-.26.29h0s.26-.29.26-.29ZM17.13,27.89l-.3.25h0s.29-.25.29-.25ZM16.8,27.44l.33-.21h0s-.32.21-.32.21ZM16.77,27.39l-.33.2h0s0,.02,0,.02l.32-.22ZM17.11,39.84l.11-.37-.05-.02h-.06v.39ZM25.62,41.03v-.39h0v.39ZM17.07,39.84l-.12.37.06.02h.06v-.39ZM12.72,36.57l-.39-.02v.02s0,.02,0,.02l.39-.03ZM12.72,36.48h-.39s0,.02,0,.02l.39-.02ZM12.72,32.38l.25-.3-.64-.54v.83h.39ZM12.83,32.48l.26-.29h0s-.25.29-.25.29ZM12.98,32.61l-.26.29h0s.25-.29.25-.29ZM13.35,32.9l-.24.31h.01s.22-.31.22-.31ZM13.53,33.03l-.22.32h0s.22-.32.22-.32ZM13.98,33.31l.2-.33h0s-.2.33-.2.33ZM14.16,33.42l-.2.33h.01s.19-.33.19-.33ZM14.81,33.76l.18-.34h-.01s-.17.34-.17.34ZM14.87,33.79l-.18.34h.02s.16-.34.16-.34ZM15.45,34.03l-.14.36h0s.14-.36.14-.36ZM15.45,34.03l.15-.36h0s-.14.36-.14.36ZM15.55,34.07l.15-.36h0s-.14.36-.14.36ZM28.16,35.72l.03.39h0s-.04-.39-.04-.39ZM28.17,35.72l-.03-.39h0s.04.39.04.39ZM28.25,35.71l.03.39h0l-.03-.39ZM29.51,35.59l-.04-.39h0s.05.39.05.39ZM29.77,35.56v-.39h-.04s.04.39.04.39ZM29.84,35.56v.39h.06s-.06-.39-.06-.39ZM30.52,35.46l.06.39h0s-.06-.39-.06-.39ZM30.79,35.42v-.39h-.06s.06.39.06.39ZM30.81,35.42v.39h.06s-.06-.39-.06-.39ZM31.69,35.27l-.08-.38h0l.08.38ZM32.02,35.2l.07.38-.07-.38ZM32.5,35.11l-.08-.38h0s.09.38.09.38ZM32.59,35.09v-.39h-.08s.08.39.08.39ZM32.63,35.09v.39h.08s-.08-.39-.08-.39ZM33.34,34.92l-.09-.38h-.01s.1.38.1.38ZM33.44,34.9l.09.38h0s-.09-.38-.09-.38ZM34.13,34.7l-.11-.37h0s.12.37.12.37ZM35.33,34.3l.13.36h0s-.14-.36-.14-.36ZM35.62,34.18l.15.36h0s-.16-.36-.16-.36ZM35.62,34.18l-.15-.36h0s.16.36.16.36ZM35.81,34.1l-.15-.36h0s.15.36.15.36ZM35.91,34.06l-.15-.36h0s.15.36.15.36ZM36.41,33.85l.16.35h.01s0,0,0,0l-.18-.34ZM36.47,33.82l-.16-.35h-.02s.18.35.18.35ZM37.12,33.48l.19.34h0s-.2-.34-.2-.34ZM37.3,33.38l.2.34h0s-.2-.34-.2-.34ZM37.37,33.33l-.2-.33h0s.2.33.2.33ZM37.37,33.33l.2.33h0s-.2-.33-.2-.33ZM37.75,33.09l.22.32h.01s-.23-.32-.23-.32ZM37.92,32.97l.23.32h0s-.23-.32-.23-.32ZM38.3,32.67l-.25-.3h0s.26.3.26.3ZM38.45,32.54l.25.3h.01s.01-.02.01-.02l-.28-.28ZM38.5,32.5l.24.3h0l-.24-.3ZM38.56,32.45h.39v-.94l-.66.66.28.28ZM38.56,36.56l.39.03v-.02s0-.02,0-.02h-.39ZM38.91,29.29l.11.37h0s-.12-.37-.12-.37ZM30.38,30.49v-.39s0,0,0,0v.39ZM43.31,26.01l.39.04v-.02s0-.02,0-.02h-.39ZM43.31,21.84h.39v-.87l-.65.58.26.29ZM43.27,21.88l-.24-.3h0l.24.3ZM43.21,21.93l.25.3h.01s.01-.02.01-.02l-.28-.28ZM43.03,22.08l.25.3h0s-.25-.3-.25-.3ZM42.7,22.34l.22.32h0s-.23-.32-.23-.32ZM42.49,22.49l.22.32h0s-.22-.32-.22-.32ZM42.07,22.76l.19.34h0s-.2-.34-.2-.34ZM41.99,22.8l-.2-.33h0s.2.33.2.33ZM41.86,22.87l-.18-.34h-.01s-.01.01-.01.01l.21.33ZM41.16,23.25l-.17-.35h0s.17.35.17.35ZM19.63,23.25l-.18.35h0s.17-.35.17-.35ZM18.93,22.87l.19-.34h0s-.18.34-.18.34ZM18.77,22.78l-.2.33h0l.2-.33ZM18.73,22.76l.2-.33h0s-.2.33-.2.33ZM18.31,22.49l-.23.32h0s.22-.32.22-.32ZM18.1,22.34l-.23.32h0s.22-.32.22-.32ZM17.85,22.15l.24-.3h0l-.24.3ZM17.76,22.08l-.24.31h0l.24-.31ZM17.6,21.94l-.25.29h0l.25-.29ZM17.58,21.93l-.26.29h0s.25-.29.25-.29ZM17.48,21.84l.26-.29-.65-.58v.87h.39ZM17.48,25.99h-.39v.03s.39-.03.39-.03ZM17.48,26.06l-.39-.03v.04s0,.04,0,.04l.39-.05ZM17.48,26.09l-.39-.05v.05s0,.05,0,.05l.39-.05ZM17.58,26.47l-.36.15h0s.36-.15.36-.15ZM30.39,14.24c3.87,0,7.27.59,9.73,1.55,1.23.48,2.2,1.05,2.87,1.67.67.62,1.02,1.27,1.06,1.93l.78-.05c-.06-.91-.54-1.74-1.31-2.45-.76-.71-1.83-1.32-3.11-1.83-2.57-1.01-6.08-1.61-10.01-1.61v.78ZM16.74,19.37c.05-.65.4-1.3,1.07-1.92.67-.62,1.64-1.18,2.87-1.67,2.45-.96,5.85-1.55,9.72-1.55v-.78c-3.93,0-7.44.6-10,1.6-1.28.5-2.34,1.11-3.11,1.82-.77.71-1.25,1.52-1.32,2.43l.78.06ZM16.74,19.52c0-.05,0-.1,0-.16l-.78-.04c0,.08,0,.16,0,.24l.78-.04ZM16.74,25.76v-6.22h-.78v6.22h.78ZM11.96,29.9c.05-.68.43-1.36,1.19-2.01.76-.65,1.87-1.25,3.33-1.76l-.26-.73c-1.51.52-2.72,1.17-3.58,1.9-.86.74-1.38,1.6-1.45,2.54l.78.06ZM11.96,30.06c0-.06,0-.12,0-.18l-.78-.04c0,.09,0,.17,0,.26l.78-.04ZM11.96,36.47v-6.38h-.78v6.38h.78ZM11.96,36.64s0-.1,0-.15l-.78-.04c0,.08,0,.16,0,.24l.78-.04ZM16.83,40.53c-1.56-.5-2.76-1.11-3.58-1.78-.82-.67-1.23-1.39-1.29-2.12l-.78.06c.08,1,.64,1.9,1.57,2.66.92.76,2.22,1.41,3.84,1.92l.24-.74ZM16.74,40.51h-.03v.78h.03v-.78ZM25.61,41.76c-2.96.04-5.91-.38-8.75-1.23l-.22.74c2.91.87,5.94,1.3,8.98,1.26v-.78ZM39.26,36.62c-.05.66-.4,1.31-1.07,1.92-.67.62-1.64,1.19-2.87,1.67-2.45.96-5.86,1.55-9.71,1.55v.78c3.92,0,7.42-.6,9.99-1.6,1.28-.5,2.35-1.11,3.11-1.82.77-.71,1.25-1.53,1.32-2.44l-.78-.06ZM39.26,36.6v.05h.78v-.05h-.78ZM39.26,36.47v.13h.78v-.13h-.78ZM39.26,30.24v6.23h.78v-6.23h-.78ZM44.04,26.1c-.05.67-.43,1.35-1.19,2.01-.76.65-1.87,1.25-3.33,1.76l.26.73c1.51-.53,2.73-1.17,3.58-1.91.86-.74,1.38-1.59,1.46-2.54l-.78-.06ZM44.04,26.1v.03h.78v-.03h-.78ZM44.04,26.09s0-.02,0-.03l.77.08s0-.09,0-.13l-.77.08ZM44.04,19.53v6.52h.78v-6.52h-.78ZM44.04,19.41v.12h.78v-.12h-.78ZM44.04,19.37v.05h.78v-.05h-.78ZM30.39,14.56c-3.81,0-7.05.59-9.37,1.46-1.16.43-2.1.95-2.77,1.5-.66.55-1.11,1.19-1.16,1.88l.78.05c.03-.39.29-.85.88-1.34.58-.48,1.44-.96,2.55-1.37,2.21-.83,5.36-1.41,9.09-1.41v-.78ZM43.69,19.41c-.05-.7-.49-1.34-1.16-1.89-.67-.56-1.62-1.07-2.78-1.5-2.32-.87-5.56-1.45-9.37-1.45v.78c3.74,0,6.88.57,9.1,1.4,1.11.41,1.97.89,2.55,1.37.59.49.85.95.88,1.34l.78-.05ZM43.69,19.53s0-.09,0-.13l-.77.07h0s.77.06.77.06ZM40.83,22.53c.88-.41,1.58-.87,2.07-1.37.49-.5.79-1.06.79-1.67h-.78c0,.33-.17.71-.57,1.12-.4.41-1.02.82-1.85,1.21l.33.7ZM30.38,24.44c4.06,0,7.87-.68,10.44-1.9l-.33-.7c-2.43,1.15-6.12,1.83-10.11,1.83v.78ZM19.94,22.53c2.57,1.22,6.38,1.9,10.44,1.9v-.78c-3.99,0-7.68-.68-10.11-1.83l-.33.7ZM17.08,19.5c0,.6.3,1.17.79,1.67.49.5,1.19.96,2.07,1.37l.33-.7c-.82-.39-1.44-.8-1.84-1.21-.4-.41-.57-.79-.57-1.12h-.78ZM17.08,19.41s0,.06,0,.08c0,0,0,.02,0,.03,0,0,0,.05.02.1,0,.02.02.05.04.08.02.03.06.09.14.13.09.05.2.06.3.03.08-.03.14-.07.16-.1.05-.05.07-.1.08-.11,0-.02.01-.03.02-.04l-.74-.25s0-.02.02-.04c0,0,.03-.06.07-.11.02-.03.08-.07.16-.1.1-.03.21-.02.3.03.08.04.12.1.14.13.02.03.03.06.04.08.01.03.02.06.02.07,0,.01,0,.02,0,.03,0,.01,0,.02,0,.02,0,0,0,0,0-.03l-.78-.06ZM17.48,19.04h0v.78h0v-.78ZM16.15,26.86s0,.08,0,.12l.77-.08s0,.03,0,.04l-.77-.08ZM16.53,27.29h0v-.78h0v.78ZM13.08,30.02c.04-.41.32-.88.93-1.38.61-.49,1.5-.97,2.65-1.37l-.26-.73c-1.2.43-2.18.94-2.88,1.5-.69.56-1.16,1.21-1.22,1.91l.77.07ZM13.08,30.08v-.09h-.78v.09h.78ZM13.11,30.22c-.02-.06-.03-.12-.03-.18l-.77.07c0,.1.03.21.06.31l.75-.21ZM14.61,31.88c-.94-.55-1.4-1.13-1.48-1.62l-.77.13c.14.84.86,1.57,1.85,2.16l.4-.67ZM15.51,32.37c-.31-.15-.61-.31-.9-.49l-.41.66c.31.2.64.37.98.53l.33-.7ZM16.8,32.89c-.44-.15-.87-.32-1.29-.52l-.32.71c.44.2.9.39,1.36.54l.25-.74ZM25.63,34.2c-3.33,0-6.46-.48-8.83-1.31l-.26.73c2.47.87,5.7,1.35,9.09,1.35v-.78ZM26.07,34.2h-.44v.78h.44v-.78ZM26.21,34.2h-.13v.78h.13v-.78ZM26.82,34.18c-.2,0-.4.02-.62.02v.78c.24,0,.45-.01.65-.02l-.03-.78ZM26.84,34.18h0v.78h0v-.78ZM26.84,34.18h0v.78h0v-.78ZM27.47,34.16c-.21,0-.43,0-.65.02l.03.78c.23,0,.43-.02.62-.02v-.78ZM28.12,34.12l-.67.04.05.78.67-.04-.05-.78ZM29.15,34.02c-.35.04-.7.07-1.05.1l.07.77c.36-.03.71-.06,1.06-.1l-.08-.77ZM29.39,34.02h-.2v.78h.2v-.78ZM29.58,33.99l-.24.03.1.77.24-.03-.1-.77ZM29.71,33.99h-.08v.78h.08v-.78ZM30.32,33.9c-.23.03-.45.07-.66.09l.09.77c.22-.03.46-.06.68-.09l-.11-.77ZM30.54,33.87l-.22.03.12.77.22-.03-.12-.77ZM30.67,33.86h-.07v.78h.07v-.78ZM30.97,33.8c-.12.02-.24.05-.37.07l.12.77c.14-.02.26-.05.39-.07l-.15-.76ZM31.42,33.72c-.16.02-.31.05-.45.08l.15.76c.14-.03.27-.05.42-.08l-.12-.77ZM32.21,33.57c-.26.06-.52.11-.79.16l.12.77c.3-.05.58-.1.85-.17l-.17-.76ZM32.33,33.56h-.03v.78h.03v-.78ZM32.56,33.5l-.32.07.16.76.32-.07-.16-.76ZM32.68,33.47l-.13.03.18.76.13-.03-.18-.76ZM33.05,33.38l-.37.09.19.75.37-.09-.19-.75ZM33.2,33.34l-.16.04.21.75.16-.04-.21-.75ZM33.57,33.23l-.37.11.22.75.37-.11-.22-.75ZM33.42,33.29l-.06.09.64.44.06-.09-.64-.44ZM34.58,32.83c-.32.11-.62.22-.95.32l.22.75c.35-.1.67-.22.99-.33l-.26-.73ZM34.58,32.82h0l.25.74h0l-.25-.74ZM34.73,32.77l-.15.05.26.73.15-.05-.26-.73ZM34.87,32.72c-.06.02-.1.04-.15.06l.28.73c.07-.03.13-.05.18-.08l-.31-.71ZM34.85,32.72h0l.35.7h0l-.35-.7ZM34.87,32.72h0l.31.71h0s-.31-.71-.31-.71ZM35.02,32.65c-.05.02-.11.04-.15.06l.31.71s.09-.04.13-.05l-.28-.72ZM35.18,32.59c-.06.02-.11.05-.17.07l.29.72c.05-.02.11-.04.16-.07l-.29-.72ZM35.69,32.37c-.12.06-.31.13-.51.21l.29.72c.19-.08.41-.16.56-.24l-.35-.7ZM35.77,32.33l-.08.04.35.7.08-.04-.35-.7ZM36.23,32.1c-.14.08-.3.16-.46.24l.35.7c.16-.08.33-.16.49-.25l-.38-.68ZM36.38,32.01l-.16.09.39.68.16-.09-.39-.68ZM36.69,31.82c-.1.07-.2.13-.31.18l.37.68c.13-.07.24-.14.35-.21l-.42-.65ZM36.86,31.71l-.18.12.43.65.18-.12-.43-.65ZM37.1,31.53l-.25.19.46.63.25-.19-.46-.63ZM37.25,31.42l-.16.12.48.61.16-.12-.48-.61ZM37.46,31.23c-.07.07-.14.13-.21.19l.49.61c.1-.08.19-.16.28-.25l-.56-.54ZM37.57,31.12l-.09.08.51.58.09-.08-.51-.58ZM37.77,30.88c-.07.09-.14.18-.23.26l.56.54c.1-.11.2-.22.29-.34l-.62-.47ZM37.82,30.81s-.03.05-.05.07l.62.47c.04-.05.07-.1.1-.16l-.68-.38ZM37.95,30.6c-.03.06-.07.11-.11.17l.63.45c.06-.08.11-.16.16-.24l-.68-.38ZM37.98,30.55s-.03.04-.04.08l.71.32h0s-.67-.4-.67-.4ZM37.96,30.67c0-.06.02-.11.02-.12,0,0,0-.01,0-.01,0,0,0,0,0,.01l.67.4s.03-.04.04-.08c.02-.04.05-.11.05-.2h-.78ZM38.01,30.46s-.01.03-.02.05l.71.31s.03-.09.05-.13l-.74-.23ZM38.33,30.97h.05v-.78h-.05v.78ZM38.01,31.06l.41-.1-.19-.75-.41.1.19.75ZM37.45,31.2c.2-.04.39-.09.57-.14l-.2-.75c-.18.05-.36.1-.54.13l.16.76ZM37,31.3l.44-.1-.17-.76-.44.1.17.76ZM36.79,31.34c.07-.01.14-.03.2-.04l-.15-.76c-.07.01-.14.03-.21.04l.16.76ZM36.8,31.34h0l-.17-.76h0l.17.76ZM36.79,31.34h0s-.16-.76-.16-.76h0l.16.76ZM36.42,31.41c.13-.02.25-.05.37-.07l-.16-.76c-.12.02-.23.05-.34.07l.14.77ZM35.96,31.49l.47-.08-.13-.77-.47.08.13.77ZM35.8,31.52l.15-.02-.12-.77-.15.02.12.77ZM35.37,31.59c.12-.02.27-.04.43-.07l-.12-.77c-.16.03-.32.05-.44.07l.13.77ZM35.1,31.63c.09-.01.17-.02.27-.04l-.13-.77c-.09.01-.16.02-.25.04l.1.77ZM35.09,31.63h0l-.09-.77h0l.09.77ZM35.1,31.63h0l-.11-.77h0l.11.77ZM34.89,31.66c.08-.01.15-.02.21-.03l-.1-.77c-.06,0-.13.02-.22.03l.11.77ZM34.45,31.71c.14-.02.29-.03.44-.06l-.11-.77c-.14.02-.27.04-.42.05l.09.77ZM34.45,31.71h0s-.09-.77-.09-.77h0l.09.77ZM34.26,31.74c.06,0,.13-.02.19-.02l-.09-.77c-.06,0-.13.02-.19.02l.1.77ZM33.78,31.78l.47-.05-.08-.77-.47.05.08.77ZM33.11,31.85l.67-.06-.07-.77-.67.06.07.77ZM32.65,31.88l.45-.03-.06-.78-.45.03.06.78ZM32.57,31.89h.08s-.06-.78-.06-.78h-.08s.06.78.06.78ZM32.56,31.89h0l-.05-.78h0l.05.78ZM32.54,31.89h0v-.78h0v.78ZM31.88,31.92c.24,0,.48-.02.69-.04l-.06-.78c-.22.02-.43.03-.63.03v.78ZM31.5,31.92h.37v-.78h-.37v.78ZM30.35,31.92h1.15v-.78h-1.15v.78ZM29.12,31.92h1.23v-.78h-1.23v.78ZM29.01,31.92h.11v-.78h-.11v.78ZM27.85,31.86c.37.02.75.04,1.15.06l.03-.78c-.39-.01-.76-.04-1.13-.06l-.05.78ZM27.71,31.86h.16v-.78h-.16v.78ZM26.6,31.76c.35.04.72.07,1.08.1l.06-.78c-.36-.03-.71-.06-1.06-.1l-.08.77ZM26.46,31.76h.18v-.78h-.18v.78ZM25.38,31.63c.34.05.69.09,1.03.13l.09-.77c-.35-.04-.68-.08-1.01-.13l-.11.77ZM25.21,31.6l.17.03.12-.77-.17-.03-.12.77ZM24.21,31.43c.33.06.66.12,1,.17l.12-.77c-.33-.05-.66-.11-.98-.17l-.14.76ZM24.07,31.41l.14.03.14-.76-.14-.03-.14.76ZM23.09,31.2c.32.08.65.14.98.21l.15-.76c-.33-.06-.64-.13-.95-.2l-.18.76ZM23.1,31.21h.08v-.78h-.08v.78ZM22.05,30.95c.31.09.63.17.95.25l.18-.76c-.32-.08-.63-.16-.92-.24l-.21.75ZM22.13,30.96h.03v-.78h-.03v.78ZM21.13,30.67c.29.1.59.19.9.28l.21-.75c-.29-.08-.58-.17-.86-.27l-.25.74ZM21.04,30.64l.09.03.24-.74-.09-.03-.24.74ZM20.23,30.34c.26.1.52.2.8.3l.26-.73c-.26-.09-.52-.19-.76-.28l-.29.72ZM20.11,30.28l.11.05.31-.71-.11-.05-.31.71ZM19.39,29.96c.23.11.47.22.72.32l.29-.72c-.24-.1-.46-.2-.68-.3l-.34.7ZM19.29,29.91l.11.05.33-.7-.11-.05-.33.7ZM18.63,29.56c.21.12.42.23.65.35l.35-.69c-.22-.11-.42-.22-.61-.33l-.39.67ZM18.53,29.5l.1.06.39-.67-.1-.06-.39.67ZM18.3,29.36c.07.05.14.09.21.13l.43-.65c-.07-.05-.14-.09-.21-.14l-.42.65ZM18.3,29.35h0s.42-.65.42-.65h0s-.42.65-.42.65ZM17.93,29.11c.12.09.25.17.37.25l.42-.65c-.12-.08-.23-.15-.34-.23l-.45.63ZM17.86,29.06l.07.05.46-.63-.07-.05-.46.63ZM17.34,28.64c.16.14.34.28.53.42l.46-.63c-.17-.12-.33-.25-.47-.38l-.51.58ZM17.31,28.61l.03.03.51-.59-.03-.03-.51.59ZM16.84,28.14c.14.16.3.32.46.46l.52-.58c-.14-.13-.27-.26-.4-.4l-.58.52ZM16.47,27.65c.11.17.23.33.36.49l.59-.5c-.11-.13-.21-.27-.3-.41l-.65.42ZM16.45,27.61l.03.05.64-.44-.03-.05-.64.44ZM16.18,27.09c.07.17.16.34.25.5l.67-.4c-.08-.13-.14-.26-.2-.4l-.72.3ZM17,40.21c2.8.84,5.71,1.25,8.63,1.21v-.78c-2.85.04-5.69-.36-8.41-1.18l-.22.74ZM17.07,40.22h.03v-.78h-.03v.78ZM12.33,36.6c.05.77.59,1.47,1.37,2.05.79.59,1.91,1.13,3.25,1.55l.24-.74c-1.3-.41-2.32-.91-3.02-1.44-.71-.53-1.03-1.05-1.06-1.48l-.78.05ZM12.33,36.5s0,.03,0,.05l.78.05s0-.09,0-.14l-.78.05ZM12.33,32.38v4.1h.78v-4.1h-.78ZM13.08,32.18l-.12-.1-.5.6.12.1.5-.6ZM13.23,32.31l-.15-.13-.51.59.15.13.51-.59ZM13.59,32.59c-.13-.1-.25-.19-.36-.28l-.5.59c.13.11.26.21.39.31l.47-.62ZM13.75,32.71l-.18-.12-.45.64.18.12.45-.64ZM14.18,32.97c-.16-.09-.3-.18-.43-.27l-.44.64c.15.1.32.2.48.3l.39-.67ZM14.36,33.09l-.18-.11-.41.66.18.11.41-.66ZM14.98,33.41c-.23-.11-.43-.22-.63-.33l-.38.68c.21.12.44.24.67.35l.34-.7ZM15.05,33.44l-.06-.03-.37.69.06.03.37-.69ZM15.59,33.67c-.2-.08-.39-.16-.56-.24l-.33.71c.19.09.4.17.6.25l.29-.72ZM15.59,33.67h0l-.28.72h0l.28-.72ZM15.7,33.71l-.11-.04-.29.72.11.04.29-.72ZM25.63,35.37c-3.81,0-7.38-.61-9.93-1.65l-.29.72c2.67,1.1,6.34,1.71,10.23,1.71v-.78ZM26.15,35.37h-.52v.78h.52v-.78ZM26.38,35.37h-.23v.78h.23v-.78ZM27.13,35.37h-.75v.78h.75v-.78ZM27.4,35.37h-.27v.78h.27v-.78ZM28.13,35.33c-.25.02-.49.04-.74.04v.78c.28,0,.55-.02.8-.04l-.06-.78ZM28.13,35.33h0l.07.77h0l-.07-.77ZM28.22,35.32h-.09s.06.78.06.78h.09s-.06-.78-.06-.78ZM29.47,35.2c-.41.05-.85.09-1.25.12l.06.78c.41-.03.85-.08,1.27-.12l-.09-.77ZM29.73,35.17l-.25.03.08.77.25-.03-.08-.77ZM29.84,35.17h-.07v.78h.07v-.78ZM30.46,35.08l-.68.1.11.77.68-.1-.11-.77ZM30.73,35.04l-.27.04.12.77.27-.04-.12-.77ZM30.81,35.03h-.02v.78h.02v-.78ZM31.61,34.89c-.29.06-.57.11-.86.15l.12.77c.29-.05.59-.09.9-.16l-.15-.76ZM31.95,34.82c-.11.02-.23.04-.34.07l.15.76c.11-.02.22-.04.33-.06l-.14-.76ZM32.41,34.73c-.14.03-.29.06-.46.09l.14.76c.17-.03.34-.06.49-.1l-.18-.76ZM32.5,34.71l-.09.02.17.76.09-.02-.17-.76ZM32.63,34.7h-.05v.78h.05v-.78ZM33.23,34.55c-.22.06-.44.12-.68.16l.15.76c.26-.05.5-.11.73-.17l-.2-.75ZM33.35,34.52l-.11.03.18.76.11-.03-.18-.76ZM34.02,34.33c-.21.07-.44.13-.67.19l.19.76c.25-.06.49-.13.71-.2l-.23-.74ZM35.19,33.94c-.38.14-.77.27-1.17.39l.22.74c.42-.13.82-.26,1.21-.41l-.27-.73ZM35.46,33.83c-.1.04-.18.08-.27.11l.27.73c.11-.04.21-.09.31-.13l-.31-.71ZM35.46,33.83h0l.31.71h0l-.31-.71ZM35.66,33.74c-.07.03-.14.06-.2.08l.31.71c.06-.03.12-.05.18-.08l-.29-.72ZM35.77,33.7l-.11.04.29.72.11-.04-.29-.72ZM36.25,33.49c-.15.07-.33.14-.48.2l.29.72c.15-.06.35-.14.52-.22l-.33-.71ZM36.29,33.47l-.06.03.37.69.06-.03-.37-.69ZM36.92,33.14c-.19.11-.4.22-.62.32l.33.7c.24-.11.46-.23.68-.35l-.39-.67ZM37.1,33.04l-.18.1.39.67.18-.1-.39-.67ZM37.16,33l-.07.04.41.66.07-.04-.41-.66ZM37.16,33h0l.41.66h0s-.41-.66-.41-.66ZM37.54,32.77c-.12.08-.24.16-.38.24l.41.66c.13-.08.27-.17.4-.25l-.43-.65ZM37.7,32.65l-.17.12.45.63.17-.12-.45-.63ZM38.04,32.38c-.1.09-.21.17-.34.27l.46.63c.14-.1.28-.21.41-.32l-.52-.58ZM38.19,32.25l-.15.13.5.59.15-.13-.5-.59ZM38.26,32.19s-.05.04-.09.08l.55.55s0,0,0,0c0,0,.01,0,.02-.02l-.49-.6ZM38.28,32.17s0,0,0,0c0,0-.01,0-.02.02l.49.6s.05-.04.09-.08l-.55-.55ZM38.95,36.46v-4.02h-.78v4.02h.78ZM38.95,36.51v-.04h-.78v.04h.78ZM38.95,36.56v-.06h-.78v.06h.78ZM25.62,41.42c3.81,0,7.05-.58,9.37-1.45,1.16-.43,2.11-.94,2.78-1.5.67-.55,1.12-1.19,1.17-1.88l-.78-.06c-.03.39-.3.85-.89,1.34-.59.48-1.45.96-2.56,1.37-2.22.83-5.36,1.4-9.1,1.4v.78ZM38.79,28.92c-2.73.82-5.56,1.22-8.41,1.18v.78c2.92.04,5.83-.37,8.63-1.21l-.22-.74ZM42.93,25.98c-.04.44-.37.96-1.09,1.49-.71.53-1.74,1.03-3.05,1.45l.24.74c1.36-.43,2.47-.97,3.28-1.56.79-.59,1.33-1.28,1.4-2.05l-.77-.07ZM42.93,25.93v.09h.78v-.09h-.78ZM42.93,21.84v4.08h.78v-4.08h-.78ZM43.52,22.18s.03-.03.06-.05l-.52-.58s-.01.01-.03.02l.49.61ZM43.49,22.2s0,0,0,0c0,0,.01,0,.02-.02l-.49-.61s-.05.04-.09.08l.55.55ZM43.28,22.38l.18-.16-.51-.59-.18.16.51.59ZM42.92,22.66c.13-.09.24-.18.36-.28l-.5-.6c-.1.09-.21.17-.31.25l.45.63ZM42.71,22.81l.21-.15-.44-.64-.21.15.44.64ZM42.27,23.09c.15-.09.3-.19.44-.28l-.43-.65c-.13.09-.26.17-.4.25l.4.67ZM42.2,23.13s.05-.03.07-.04l-.39-.67s-.06.03-.08.05l.4.67ZM42.04,23.22c.06-.03.11-.06.15-.09l-.4-.67s-.08.05-.11.07l.36.69ZM41.33,23.6c.25-.12.5-.25.74-.4l-.41-.66c-.2.13-.42.24-.66.35l.33.7ZM30.4,25.62c4.22,0,8.21-.73,10.93-2.02l-.33-.7c-2.58,1.23-6.44,1.94-10.6,1.94v.78ZM19.47,23.6c2.72,1.29,6.71,2.02,10.93,2.02v-.78c-4.15,0-8.02-.72-10.6-1.94l-.33.7ZM18.74,23.21c.23.13.46.25.72.38l.35-.69c-.25-.12-.47-.25-.69-.37l-.38.68ZM18.57,23.11c.05.03.11.07.18.11l.36-.69s-.08-.05-.13-.08l-.41.66ZM18.53,23.09s.03.02.04.03l.41-.66s-.03-.02-.04-.03l-.41.66ZM18.09,22.81c.14.09.29.19.44.28l.4-.67c-.14-.08-.27-.17-.4-.25l-.43.65ZM17.88,22.66l.21.15.45-.63-.21-.15-.45.63ZM17.61,22.45c.07.06.18.14.27.21l.45-.63c-.07-.05-.16-.12-.24-.18l-.49.61ZM17.53,22.39s.04.03.08.06l.49-.61s-.07-.06-.1-.08l-.47.62ZM17.34,22.23c.05.04.12.1.19.15l.47-.62s-.1-.08-.15-.12l-.51.59ZM17.33,22.22s0,0,.01,0l.51-.59s0,0-.01,0l-.51.59ZM17.23,22.13l.1.09.52-.58-.1-.09-.52.58ZM17.87,25.99v-4.15h-.78v4.15h.78ZM17.87,26.09s0-.09,0-.14l-.77.06s0,0,0,0l.77.06ZM17.87,26.15s0-.1,0-.14l-.77.11s0-.05,0-.08l.77.11ZM17.94,26.32c-.04-.09-.06-.18-.07-.28l-.77.1c.02.16.06.32.12.47l.72-.29ZM30.38,30.1c-3.43,0-6.38-.49-8.57-1.23-1.09-.37-1.98-.79-2.64-1.24-.67-.45-1.07-.9-1.23-1.31l-.72.29c.25.61.79,1.17,1.51,1.66.73.5,1.69.95,2.83,1.33,2.28.77,5.31,1.27,8.81,1.27v-.78Z"/>
</svg>