<?xml version="1.0" encoding="UTF-8"?>
<svg id="Layer_1" data-name="Layer 1" xmlns="http://www.w3.org/2000/svg" viewBox="0 0 56 56">
  <defs>
    <style>
      .cls-1 {
        fill: #103e36;
      }

      .cls-2 {
        fill: #fff;
      }
    </style>
  </defs>
  <path class="cls-1" d="M0,9C0,4.03,4.03,0,9,0h38c4.97,0,9,4.03,9,9v38c0,4.97-4.03,9-9,9H9C4.03,56,0,51.97,0,47V9Z"/>
  <path class="cls-2" d="M14.25,18c0-2.07,1.68-3.75,3.75-3.75h14.17c2.07,0,3.75,1.68,3.75,3.75v12.92h5.84v5.42c0,2.99-2.43,5.42-5.42,5.42h-16.67c-2.99,0-5.42-2.43-5.42-5.42v-18.34ZM35.92,33.42v5.84h.42c1.61,0,2.92-1.31,2.92-2.92v-2.92h-3.33ZM33.42,39.25v-21.26c0-.69-.56-1.25-1.25-1.25h-14.17c-.69,0-1.25.56-1.25,1.25v18.34c0,1.61,1.31,2.92,2.92,2.92h13.75ZM19.25,22.16c0-.69.56-1.25,1.25-1.25h9.17c.69,0,1.25.56,1.25,1.25s-.56,1.25-1.25,1.25h-9.17c-.69,0-1.25-.56-1.25-1.25ZM19.25,28c0-.69.56-1.25,1.25-1.25h9.17c.69,0,1.25.56,1.25,1.25s-.56,1.25-1.25,1.25h-9.17c-.69,0-1.25-.56-1.25-1.25ZM19.25,33.84c0-.69.56-1.25,1.25-1.25h4.17c.69,0,1.25.56,1.25,1.25s-.56,1.25-1.25,1.25h-4.17c-.69,0-1.25-.56-1.25-1.25Z"/>
</svg>