<?xml version="1.0" encoding="UTF-8"?>
<svg id="Layer_1" data-name="Layer 1" xmlns="http://www.w3.org/2000/svg" viewBox="0 0 56 56">
  <defs>
    <style>
      .cls-1 {
        fill: #103e36;
      }

      .cls-2 {
        fill: #fff;
      }
    </style>
  </defs>
  <path class="cls-1" d="M0,9C0,4.03,4.03,0,9,0h38c4.97,0,9,4.03,9,9v38c0,4.97-4.03,9-9,9H9C4.03,56,0,51.97,0,47V9Z"/>
  <path class="cls-2" d="M17.63,40.93c-.27-.22-.56-.47-.84-.76l-1.33,2.14c-.31.51-.17,1.19.32,1.53l2.62,1.78c.49.34,1.15.2,1.46-.31l1.44-2.32c-1.2-.37-2.43-1.05-3.68-2.05Z"/>
  <path class="cls-2" d="M30.41,28.38l1.42-2.29c.33-.53.18-1.24-.34-1.59l-2.09-1.42c-.52-.35-1.2-.2-1.53.32l-1.42,2.29c-.33.53-.18,1.24.34,1.59l2.09,1.42c.52.35,1.2.2,1.53-.32Z"/>
  <path class="cls-2" d="M26.7,21.64c-.03-.13-.08-.26-.15-.37-.02.36-.04.72-.08,1.08-.01.12-.02.23-.04.34l.12-.19c.16-.25.21-.56.15-.86Z"/>
  <path class="cls-2" d="M27.06,19.55c.52.35,1.2.2,1.53-.32l1.42-2.29c.21-.33.22-.74.08-1.08,1.52-1.32,2.99-2.33,4.27-2.9l-.99,1.6c-.33.53-.18,1.24.34,1.59l2.09,1.42c.51.35,1.2.21,1.53-.32l.99-1.6c.02,1.15-.14,2.56-.5,4.14-.08.37-.18.74-.28,1.12-.36,0-.71.18-.92.52l-1.42,2.29c-.15.24-.2.52-.16.78.56-.4,1.15-.79,1.75-1.17.8-.5,1.63-.98,2.49-1.43.15-.55.29-1.09.41-1.62,1.07-4.72.62-7.92-1.32-9.23-3.03-2.06-7.84,1.65-10.47,4.11-.5.47-.99.96-1.48,1.47.1.93.16,1.85.17,2.75.03-.03.05-.06.08-.09l.39.27Z"/>
  <path class="cls-2" d="M33.87,22.81l1.42-2.29c.33-.53.18-1.24-.34-1.59l-2.09-1.42c-.25-.17-.55-.23-.83-.17-.29.06-.54.24-.69.49l-1.42,2.29c-.16.25-.21.56-.15.86.06.3.24.56.49.73l2.09,1.42c.52.35,1.2.2,1.53-.32Z"/>
  <path class="cls-2" d="M25.93,34.46c.81-.83,1.54-1.79,1.99-2.55.2-.33.41-.66.63-.99-.03-.34-.21-.66-.51-.86l-2.09-1.42c-.33-.23-.74-.24-1.07-.09-.29.63-.62,1.24-.99,1.81-.43.67-.77,1.27-1.03,1.8.07.27.23.52.47.69l2.09,1.42c.16.11.33.17.5.18Z"/>
  <path class="cls-2" d="M22.17,34.07c-.15.69-.11,1.1-.08,1.28.06.3.2.51.46.68.26.17.52.22.86.14.36-.08.76-.27,1.16-.54l-2.08-1.41c-.1-.07-.21-.12-.33-.15Z"/>
  <path class="cls-2" d="M42.73,22.8c-.23-.34-.66-.46-1.02-.3-3.75,1.75-9.34,5.06-12.46,10.28-.74,1.25-3.13,4.48-5.5,4.98-.7.15-1.39.06-2.05-.38-2.87-1.95.11-6.76.87-7.94,2.88-4.46,2.63-10.35,2.13-13.88-.06-.39-.35-.69-.73-.74-.37-.05-.73.17-.86.53-1.04,2.84-2.87,7.38-5.29,11.66-3.63,6.41-1.86,10.53.74,12.62,1.72,1.37,3.63,2.31,5.62,1.96,3.53-.62,6.47-2.31,9.21-6.35,3.14-4.63,6.79-8.75,9.26-11.36.28-.29.31-.75.08-1.09Z"/>
</svg>