<?xml version="1.0" encoding="UTF-8"?>
<svg id="Layer_1" data-name="Layer 1" xmlns="http://www.w3.org/2000/svg" viewBox="0 0 56 56">
  <defs>
    <style>
      .cls-1 {
        fill: #103e36;
      }

      .cls-2 {
        fill: #fff;
      }
    </style>
  </defs>
  <path class="cls-1" d="M0,9C0,4.03,4.03,0,9,0h38c4.97,0,9,4.03,9,9v38c0,4.97-4.03,9-9,9H9C4.03,56,0,51.97,0,47V9Z"/>
  <path class="cls-2" d="M38.63,16.12h-16.54c-.69,0-1.25.56-1.25,1.25s.56,1.25,1.25,1.25h13.52l-19.13,19.13c-.49.49-.49,1.28,0,1.77.24.24.56.37.88.37s.64-.12.88-.37l19.13-19.13v13.52c0,.69.56,1.25,1.25,1.25s1.25-.56,1.25-1.25v-16.54c0-.69-.56-1.25-1.25-1.25Z"/>
</svg>