<?xml version="1.0" encoding="UTF-8"?>
<svg id="Layer_1" data-name="Layer 1" xmlns="http://www.w3.org/2000/svg" viewBox="0 0 56 56">
  <defs>
    <style>
      .cls-1 {
        fill: #103e36;
      }

      .cls-2 {
        fill: #fff;
      }
    </style>
  </defs>
  <path class="cls-1" d="M0,9C0,4.03,4.03,0,9,0h38c4.97,0,9,4.03,9,9v38c0,4.97-4.03,9-9,9H9C4.03,56,0,51.97,0,47V9Z"/>
  <g>
    <g>
      <path class="cls-2" d="M20.04,24.02h4.47v1.43h-2.97v1.52h2.33v1.43h-2.33v2.97h-1.5v-7.34Z"/>
      <path class="cls-2" d="M29.77,31.37h-1.42v-.41c-.17.17-.36.3-.59.39-.23.09-.46.13-.68.13-.33,0-.63-.06-.88-.17-.26-.11-.48-.27-.66-.47-.18-.2-.32-.44-.41-.72-.09-.28-.14-.59-.14-.94v-3h1.42v2.76c0,.37.08.67.23.89.16.22.4.34.74.34.18,0,.36-.05.53-.16.18-.11.32-.25.44-.43v-3.4h1.42v5.17Z"/>
      <path class="cls-2" d="M32.63,31.48c-.45,0-.87-.08-1.24-.24s-.67-.41-.89-.75l.97-.83c.12.19.28.34.48.44.2.1.43.16.68.16.14,0,.28-.03.39-.09.12-.06.18-.15.18-.28,0-.11-.04-.2-.13-.27-.09-.07-.28-.15-.56-.22l-.38-.09c-.48-.12-.84-.33-1.08-.62-.24-.29-.36-.63-.35-1.03,0-.23.06-.45.16-.64.1-.19.24-.36.41-.5.17-.14.38-.24.61-.32.23-.07.49-.11.77-.11.79,0,1.39.29,1.79.87l-.93.75c-.24-.3-.53-.45-.88-.45-.12,0-.24.03-.35.09-.11.06-.17.15-.17.26,0,.08.03.16.09.24.06.08.2.15.42.21l.49.14c.46.12.83.31,1.1.56s.4.6.4,1.04c0,.25-.05.48-.15.68-.1.21-.24.38-.41.53-.18.15-.38.26-.63.35-.24.08-.5.12-.78.12Z"/>
      <path class="cls-2" d="M36.09,25.56c-.12,0-.24-.02-.35-.07-.11-.05-.2-.11-.28-.19-.08-.08-.15-.17-.2-.28-.05-.11-.07-.23-.07-.35s.02-.24.07-.35c.05-.11.11-.2.2-.28.08-.08.18-.14.28-.19.11-.05.22-.07.35-.07.25,0,.47.09.65.26s.26.39.26.64-.09.46-.26.64-.39.26-.65.26ZM35.39,26.2h1.42v5.17h-1.42v-5.17Z"/>
      <path class="cls-2" d="M40.3,31.48c-.37,0-.72-.07-1.05-.21-.33-.14-.62-.33-.87-.57-.25-.24-.44-.53-.58-.86-.14-.33-.21-.68-.21-1.06s.07-.73.21-1.06c.14-.33.34-.61.58-.85.25-.24.54-.43.87-.57.33-.14.68-.21,1.05-.21s.72.07,1.05.21c.33.14.62.33.87.57.25.24.44.53.58.85.14.33.21.68.21,1.06s-.07.73-.21,1.06c-.14.33-.34.61-.58.86-.25.24-.54.44-.87.57-.33.14-.68.21-1.05.21ZM40.3,30.16c.19,0,.36-.03.51-.1.16-.07.29-.16.4-.28.11-.12.2-.27.27-.43.07-.17.1-.35.1-.55s-.03-.38-.1-.55c-.07-.17-.16-.31-.27-.43-.11-.12-.25-.22-.4-.28-.16-.07-.33-.1-.51-.1s-.36.03-.52.1c-.16.07-.29.16-.41.28-.11.12-.2.27-.27.43-.07.17-.1.35-.1.55s.03.38.1.55c.07.17.16.31.27.43.11.12.25.22.41.28.16.07.33.1.52.1Z"/>
      <path class="cls-2" d="M43.79,26.2h1.42v.43c.17-.18.37-.32.61-.41.24-.09.51-.14.8-.14.32,0,.62.06.87.17.26.11.48.27.65.47.18.2.31.44.4.72s.14.59.14.94v3h-1.42v-2.76c0-.37-.08-.67-.24-.89-.16-.22-.4-.34-.72-.34-.24,0-.46.06-.65.17-.19.11-.34.25-.45.42v3.4h-1.42v-5.17Z"/>
    </g>
    <path class="cls-2" d="M13.74,23.67h0l-.23.07v.88c0,.44-.29.84-.7.97l-2.39.75v1.3l3.14-.99c.75-.23,1.19-.88,1.19-1.72v-.58c0-.4-.45-.85-1.01-.68"/>
    <path class="cls-2" d="M8.74,23.3l4.44-1.4c.49-.15.87-.14,1.1-.12l-.56-.41c-.26-.19-1.04-.62-2.01-.31l-4.22,1.33,1.24.91Z"/>
    <path class="cls-2" d="M13.65,26.94l-3.55,1.12v-3.57l3.54-1.12c.74-.23,1.41.36,1.41.97v.58c0,1.02-.56,1.75-1.41,2.02M15.51,27.14s.78-.71.78-2.24v-.65c0-1.01-1.16-2.65-3.02-2.06l-4.41,1.39v8.18l1.24-.39v-2.01l3.98-1.25c.74-.23,1.36.35,1.36,1v.8c0,.81-.72,1.96-1.84,2.31l-6.1,1.92,1.24.91,5.5-1.73c1.16-.37,2.45-1.36,2.45-3.48v-.81c0-1.28-1.17-1.88-1.17-1.88"/>
    <path class="cls-2" d="M15.13,29.9v-.8c0-.45-.43-.87-.96-.7l-.28.09v1.1c0,.54-.35,1.02-.87,1.18l-4.47,1.41v-8.63s-1.24-.91-1.24-.91v11.23l6.19-1.95c.97-.31,1.62-1.29,1.62-2.02"/>
  </g>
</svg>