<?xml version="1.0" encoding="UTF-8"?>
<svg id="Layer_1" data-name="Layer 1" xmlns="http://www.w3.org/2000/svg" viewBox="0 0 56 56">
  <defs>
    <style>
      .cls-1 {
        fill: #103e36;
      }

      .cls-2 {
        fill: #fff;
      }
    </style>
  </defs>
  <path class="cls-1" d="M0,9C0,4.03,4.03,0,9,0h38c4.97,0,9,4.03,9,9v38c0,4.97-4.03,9-9,9H9C4.03,56,0,51.97,0,47V9Z"/>
  <g>
    <path class="cls-2" d="M32.19,17.62h0s-.56.18-.56.18v2.1c0,1.05-.7,2.01-1.69,2.32l-5.75,1.81v3.11s7.56-2.38,7.56-2.38c1.79-.56,2.86-2.1,2.86-4.13v-1.39c0-.95-1.09-2.04-2.42-1.62Z"/>
    <path class="cls-2" d="M30.85,13.38c1.17-.37,2.09-.35,2.65-.28l-1.34-.98c-.62-.45-2.5-1.49-4.82-.75l-10.15,3.19,2.98,2.18s10.69-3.36,10.69-3.36Z"/>
    <path class="cls-2" d="M36.44,25.95s1.89-1.71,1.89-5.38v-1.55c0-2.42-2.79-6.34-7.26-4.94l-10.6,3.33v19.6l2.98-.94v-4.82l9.57-3.01c1.78-.55,3.27.84,3.27,2.39v1.91c0,1.94-1.72,4.7-4.42,5.55l-14.68,4.61,2.98,2.18,13.22-4.15c2.79-.88,5.88-3.27,5.88-8.34v-1.95c0-3.06-2.82-4.5-2.82-4.5h0ZM31.97,25.47l-8.53,2.68v-8.56l8.52-2.68c1.78-.56,3.39.86,3.39,2.33v1.39c0,2.44-1.34,4.2-3.38,4.84h0Z"/>
    <path class="cls-2" d="M35.54,32.55v-1.91c0-1.08-1.04-2.08-2.3-1.68l-.67.21v2.64c0,1.3-.84,2.44-2.08,2.83l-10.76,3.38v-20.69s-2.98-2.18-2.98-2.18v26.92l14.89-4.68c2.34-.73,3.9-3.1,3.9-4.84h0Z"/>
  </g>
</svg>