<?xml version="1.0" encoding="UTF-8"?>
<svg id="Layer_1" data-name="Layer 1" xmlns="http://www.w3.org/2000/svg" viewBox="0 0 56 56">
  <defs>
    <style>
      .cls-1 {
        fill: #fff;
        fill-rule: evenodd;
      }

      .cls-2 {
        fill: #103e36;
      }
    </style>
  </defs>
  <path class="cls-2" d="M0,9C0,4.03,4.03,0,9,0h38c4.97,0,9,4.03,9,9v38c0,4.97-4.03,9-9,9H9C4.03,56,0,51.97,0,47V9Z"/>
  <path class="cls-1" d="M7.7,28.49c.02.81.09,1.61.21,2.4v-.05s0,.05,0,.05l18.62-4.18V10.14s-.01-2.38-.01-2.38h0c-.81.06-1.6.15-2.38.3-9.39,1.82-16.49,10.1-16.46,20.01,0,.08,0,.16.01.24,0,.06,0,.12.01.18v.05s0-.05,0-.05ZM7.9,30.84l-.2-2.3c.02.78.09,1.55.2,2.3ZM28.3,45.93v-17.72s-.01,0-.01,0l17.8,9.03c-.36.71-.75,1.4-1.2,2.06-3.18,4.73-8.29,8.04-14.2,8.83-.78.1-1.58.17-2.39.18v-2.39ZM26.6,28.55l-18.31,4.32s0,0,0,0h0s.01.04.02.06c.13.53.29,1.05.46,1.56.08.22.15.44.24.66h0s0,0,0,0c2.48,6.56,8.23,11.51,15.26,12.82.78.15,1.57.24,2.39.29v-2.39s-.05-17.32-.05-17.32h0ZM9,35.14l-.71-2.27s.01.04.02.06c.13.53.29,1.05.46,1.56.07.22.15.44.23.65ZM42.74,38.21l-12.06-6.12h0s0,13.63,0,13.63c3.79-.56,7.3-2.31,10.05-5.08.75-.76,1.41-1.58,2.01-2.43ZM24.22,31.56l.04,13.97c-3.34-.71-6.42-2.34-8.9-4.8-1.79-1.77-3.14-3.86-4.04-6.13l12.9-3.04ZM29.71,26.96l12.96-12.98c.55.58,1.06,1.19,1.55,1.83,2.55,3.38,4.1,7.58,4.11,12.13,0,1.85-.26,3.64-.72,5.36-.21.78-.46,1.55-.76,2.29l-17.13-8.62ZM42.52,17.5h0s-8.79,8.81-8.79,8.81l11.7,5.89c.33-1.38.52-2.8.51-4.25-.01-3.81-1.22-7.42-3.42-10.45h0ZM24.14,10.49v14.31s-14.07,3.16-14.07,3.16c.02-8.54,6.04-15.69,14.07-17.46h0ZM28.23,10.07v-2.38s0,0,0,0h0c.81,0,1.6.07,2.39.18,3.25.42,6.27,1.6,8.85,3.37.66.45,1.29.95,1.89,1.48l-13.1,13.25-.02-15.89ZM30.62,10.27h0s0,0,0,0h0ZM30.62,10.27c2.56.37,4.99,1.28,7.15,2.69l-7.14,7.22-.02-9.9ZM30.62,10.27h0s0,0,0,0h0Z"/>
</svg>