<?xml version="1.0" encoding="UTF-8"?>
<svg id="Layer_1" data-name="Layer 1" xmlns="http://www.w3.org/2000/svg" viewBox="0 0 56 56">
  <defs>
    <style>
      .cls-1 {
        fill: #fff;
        fill-rule: evenodd;
      }

      .cls-2 {
        fill: #103e36;
      }
    </style>
  </defs>
  <path class="cls-2" d="M0,9C0,4.03,4.03,0,9,0h38c4.97,0,9,4.03,9,9v38c0,4.97-4.03,9-9,9H9C4.03,56,0,51.97,0,47V9Z"/>
  <path id="Shape-gold" class="cls-1" d="M21.88,28h-8.75c-.73,0-1.38.45-1.64,1.14l-2.62,7c-.43,1.14.42,2.36,1.64,2.36h14c1.22,0,2.07-1.22,1.64-2.36l-2.62-7c-.26-.68-.91-1.14-1.64-1.14ZM23.62,14h8.75c.73,0,1.38.45,1.64,1.14l2.62,7c.43,1.14-.42,2.36-1.64,2.36h-14c-1.22,0-2.07-1.22-1.64-2.36l2.62-7c.26-.68.91-1.14,1.64-1.14ZM42.88,28h-8.75c-.73,0-1.38.45-1.64,1.14l-2.62,7c-.43,1.14.42,2.36,1.64,2.36h14c1.22,0,2.07-1.22,1.64-2.36l-2.62-7c-.26-.68-.91-1.14-1.64-1.14Z"/>
</svg>