<?xml version="1.0" encoding="UTF-8"?>
<svg id="Layer_1" data-name="Layer 1" xmlns="http://www.w3.org/2000/svg" viewBox="0 0 56 56">
  <defs>
    <style>
      .cls-1 {
        fill: #103e36;
      }

      .cls-2 {
        fill: #fff;
      }
    </style>
  </defs>
  <path class="cls-1" d="M0,9C0,4.03,4.03,0,9,0h38c4.97,0,9,4.03,9,9v38c0,4.97-4.03,9-9,9H9C4.03,56,0,51.97,0,47V9Z"/>
  <g>
    <g>
      <path class="cls-2" d="M20.58,24.02h1.58l1.42,4.88,1.52-4.88h1.31l1.51,4.88,1.43-4.88h1.59l-2.28,7.34h-1.34l-1.55-5.05-1.55,5.05h-1.34l-2.28-7.34Z"/>
      <path class="cls-2" d="M33.25,31.48c-.39,0-.75-.06-1.08-.19-.33-.13-.62-.31-.87-.54-.24-.23-.44-.52-.58-.85-.14-.33-.21-.7-.21-1.11,0-.38.07-.73.2-1.06.13-.33.32-.62.57-.86.24-.24.53-.43.86-.57.33-.14.69-.21,1.09-.21.34,0,.66.05.97.16.31.11.58.27.81.48.23.21.42.48.56.8.14.32.21.69.21,1.11v.21c0,.08,0,.17-.02.28h-3.87c.02.17.07.33.16.46.08.13.19.25.31.34.12.09.26.16.42.21.16.05.32.07.49.07.32,0,.6-.06.82-.19.22-.13.39-.28.51-.46l1.05.79c-.24.35-.57.63-.97.84-.41.21-.88.32-1.43.32ZM34.36,28.15c-.06-.31-.21-.54-.43-.68s-.47-.22-.73-.22c-.13,0-.26.02-.4.05-.13.03-.26.09-.37.16-.11.07-.21.17-.3.28-.09.11-.15.25-.18.41h2.42Z"/>
      <path class="cls-2" d="M39.31,31.48c-.28,0-.53-.04-.75-.13s-.42-.21-.57-.36v.38h-1.42v-7.55h1.42v2.75c.15-.14.34-.26.57-.35.23-.09.48-.13.75-.13.38,0,.73.07,1.04.22.32.14.59.34.81.59.22.25.39.54.52.86.12.33.19.67.19,1.03s-.06.71-.19,1.03c-.12.32-.3.61-.52.86-.22.25-.49.44-.81.59-.32.14-.67.22-1.04.22ZM39.1,30.19c.19,0,.37-.04.53-.11.16-.08.3-.18.41-.3.11-.13.2-.28.26-.44.06-.17.09-.35.09-.54s-.03-.37-.09-.54c-.06-.17-.15-.32-.26-.44-.11-.13-.25-.23-.41-.3-.16-.08-.34-.11-.53-.11-.28,0-.5.05-.68.16-.18.11-.32.24-.44.4v1.69c.12.17.26.3.44.41.18.11.4.16.68.16Z"/>
      <path class="cls-2" d="M44.84,31.49c-.3,0-.59-.04-.87-.13-.29-.09-.55-.22-.79-.38-.24-.16-.45-.36-.63-.59-.18-.23-.31-.49-.38-.77l1.38-.53c.1.29.26.53.49.72.23.19.51.28.85.28.37,0,.65-.1.85-.29.19-.19.29-.43.29-.72,0-.33-.12-.59-.35-.79-.23-.2-.53-.29-.89-.29h-.95v-1.16l1.39-1.44h-2.51v-1.38h4.39v1.12l-1.59,1.65c.32.04.6.13.84.26.24.13.44.3.6.5.16.2.28.43.37.69.08.26.12.54.12.83,0,.37-.06.7-.19.99-.12.3-.3.55-.53.76-.23.21-.5.37-.82.49-.32.11-.67.17-1.05.17Z"/>
    </g>
    <path class="cls-2" d="M15,23.67h0l-.23.07v.88c0,.44-.29.84-.7.97l-2.39.75v1.3l3.14-.99c.75-.23,1.19-.88,1.19-1.72v-.58c0-.4-.45-.85-1.01-.68"/>
    <path class="cls-2" d="M10,23.3l4.44-1.4c.49-.15.87-.14,1.1-.12l-.56-.41c-.26-.19-1.04-.62-2.01-.31l-4.22,1.33,1.24.91Z"/>
    <path class="cls-2" d="M14.91,26.94l-3.55,1.12v-3.57l3.54-1.12c.74-.23,1.41.36,1.41.97v.58c0,1.02-.56,1.75-1.41,2.02M16.77,27.14s.78-.71.78-2.24v-.65c0-1.01-1.16-2.65-3.02-2.06l-4.41,1.39v8.18l1.24-.39v-2.01l3.98-1.25c.74-.23,1.36.35,1.36,1v.8c0,.81-.72,1.96-1.84,2.31l-6.1,1.92,1.24.91,5.5-1.73c1.16-.37,2.45-1.36,2.45-3.48v-.81c0-1.28-1.17-1.88-1.17-1.88"/>
    <path class="cls-2" d="M16.39,29.9v-.8c0-.45-.43-.87-.96-.7l-.28.09v1.1c0,.54-.35,1.02-.87,1.18l-4.47,1.41v-8.63s-1.24-.91-1.24-.91v11.23l6.19-1.95c.97-.31,1.62-1.29,1.62-2.02"/>
  </g>
</svg>