<?xml version="1.0" encoding="UTF-8"?>
<svg id="Layer_1" data-name="Layer 1" xmlns="http://www.w3.org/2000/svg" viewBox="0 0 56 56">
  <defs>
    <style>
      .cls-1 {
        fill: #103e36;
      }

      .cls-2 {
        fill: #fff;
      }
    </style>
  </defs>
  <path class="cls-1" d="M0,9C0,4.03,4.03,0,9,0h38c4.97,0,9,4.03,9,9v38c0,4.97-4.03,9-9,9H9C4.03,56,0,51.97,0,47V9Z"/>
  <path class="cls-2" d="M44.62,20.14c0-.42-.34-.76-.76-.76s-.76.34-.76.76c0,.6-.27,1.22-.86,1.85-.6.63-1.5,1.24-2.67,1.76-2.34,1.05-5.63,1.72-9.31,1.72s-6.96-.67-9.31-1.72c-1.17-.52-2.08-1.13-2.67-1.76-.6-.63-.86-1.25-.86-1.85,0-1.02.8-2.15,2.6-3.15,1.07-.6,2.42-1.11,3.98-1.48.41-.1.66-.51.56-.91-.1-.41-.51-.66-.91-.56-1.67.4-3.15.96-4.37,1.63-1.94,1.08-3.37,2.6-3.37,4.47,0,.16.01.31.03.47-.02.07-.03.14-.03.21v6.04c0,.11,0,.21.02.32-.42.18-.81.38-1.18.58-1.94,1.08-3.37,2.6-3.37,4.47,0,.16.01.31.03.47-.02.07-.03.14-.03.21v6.04c0,1.05.51,1.99,1.29,2.76.78.78,1.87,1.44,3.15,1.98,2.57,1.08,6.08,1.74,9.91,1.74s7.34-.65,9.91-1.74c1.29-.54,2.38-1.21,3.15-1.98.78-.78,1.29-1.71,1.29-2.76v-6.04c0-.07-.01-.15-.03-.21.02-.15.03-.31.03-.47,0-.19-.07-.37-.19-.5.09-.04.19-.07.28-.11,1.29-.54,2.38-1.21,3.15-1.98.78-.78,1.29-1.71,1.29-2.76v-6.04c0-.07-.01-.15-.03-.21.02-.15.03-.31.03-.47ZM38.58,38.96c0,.53-.25,1.1-.85,1.69-.6.59-1.5,1.16-2.67,1.66-2.35.99-5.64,1.62-9.32,1.62s-6.98-.63-9.32-1.62c-1.18-.5-2.08-1.07-2.67-1.66-.59-.59-.85-1.16-.85-1.69v-3.6c.76.72,1.76,1.35,2.92,1.87,2.58,1.15,6.09,1.85,9.93,1.85s7.35-.69,9.93-1.85c1.16-.52,2.16-1.15,2.92-1.87v3.6ZM38.58,32.23c0,.6-.27,1.22-.86,1.85-.6.63-1.5,1.24-2.67,1.76-2.34,1.05-5.63,1.72-9.31,1.72s-6.96-.67-9.31-1.72c-1.17-.52-2.08-1.13-2.67-1.76-.6-.63-.86-1.25-.86-1.85,0-1.02.8-2.15,2.6-3.15.29-.16.6-.31.93-.46.21.36.48.7.79,1.01.78.78,1.87,1.44,3.15,1.98,2.57,1.08,6.08,1.74,9.91,1.74,3.09,0,5.97-.42,8.31-1.16,0,.01,0,.03,0,.04ZM43.11,26.87c0,.53-.25,1.1-.85,1.69-.6.59-1.5,1.16-2.67,1.66-2.35.99-5.64,1.62-9.32,1.62s-6.98-.63-9.32-1.62c-1.18-.49-2.08-1.06-2.67-1.66-.59-.59-.85-1.16-.85-1.69v-3.6c.76.72,1.76,1.35,2.92,1.87,2.58,1.15,6.09,1.85,9.93,1.85s7.35-.69,9.93-1.85c1.16-.52,2.16-1.15,2.92-1.87v3.6Z"/>
  <path class="cls-2" d="M28.53,13.51v-.03c0-.86.61-1.45,1.49-1.45s1.39.54,1.39,1.31v.02c0,.63-.34,1.09-1.62,2.33l-2.92,2.88v1.27h6.53v-1.52h-3.99v-.14l1.67-1.56c1.65-1.52,2.18-2.38,2.18-3.41v-.02c0-1.56-1.3-2.63-3.17-2.63-1.98,0-3.34,1.19-3.34,2.93v.03h1.76Z"/>
  <polygon class="cls-2" points="34.52 19.84 36.45 19.84 37.74 17.56 37.85 17.56 39.14 19.84 41.17 19.84 38.98 16.35 41.16 12.94 39.16 12.94 37.94 15.23 37.83 15.23 36.6 12.94 34.5 12.94 36.69 16.42 34.52 19.84"/>
</svg>