<?xml version="1.0" encoding="UTF-8"?>
<svg xmlns="http://www.w3.org/2000/svg" width="36" height="36" fill="none">
  <circle cx="18" cy="18" r="18" fill="#fff"/>
  <path fill="#E6007A" d="M18 10.62c2.53 0 4.58-1.2 4.58-2.67S20.53 5.3 18 5.3c-2.53 0-4.58 1.2-4.58 2.66 0 1.47 2.05 2.67 4.58 2.67Zm0 20.05c2.53 0 4.58-1.19 4.58-2.66 0-1.47-2.05-2.66-4.58-2.66-2.53 0-4.58 1.19-4.58 2.66 0 1.47 2.05 2.66 4.58 2.66ZM11.62 14.3c1.26-2.19 1.26-4.56-.02-5.3-1.27-.73-3.33.45-4.6 2.64-1.26 2.18-1.25 4.56.03 5.3 1.27.73 3.33-.45 4.6-2.64ZM29 24.33c1.26-2.2 1.25-4.56-.03-5.3-1.27-.73-3.33.45-4.6 2.63-1.25 2.2-1.25 4.56.03 5.3 1.27.74 3.33-.44 4.6-2.63Zm-17.4 2.63c1.28-.74 1.28-3.1.02-5.3-1.26-2.18-3.32-3.36-4.6-2.63-1.27.74-1.28 3.1-.01 5.3 1.26 2.19 3.32 3.37 4.6 2.63Zm17.37-10.03c1.28-.73 1.29-3.1.02-5.3-1.26-2.18-3.32-3.36-4.6-2.63-1.27.74-1.27 3.11-.01 5.3s3.32 3.37 4.6 2.63Z"/>
  <circle cx="27" cy="27" r="9" fill="#7921EA"/>
  <path fill="#fff" d="M21.34 30h4.53v-1.03h-2.91l1.69-1.63c.68-.65 1.14-1.3 1.14-2.2 0-1.27-.93-2.04-2.1-2.04-1.18 0-2.1.74-2.31 1.87l1.03.23c.12-.6.61-1.07 1.23-1.07.65 0 1.1.48 1.1 1.06 0 .54-.37.98-.76 1.36l-2.64 2.54V30Zm7.9 0h.86v-5.28l1.89 1.9.61-.6-2.93-2.92-2.92 2.92.6.6 1.9-1.9V30Z"/>
</svg>
