<?xml version="1.0" standalone="no"?>
<!DOCTYPE svg PUBLIC "-//W3C//DTD SVG 20010904//EN"
 "http://www.w3.org/TR/2001/REC-SVG-20010904/DTD/svg10.dtd">
<svg version="1.0" xmlns="http://www.w3.org/2000/svg"
 width="700.000000pt" height="700.000000pt" viewBox="0 0 700.000000 700.000000"
 preserveAspectRatio="xMidYMid meet">
<metadata>
Created by potrace 1.11, written by Peter Selinger 2001-2013
</metadata>
<g transform="translate(0.000000,700.000000) scale(0.100000,-0.100000)"
fill="#000000" stroke="none">
<path d="M2555 6454 c-44 -25 -100 -57 -125 -71 -297 -167 -597 -338 -605
-345 -7 -6 -10 -877 -10 -2574 l0 -2564 410 0 411 0 -1 190 c0 105 1 190 3
190 1 0 35 -27 75 -61 202 -170 460 -292 707 -335 14 -2 34 -6 45 -9 137 -30
475 -22 670 16 28 5 59 11 70 13 108 21 285 81 400 136 494 237 817 670 934
1255 18 89 24 136 37 280 5 56 4 353 -1 390 -2 17 -7 59 -10 95 -4 35 -8 67
-10 70 -1 3 -6 28 -9 55 -27 206 -141 510 -261 696 -202 315 -492 543 -851
670 -87 31 -255 74 -319 83 -22 3 -56 8 -75 11 -74 12 -250 21 -353 19 -389
-10 -765 -153 -1005 -383 -24 -23 -44 -41 -45 -41 -1 0 -2 509 -2 1130 0 622
0 1130 0 1130 0 0 -36 -21 -80 -46z m1300 -2588 c219 -24 440 -130 595 -285
103 -104 118 -121 162 -197 114 -197 162 -381 162 -624 0 -127 -8 -199 -33
-306 -81 -337 -306 -604 -612 -729 -218 -88 -482 -104 -724 -44 -100 24 -121
32 -218 80 -86 43 -202 126 -258 186 -136 145 -244 351 -278 533 -7 36 -16 84
-21 107 -9 49 -6 320 5 378 72 402 288 688 625 828 80 33 201 64 283 73 34 4
63 7 64 8 5 5 190 -2 248 -8z"/>
</g>
</svg>
