<?xml version="1.0" standalone="no"?>
<!DOCTYPE svg PUBLIC "-//W3C//DTD SVG 20010904//EN"
 "http://www.w3.org/TR/2001/REC-SVG-20010904/DTD/svg10.dtd">
<svg version="1.0" xmlns="http://www.w3.org/2000/svg"
 width="700.000000pt" height="700.000000pt" viewBox="0 0 700.000000 700.000000"
 preserveAspectRatio="xMidYMid meet">
<metadata>
Created by potrace 1.11, written by Peter Selinger 2001-2013
</metadata>
<g transform="translate(0.000000,700.000000) scale(0.100000,-0.100000)"
fill="#000000" stroke="none">
<path d="M3600 5734 c-30 -8 -125 -36 -210 -63 -85 -27 -387 -122 -670 -211
-283 -89 -516 -163 -518 -165 -4 -3 364 -274 382 -281 7 -3 186 49 397 116
211 67 461 145 554 175 94 30 251 79 350 110 181 58 314 85 414 85 l54 0 -89
65 c-110 81 -246 148 -341 169 -89 20 -249 20 -323 0z"/>
<path d="M4195 5389 c-82 -11 -133 -26 -945 -283 l-615 -194 -3 -1310 -2
-1309 195 61 195 61 0 322 0 322 188 60 c473 151 1082 341 1125 352 150 37
310 -45 379 -197 22 -46 23 -61 23 -269 0 -212 -1 -223 -27 -300 -80 -237
-285 -455 -512 -544 -28 -11 -332 -108 -676 -216 -344 -108 -776 -244 -960
-302 -184 -58 -341 -109 -348 -112 -9 -5 -4 -13 15 -27 16 -12 103 -76 195
-143 l167 -122 905 285 c497 157 942 302 988 322 298 130 512 374 601 684 40
139 49 241 45 520 -3 236 -5 260 -27 320 -47 134 -160 277 -284 362 l-58 39
33 38 c82 96 155 257 191 421 18 80 21 131 21 330 1 230 0 237 -26 315 -116
342 -446 558 -783 514z m216 -425 c69 -31 150 -111 182 -181 20 -44 22 -64 22
-223 0 -207 -16 -289 -76 -411 -50 -99 -129 -185 -222 -243 -81 -49 -106 -59
-402 -152 -115 -36 -359 -112 -542 -170 -182 -57 -337 -104 -343 -104 -7 0 -9
172 -8 572 l3 571 40 13 c22 7 119 38 215 68 96 30 319 100 495 156 176 56
352 110 390 121 88 24 166 19 246 -17z"/>
<path d="M4163 4874 l-43 -16 0 -163 c0 -178 -10 -228 -59 -300 -54 -80 -103
-106 -354 -185 -128 -40 -272 -86 -322 -102 -49 -16 -127 -40 -172 -54 l-83
-25 0 -205 c0 -112 3 -204 7 -204 25 0 1039 327 1090 351 123 59 234 204 268
354 12 52 15 110 13 241 l-3 172 -30 43 c-17 24 -50 57 -74 74 -37 26 -52 30
-119 32 -50 2 -92 -3 -119 -13z"/>
<path d="M2130 3415 c0 -987 4 -1795 9 -1795 4 0 395 122 867 271 1145 360
1101 346 1164 371 192 75 365 259 438 466 26 74 27 85 27 277 0 186 -2 203
-22 240 -62 115 -170 154 -310 111 l-62 -19 -3 -231 c-3 -230 -3 -231 -31
-289 -35 -71 -108 -147 -173 -180 -27 -13 -121 -47 -209 -75 -88 -28 -284 -90
-435 -137 -151 -48 -407 -129 -567 -180 l-293 -92 -1 1386 0 1386 -186 135
c-102 74 -192 139 -199 143 -12 7 -14 -267 -14 -1788z"/>
</g>
</svg>
