<svg width="24" height="24" viewBox="0 0 24 24" fill="none" xmlns="http://www.w3.org/2000/svg">
<path fill-rule="evenodd" clip-rule="evenodd" d="M23 11C23 5.478 18.523 1 13 1C7.477 1 3 5.478 3 11C3 11.3347 3.01645 11.6657 3.04884 11.9909C3.54782 11.6776 4.09237 11.4303 4.67104 11.2614L4.667 11C4.667 6.405 8.405 2.667 13 2.667C17.595 2.667 21.333 6.405 21.333 11C21.333 15.595 17.595 19.333 13 19.333L12.7389 19.3297C12.5697 19.9075 12.3225 20.452 12.0079 20.9514C12.3342 20.9835 12.6652 21 13 21C18.523 21 23 16.522 23 11ZM12.9931 5.64827C12.9435 5.28233 12.6295 5 12.25 5C11.836 5 11.5 5.336 11.5 5.75V11.75L11.5069 11.8517C11.5565 12.2177 11.8705 12.5 12.25 12.5H16.25L16.3517 12.4931C16.7177 12.4435 17 12.1295 17 11.75C17 11.336 16.664 11 16.25 11H13V5.75L12.9931 5.64827ZM12 17.5C12 20.5376 9.53757 23 6.5 23C3.46243 23 1 20.5376 1 17.5C1 14.4624 3.46243 12 6.5 12C9.53757 12 12 14.4624 12 17.5ZM6.5 14C6.22386 14 6 14.2239 6 14.5V17H3.5C3.22386 17 3 17.2239 3 17.5C3 17.7761 3.22386 18 3.5 18H6V20.5C6 20.7761 6.22386 21 6.5 21C6.77614 21 7 20.7761 7 20.5V18H9.5C9.77614 18 10 17.7761 10 17.5C10 17.2239 9.77614 17 9.5 17H7V14.5C7 14.2239 6.77614 14 6.5 14Z" fill="#103E36"/>
</svg>
