<?xml version="1.0" encoding="UTF-8"?>
<svg width="56" height="56" viewBox="0 0 56 56" fill="none" xmlns="http://www.w3.org/2000/svg">
<rect width="56" height="56" rx="28" fill="#F2FAF6"/>
<path fill-rule="evenodd" clip-rule="evenodd" d="M43.0313 19.4584C42.8434 16.3451 37.3196 14 30.1834 14C23.0472 14 17.5439 16.3451 17.339 19.4325C17.3358 19.4977 17.3358 19.563 17.339 19.6282V25.7846C14.6232 26.8039 13.0825 28.2442 12.9698 29.8469C12.9663 29.9183 12.9663 29.9898 12.9698 30.0611V36.3763C12.9664 36.4402 12.9664 36.5044 12.9698 36.5683C13.0928 38.2745 14.7598 39.7628 17.6703 40.7636H17.7011C20.3321 41.6166 23.0677 42.0325 25.8143 41.9971C32.9266 41.9971 38.4538 39.6594 38.6587 36.5572V36.5092V36.3763V30.2162C41.3779 29.1933 42.9186 27.753 43.0313 26.1539V26.1243C43.0329 26.1071 43.0329 26.0898 43.0313 26.0726V19.6245V19.5064V19.4584ZM18.3705 19.5242C18.5003 17.3933 23.2794 15.0925 30.1833 15.0925C37.0872 15.0925 41.8663 17.3749 41.9995 19.5242C42.0012 19.5451 42.0012 19.5661 41.9995 19.587C41.9995 20.5103 41.1421 21.452 39.5844 22.2423C37.2922 23.4167 33.8658 24.0889 30.1799 24.0889C26.4939 24.0889 23.0676 23.413 20.7754 22.2423C19.2211 21.452 18.3637 20.5103 18.3637 19.587C18.3602 19.5981 18.3602 19.5759 18.3637 19.5242H18.3705ZM17.5129 26.951C17.5117 26.9375 17.5117 26.9239 17.5129 26.9104H17.5061C15.3608 27.7376 14.0832 28.8603 13.9944 29.9609V30.0532C14.0015 30.1344 14.0152 30.2147 14.0354 30.2932C14.1379 30.9543 14.6776 31.6006 15.5624 32.1656C15.8391 32.3516 16.1254 32.5206 16.4198 32.6716C16.8156 32.8683 17.2204 33.0433 17.6325 33.196C19.8461 34.038 22.7566 34.5144 25.8311 34.5144H26.2376H26.3606C26.5637 34.511 26.7541 34.5026 26.9342 34.4948C27.1388 34.4858 27.3301 34.4775 27.5118 34.4775L28.1267 34.4369C28.4513 34.4073 28.7724 34.3741 29.0935 34.3372H29.2745L29.4897 34.3076H29.5615C29.7596 34.2818 29.968 34.2485 30.1764 34.2153L30.3779 34.182H30.4394C30.5583 34.1612 30.6711 34.1379 30.7846 34.1145L30.7846 34.1145L30.7847 34.1145C30.9126 34.0881 31.0414 34.0615 31.1807 34.038C31.4437 33.9937 31.6931 33.9383 31.9322 33.8792H31.9596L32.2499 33.8127L32.3661 33.7832L32.7077 33.6909L32.8512 33.6466L33.1928 33.5395L33.2474 33.4545C33.5613 33.3553 33.8443 33.2477 34.1366 33.1367L34.1366 33.1367L34.1367 33.1366L34.2723 33.0852C34.326 33.0632 34.3758 33.04 34.4253 33.017L34.4254 33.0169L34.4254 33.0169C34.4671 32.9975 34.5087 32.9782 34.5524 32.9596C34.5712 32.9514 34.5903 32.943 34.6096 32.9346C34.6407 32.9211 34.6724 32.9074 34.7043 32.8936L34.7046 32.8935C34.883 32.8164 35.0675 32.7366 35.1946 32.6679L35.2651 32.6299L35.2651 32.6298C35.4094 32.5521 35.5624 32.4696 35.7002 32.3872L35.8437 32.2986C35.9496 32.2358 36.0486 32.1693 36.1443 32.1028L36.3048 31.9884L36.5371 31.8037L36.6806 31.6818C36.7597 31.6128 36.835 31.5388 36.9061 31.4603L36.9915 31.379C37.0759 31.2849 37.1546 31.1849 37.2272 31.0799C37.2523 31.0434 37.2752 31.0052 37.2955 30.9654C37.339 30.9002 37.3789 30.8324 37.4151 30.7623C37.4207 30.7487 37.4283 30.7352 37.4359 30.7217L37.4359 30.7216C37.4511 30.6946 37.4663 30.6675 37.4663 30.6404C37.478 30.6115 37.4883 30.5819 37.497 30.5518H37.4492L37.0769 30.6515C36.9095 30.6995 36.7421 30.7475 36.5679 30.7881L36.1614 30.8841C36.097 30.8978 36.0336 30.9119 35.9705 30.926C35.8626 30.9501 35.7554 30.974 35.6455 30.9949L35.2185 31.0762L35.0823 31.0994L35.0817 31.0995C34.9338 31.1246 34.792 31.1487 34.6822 31.1685C34.5977 31.1837 34.5274 31.1938 34.4454 31.2056C34.3883 31.2138 34.3255 31.2228 34.2484 31.235C34.1179 31.2555 33.9874 31.2725 33.8558 31.2896L33.8557 31.2896L33.8556 31.2896C33.7978 31.2971 33.7397 31.3046 33.6813 31.3125L33.2509 31.3605L32.6394 31.4196L32.2294 31.4529L32.1529 31.4593L32.1529 31.4593C31.9543 31.4761 31.7489 31.4935 31.5462 31.4935H31.2046H30.1525H29.0252H28.9261C28.5674 31.4787 28.2258 31.4566 27.8842 31.4344H27.7373C27.4059 31.4086 27.078 31.3753 26.7569 31.3384H26.5929C26.2752 31.2978 25.9643 31.2571 25.6569 31.2091L25.5032 31.1833C25.1957 31.1316 24.8917 31.0762 24.5979 31.0171L24.4715 30.9912C24.1709 30.9285 23.8737 30.862 23.5867 30.7881H23.5116C23.2178 30.7106 22.9309 30.6293 22.6542 30.5444H22.6302C22.3535 30.4594 22.0871 30.3671 21.824 30.2711L21.7386 30.2415C21.4927 30.1492 21.2536 30.0532 21.0247 29.9535L20.9222 29.9055C20.6967 29.8058 20.4849 29.7024 20.28 29.5953L20.1775 29.5436C19.9759 29.4328 19.7846 29.322 19.6002 29.2075L19.5114 29.1521C19.4477 29.1062 19.3835 29.0613 19.3197 29.0166L19.3197 29.0166L19.3196 29.0165L19.3195 29.0165L19.3195 29.0164C19.2089 28.939 19.0995 28.8624 18.9955 28.7828L18.934 28.7348C18.7701 28.6055 18.6163 28.4726 18.4763 28.3396L18.449 28.3138C18.3112 28.1784 18.1801 28.0354 18.0561 27.8854C17.946 27.7449 17.8445 27.5968 17.7521 27.4422L17.7213 27.3942C17.6424 27.2519 17.5728 27.1038 17.5129 26.951ZM25.8246 40.8901C23.1869 40.9258 20.5594 40.5273 18.0325 39.7084H18.0018C15.5832 38.8774 14.0904 37.6698 14.0152 36.4806C14.0169 36.4499 14.0169 36.419 14.0152 36.3883V32.337L14.1211 32.433L14.2544 32.5586C14.3637 32.6583 14.4798 32.7543 14.596 32.8503L14.7565 32.9722C14.8863 33.0682 15.0264 33.1605 15.1733 33.2529L15.3338 33.36C15.5217 33.4745 15.7199 33.5853 15.9317 33.696L15.9829 33.7256C16.1505 33.8099 16.3328 33.889 16.5132 33.9673L16.5132 33.9673L16.6115 34.01C19.0027 35.0699 22.3129 35.6755 25.8349 35.6755H26.3097H26.5181H27.2013H27.4473C27.6893 35.6755 27.923 35.6547 28.151 35.6345L28.151 35.6345L28.2296 35.6275C28.5985 35.5943 29.005 35.5537 29.3842 35.5056L29.6165 35.4798H29.6814L30.3031 35.3838L30.5525 35.3432H30.5696C30.836 35.2988 31.1025 35.2508 31.3724 35.1917C31.478 35.1686 31.5816 35.1477 31.6817 35.1276L31.6819 35.1275L31.6819 35.1275C31.8373 35.0962 31.9841 35.0666 32.1171 35.0329L32.1956 35.0145H32.24C32.4655 34.9665 32.6807 34.9074 32.8823 34.8483L32.9813 34.8224C33.2034 34.7633 33.4152 34.6969 33.6133 34.6304C33.9891 34.5085 34.3512 34.3756 34.703 34.2352C34.7959 34.1973 34.8825 34.1567 34.9696 34.1159C35.0268 34.0891 35.0842 34.0621 35.1437 34.0358L35.2412 33.993C35.3817 33.9315 35.5548 33.8557 35.6971 33.7847L35.7484 33.7551C35.9579 33.6493 36.156 33.5385 36.3428 33.4228L36.5067 33.3193L36.5694 33.2775L36.5694 33.2775C36.691 33.1963 36.8097 33.117 36.9235 33.035L37.0806 32.9131C37.2036 32.8171 37.3198 32.7211 37.4222 32.6214L37.5589 32.4958C37.5743 32.4792 37.5922 32.4635 37.6101 32.4478C37.6281 32.4321 37.646 32.4164 37.6614 32.3998V36.3735V36.4141V36.4695C37.5042 38.6041 32.7285 40.8901 25.8246 40.8901ZM30.1769 30.4595C32.8182 30.4939 35.4491 30.0942 37.9793 29.274C40.4149 28.4357 41.9146 27.2244 42.0137 26.0352V25.9466V21.9064C42.0011 21.9184 41.988 21.9299 41.975 21.9413C41.9561 21.9577 41.9376 21.9738 41.9214 21.9913L41.754 22.1464C41.655 22.2351 41.5559 22.32 41.4466 22.4049L41.2553 22.549C41.1323 22.6376 41.0059 22.7262 40.8727 22.8112C40.8498 22.8255 40.8277 22.8399 40.8059 22.854C40.7659 22.88 40.7268 22.9055 40.6848 22.9293C40.4833 23.066 40.268 23.1842 40.0426 23.2987C37.6172 24.5432 34.0269 25.256 30.194 25.256C26.3612 25.256 22.7709 24.5432 20.3454 23.2987C20.1166 23.1731 19.9048 23.0512 19.7032 22.9293C19.6524 22.9004 19.6057 22.8692 19.5583 22.8375C19.5452 22.8288 19.5321 22.82 19.5187 22.8112C19.3855 22.7262 19.2557 22.6376 19.1327 22.549L18.9448 22.4049C18.8714 22.3479 18.7826 22.2708 18.7146 22.2118C18.6813 22.183 18.653 22.1585 18.634 22.1427C18.5798 22.0979 18.5285 22.0499 18.4802 22.0046L18.47 21.995L18.3778 21.9064V26.0094C18.3796 26.0327 18.3796 26.0562 18.3778 26.0795C18.3792 26.0906 18.3792 26.1017 18.3778 26.1128C18.3925 26.2395 18.4223 26.3636 18.4666 26.4821C19.2215 28.4911 23.8333 30.4595 30.1769 30.4595Z" fill="#27D17F"/>
<path d="M43.0313 19.4584H43.4063V19.447L43.4056 19.4358L43.0313 19.4584ZM17.339 19.4325L16.9647 19.4077L16.9644 19.4141L17.339 19.4325ZM17.339 19.6282H17.714V19.619L17.7135 19.6098L17.339 19.6282ZM17.339 25.7846L17.4707 26.1357L17.714 26.0444V25.7846H17.339ZM12.9698 29.8469L12.5956 29.8206L12.5952 29.8286L12.9698 29.8469ZM12.9698 30.0611H13.3448V30.052L13.3443 30.0428L12.9698 30.0611ZM12.9698 36.3763L13.3443 36.3962L13.3448 36.3862V36.3763H12.9698ZM12.9698 36.5683L12.5952 36.5882L12.5958 36.5953L12.9698 36.5683ZM17.6703 40.7636L17.5484 41.1183L17.6076 41.1386H17.6703V40.7636ZM17.7011 40.7636L17.8167 40.4069L17.7603 40.3886H17.7011V40.7636ZM25.8143 41.9971V41.6221L25.8094 41.6222L25.8143 41.9971ZM38.6587 36.5572L39.0329 36.582L39.0337 36.5696V36.5572H38.6587ZM38.6587 30.2162L38.5267 29.8653L38.2837 29.9567V30.2162H38.6587ZM43.0313 26.1539L43.4054 26.1802L43.4063 26.1671V26.1539H43.0313ZM43.0313 26.1243L42.6579 26.0896L42.6563 26.1069V26.1243H43.0313ZM43.0313 26.0726H42.6563V26.09L42.6579 26.1073L43.0313 26.0726ZM18.3705 19.5242V19.8992H18.7233L18.7448 19.547L18.3705 19.5242ZM41.9995 19.5242L41.6252 19.5474L41.6257 19.5537L41.9995 19.5242ZM41.9995 19.587L41.6257 19.5575L41.6245 19.5722V19.587H41.9995ZM39.5844 22.2423L39.4147 21.9079L39.4134 21.9086L39.5844 22.2423ZM20.7754 22.2423L20.946 21.9084L20.9454 21.908L20.7754 22.2423ZM18.3637 19.587H18.7387L18.0053 19.4765L18.3637 19.587ZM18.3637 19.5242V19.1492H18.0126L17.9895 19.4995L18.3637 19.5242ZM17.5129 26.9104L17.8863 26.9458L17.9251 26.5354H17.5129V26.9104ZM17.5129 26.951L17.1396 26.9864L17.1446 27.0388L17.1638 27.0879L17.5129 26.951ZM17.5061 26.9104V26.5354H17.4363L17.3712 26.5605L17.5061 26.9104ZM13.9944 29.9609L13.6206 29.9307L13.6194 29.9458V29.9609H13.9944ZM13.9944 30.0532H13.6194V30.0696L13.6208 30.086L13.9944 30.0532ZM14.0354 30.2932L14.4059 30.2358L14.4031 30.2177L14.3986 30.2001L14.0354 30.2932ZM15.5624 32.1656L15.7716 31.8543L15.7642 31.8496L15.5624 32.1656ZM16.4198 32.6716L16.2486 33.0053L16.2529 33.0074L16.4198 32.6716ZM17.6325 33.196L17.7658 32.8455L17.7628 32.8444L17.6325 33.196ZM26.3606 34.5144V34.8895L26.367 34.8894L26.3606 34.5144ZM26.9342 34.4948L26.9178 34.1201L26.9342 34.4948ZM27.5118 34.4775V34.8525H27.5242L27.5366 34.8517L27.5118 34.4775ZM28.1267 34.4369L28.1515 34.8112L28.1607 34.8103L28.1267 34.4369ZM29.0935 34.3372V33.9622H29.072L29.0506 33.9646L29.0935 34.3372ZM29.2745 34.3372V34.7122H29.3001L29.3255 34.7087L29.2745 34.3372ZM29.4897 34.3076V33.9326H29.4641L29.4387 33.9361L29.4897 34.3076ZM29.5615 34.3076V34.6826H29.5858L29.61 34.6795L29.5615 34.3076ZM30.1764 34.2153L30.2354 34.5856L30.2374 34.5853L30.1764 34.2153ZM30.3779 34.182V33.807H30.3472L30.3169 33.812L30.3779 34.182ZM30.4394 34.182V34.557H30.472L30.5042 34.5514L30.4394 34.182ZM30.7846 34.1145L30.711 33.7468L30.7088 33.7472L30.7846 34.1145ZM30.7846 34.1145L30.7175 33.7455L30.7111 33.7468L30.7846 34.1145ZM30.7847 34.1145L30.8518 34.4835L30.8605 34.4817L30.7847 34.1145ZM31.1807 34.038L31.1184 33.6682L31.1184 33.6682L31.1807 34.038ZM31.9322 33.8792V33.5042H31.8866L31.8423 33.5152L31.9322 33.8792ZM31.9596 33.8792V34.2542H32.002L32.0433 34.2448L31.9596 33.8792ZM32.2499 33.8127L32.3337 34.1784L32.3424 34.1762L32.2499 33.8127ZM32.3661 33.7832L32.4585 34.1467L32.4639 34.1452L32.3661 33.7832ZM32.7077 33.6909L32.8056 34.0531L32.8184 34.0492L32.7077 33.6909ZM32.8512 33.6466L32.9618 34.0049L32.9634 34.0044L32.8512 33.6466ZM33.1928 33.5395L33.305 33.8973L33.4346 33.8566L33.5081 33.7424L33.1928 33.5395ZM33.2474 33.4545L33.1344 33.097L33.0053 33.1378L32.9321 33.2516L33.2474 33.4545ZM34.1366 33.1367L34.0084 32.7842L34.0034 32.7861L34.1366 33.1367ZM34.1366 33.1367L34.2648 33.4891L34.2683 33.4878L34.1366 33.1367ZM34.1367 33.1366L34.2684 33.4878L34.2698 33.4872L34.1367 33.1366ZM34.2723 33.0852L34.4053 33.4359L34.4145 33.4322L34.2723 33.0852ZM34.4253 33.017L34.2811 32.6708L34.2741 32.6738L34.2672 32.677L34.4253 33.017ZM34.4254 33.0169L34.5696 33.3631L34.5815 33.3581L34.5931 33.3524L34.4254 33.0169ZM34.4254 33.0169L34.2672 32.6768L34.2577 32.6815L34.4254 33.0169ZM34.5524 32.9596L34.699 33.3048L34.7032 33.303L34.5524 32.9596ZM34.6096 32.9346L34.4601 32.5907L34.4601 32.5907L34.6096 32.9346ZM34.7043 32.8936L34.8531 33.2379L34.856 33.2366L34.7043 32.8936ZM34.7046 32.8935L34.5558 32.5493L34.5528 32.5506L34.7046 32.8935ZM35.1946 32.6679L35.0166 32.3378L35.0163 32.338L35.1946 32.6679ZM35.2651 32.6299L35.4432 32.96L35.4511 32.9555L35.2651 32.6299ZM35.2651 32.6298L35.0872 32.2996L35.0791 32.3042L35.2651 32.6298ZM35.7002 32.3872L35.8927 32.7091L35.8973 32.7062L35.7002 32.3872ZM35.8437 32.2986L35.6524 31.976L35.6466 31.9796L35.8437 32.2986ZM36.1443 32.1028L36.3583 32.4108L36.362 32.4082L36.1443 32.1028ZM36.3048 31.9884L36.5226 32.2937L36.5305 32.288L36.5382 32.2819L36.3048 31.9884ZM36.5371 31.8037L36.7706 32.0974L36.7799 32.0895L36.5371 31.8037ZM36.6806 31.6818L36.9234 31.9677L36.9271 31.9644L36.6806 31.6818ZM36.9061 31.4603L36.6476 31.1886L36.6374 31.1983L36.628 31.2087L36.9061 31.4603ZM36.9915 31.379L37.2499 31.6507L37.2607 31.6405L37.2706 31.6294L36.9915 31.379ZM37.2272 31.0799L36.9186 30.8668L36.9186 30.8668L37.2272 31.0799ZM37.2955 30.9654L36.9836 30.7572L36.9715 30.7754L36.9616 30.7948L37.2955 30.9654ZM37.4151 30.7623L37.7484 30.9341L37.7551 30.9211L37.7608 30.9076L37.4151 30.7623ZM37.4359 30.7217L37.1103 30.5356L37.1088 30.5383L37.4359 30.7217ZM37.4359 30.7216L37.7615 30.9077L37.763 30.905L37.4359 30.7216ZM37.4663 30.6404L37.1188 30.4993L37.0913 30.5672V30.6404H37.4663ZM37.497 30.5518L37.8572 30.6562L37.9963 30.1768H37.497V30.5518ZM37.4492 30.5518V30.1768H37.3999L37.3522 30.1895L37.4492 30.5518ZM37.0769 30.6515L36.9799 30.2892L36.9735 30.291L37.0769 30.6515ZM36.5679 30.7881L36.4827 30.4229L36.4817 30.4232L36.5679 30.7881ZM36.1614 30.8841L36.2391 31.2511L36.2476 31.2491L36.1614 30.8841ZM35.9705 30.926L36.0521 31.292L36.0521 31.292L35.9705 30.926ZM35.6455 30.9949L35.7156 31.3633L35.7158 31.3633L35.6455 30.9949ZM35.2185 31.0762L35.2815 31.4459L35.2886 31.4446L35.2185 31.0762ZM35.0823 31.0994L35.144 31.4693L35.1453 31.469L35.0823 31.0994ZM35.0817 31.0995L35.02 30.7296L35.0188 30.7298L35.0817 31.0995ZM34.6822 31.1685L34.7487 31.5376H34.7487L34.6822 31.1685ZM34.4454 31.2056L34.3921 30.8344H34.3921L34.4454 31.2056ZM34.2484 31.235L34.3066 31.6054L34.2484 31.235ZM33.8558 31.2896L33.8075 30.9176L33.8028 30.9183L33.8558 31.2896ZM33.8556 31.2896L33.904 31.6615L33.9087 31.6608L33.8556 31.2896ZM33.6813 31.3125L33.7229 31.6853L33.7315 31.6842L33.6813 31.3125ZM33.2509 31.3605L33.2869 31.7338L33.2924 31.7332L33.2509 31.3605ZM32.6394 31.4196L32.6697 31.7934L32.6754 31.7929L32.6394 31.4196ZM32.2294 31.4529L32.1991 31.0791L32.198 31.0792L32.2294 31.4529ZM32.1529 31.4593L32.1215 31.0856L32.1106 31.0865L32.0999 31.0881L32.1529 31.4593ZM32.1529 31.4593L32.1845 31.833L32.1952 31.8321L32.2059 31.8305L32.1529 31.4593ZM28.9261 31.4935L28.9107 31.8682L28.9184 31.8685H28.9261V31.4935ZM27.8842 31.4344L27.9085 31.0602L27.8963 31.0594H27.8842V31.4344ZM27.7373 31.4344L27.7081 31.8083L27.7227 31.8094H27.7373V31.4344ZM26.7569 31.3384L26.7997 30.9658L26.7784 30.9634H26.7569V31.3384ZM26.5929 31.3384L26.5453 31.7104L26.569 31.7134H26.5929V31.3384ZM25.6569 31.2091L25.5947 31.579L25.599 31.5796L25.6569 31.2091ZM25.5032 31.1833L25.441 31.5531L25.441 31.5531L25.5032 31.1833ZM24.5979 31.0171L24.5228 31.3845L24.524 31.3847L24.5979 31.0171ZM24.4715 30.9912L24.3948 31.3583L24.3964 31.3586L24.4715 30.9912ZM23.5867 30.7881L23.6802 30.425L23.6342 30.4131H23.5867V30.7881ZM23.5116 30.7881L23.4159 31.1507L23.4629 31.1631H23.5116V30.7881ZM22.6542 30.5444L22.7642 30.1859L22.7104 30.1694H22.6542V30.5444ZM22.6302 30.5444L22.5202 30.9029L22.574 30.9194H22.6302V30.5444ZM21.824 30.2711L21.9527 29.9188L21.9467 29.9167L21.824 30.2711ZM21.7386 30.2415L21.6068 30.5927L21.616 30.5959L21.7386 30.2415ZM21.0247 29.9535L20.8655 30.2932L20.8749 30.2973L21.0247 29.9535ZM20.9222 29.9055L21.0813 29.5658L21.0739 29.5625L20.9222 29.9055ZM20.28 29.5953L20.4537 29.2629L20.4489 29.2605L20.28 29.5953ZM20.1775 29.5436L19.9967 29.8724L20.0086 29.8784L20.1775 29.5436ZM19.6002 29.2075L19.4017 29.5257L19.4024 29.5261L19.6002 29.2075ZM19.5114 29.1521L19.2921 29.4563L19.3023 29.4636L19.3129 29.4703L19.5114 29.1521ZM19.3197 29.0166L19.5348 28.7094L19.5322 28.7076L19.3197 29.0166ZM19.3195 29.0165L19.1025 29.3223L19.1071 29.3255L19.3195 29.0165ZM19.3195 29.0164L19.5365 28.7106L19.5346 28.7093L19.3195 29.0164ZM18.9955 28.7828L18.7647 29.0784L18.7675 29.0805L18.9955 28.7828ZM18.934 28.7348L18.7019 29.0293L18.7033 29.0304L18.934 28.7348ZM18.4763 28.3396L18.7345 28.0676L18.734 28.0672L18.4763 28.3396ZM18.449 28.3138L18.1861 28.5813L18.1913 28.5862L18.449 28.3138ZM18.0561 27.8854L17.7608 28.1167L17.767 28.1242L18.0561 27.8854ZM17.7521 27.4422L18.0741 27.2497L18.0679 27.24L17.7521 27.4422ZM17.7213 27.3942L17.3933 27.576L17.3991 27.5864L17.4055 27.5964L17.7213 27.3942ZM18.0325 39.7084L18.1482 39.3516L18.0918 39.3334H18.0325V39.7084ZM25.8246 40.8901V40.5151L25.8196 40.5152L25.8246 40.8901ZM18.0018 39.7084L17.88 40.063L17.9392 40.0834H18.0018V39.7084ZM14.0152 36.4806L13.6408 36.4601L13.6396 36.4822L13.641 36.5043L14.0152 36.4806ZM14.0152 36.3883H13.6402V36.3986L13.6408 36.4088L14.0152 36.3883ZM14.0152 32.337L14.2671 32.0592L13.6402 31.4908V32.337H14.0152ZM14.1211 32.433L14.3784 32.1601L14.373 32.1552L14.1211 32.433ZM14.2544 32.5586L13.9971 32.8315L14.0016 32.8356L14.2544 32.5586ZM14.596 32.8503L14.357 33.1394L14.363 33.1443L14.3692 33.149L14.596 32.8503ZM14.7565 32.9722L14.5298 33.2709L14.5335 33.2737L14.7565 32.9722ZM15.1733 33.2529L15.3815 32.9408L15.3728 32.9354L15.1733 33.2529ZM15.3338 33.36L15.1257 33.6719L15.1321 33.6762L15.1387 33.6802L15.3338 33.36ZM15.9317 33.696L16.119 33.3712L16.1123 33.3673L16.1055 33.3638L15.9317 33.696ZM15.9829 33.7256L15.7956 34.0505L15.8048 34.0558L15.8143 34.0606L15.9829 33.7256ZM16.5132 33.9673L16.6809 33.6319L16.6718 33.6273L16.6625 33.6232L16.5132 33.9673ZM16.5132 33.9673L16.3455 34.3027L16.3546 34.3072L16.3638 34.3112L16.5132 33.9673ZM16.6115 34.01L16.7634 33.6671L16.7609 33.666L16.6115 34.01ZM28.151 35.6345L28.1842 36.008L28.1961 36.0069L28.208 36.0051L28.151 35.6345ZM28.151 35.6345L28.1179 35.2609L28.1059 35.262L28.094 35.2638L28.151 35.6345ZM28.2296 35.6275L28.2626 36.0011L28.2632 36.001L28.2296 35.6275ZM29.3842 35.5056L29.3427 35.1329L29.3371 35.1336L29.3842 35.5056ZM29.6165 35.4798V35.1048H29.5957L29.575 35.1071L29.6165 35.4798ZM29.6814 35.4798V35.8548H29.7102L29.7386 35.8504L29.6814 35.4798ZM30.3031 35.3838L30.3604 35.7544L30.3634 35.7539L30.3031 35.3838ZM30.5525 35.3432V34.9682H30.5222L30.4922 34.973L30.5525 35.3432ZM30.5696 35.3432V35.7182H30.6006L30.6311 35.7131L30.5696 35.3432ZM31.3724 35.1917L31.4526 35.5581H31.4526L31.3724 35.1917ZM31.6817 35.1276L31.7557 35.4952L31.7568 35.495L31.6817 35.1276ZM31.6819 35.1275L31.7571 35.4949L31.7791 35.4904L31.8005 35.4833L31.6819 35.1275ZM31.6819 35.1275L31.6078 34.7599L31.5852 34.7645L31.5633 34.7718L31.6819 35.1275ZM32.1171 35.0329L32.0313 34.6678L32.025 34.6694L32.1171 35.0329ZM32.1956 35.0145V34.6395H32.1522L32.1098 34.6494L32.1956 35.0145ZM32.24 35.0145V35.3895H32.2795L32.3181 35.3812L32.24 35.0145ZM32.8823 34.8483L32.7875 34.4853L32.7768 34.4884L32.8823 34.8483ZM32.9813 34.8224L33.076 35.1853L33.0778 35.1848L32.9813 34.8224ZM33.6133 34.6304L33.4976 34.2737L33.494 34.2749L33.6133 34.6304ZM34.703 34.2352L34.842 34.5836L34.8448 34.5824L34.703 34.2352ZM34.9696 34.1159L35.1288 34.4554L34.9696 34.1159ZM35.1437 34.0358L34.9929 33.6925L34.992 33.6928L35.1437 34.0358ZM35.2412 33.993L35.0908 33.6495L35.0904 33.6496L35.2412 33.993ZM35.6971 33.7847L35.8645 34.1202L35.8746 34.1152L35.8844 34.1095L35.6971 33.7847ZM35.7484 33.7551L35.5792 33.4204L35.57 33.4251L35.5611 33.4303L35.7484 33.7551ZM36.3428 33.4228L36.5403 33.7415L36.5428 33.74L36.3428 33.4228ZM36.5067 33.3193L36.7068 33.6367L36.7151 33.6311L36.5067 33.3193ZM36.5694 33.2775L36.3613 32.9655L36.361 32.9657L36.5694 33.2775ZM36.5694 33.2775L36.7774 33.5895L36.7777 33.5893L36.5694 33.2775ZM36.9235 33.035L37.1429 33.3394L37.1533 33.3313L36.9235 33.035ZM37.0806 32.9131L37.3105 33.2094L37.3114 33.2087L37.0806 32.9131ZM37.4222 32.6214L37.1684 32.3451L37.1607 32.3526L37.4222 32.6214ZM37.5589 32.4958L37.8126 32.7719L37.8238 32.7616L37.8342 32.7504L37.5589 32.4958ZM37.6614 32.3998H38.0364V31.4421L37.3861 32.1451L37.6614 32.3998ZM37.6614 36.4695L38.0354 36.4971L38.0364 36.4833V36.4695H37.6614ZM37.9793 29.274L38.0949 29.6308L38.1013 29.6286L37.9793 29.274ZM30.1769 30.4595L30.1818 30.0845H30.1769V30.4595ZM42.0137 26.0352L42.3874 26.0663L42.3887 26.0508V26.0352H42.0137ZM42.0137 21.9064H42.3887V21.026L41.7538 21.636L42.0137 21.9064ZM41.975 21.9413L42.2214 22.2239L42.2215 22.2238L41.975 21.9413ZM41.9214 21.9913L42.1763 22.2664L42.1869 22.2566L42.1967 22.2459L41.9214 21.9913ZM41.754 22.1464L42.0041 22.4259L42.0089 22.4215L41.754 22.1464ZM41.4466 22.4049L41.6722 22.7046L41.6767 22.701L41.4466 22.4049ZM41.2553 22.549L41.4746 22.8532L41.4809 22.8485L41.2553 22.549ZM40.8727 22.8112L41.0717 23.1291L41.0743 23.1274L40.8727 22.8112ZM40.8059 22.854L41.0103 23.1685L41.0103 23.1684L40.8059 22.854ZM40.6848 22.9293L40.4994 22.6034L40.4866 22.6107L40.4744 22.619L40.6848 22.9293ZM40.0426 23.2987L39.8728 22.9643L39.8714 22.965L40.0426 23.2987ZM20.3454 23.2987L20.165 23.6276L20.1742 23.6323L20.3454 23.2987ZM19.7032 22.9293L19.8973 22.6083L19.8887 22.6034L19.7032 22.9293ZM19.5583 22.8375L19.7668 22.5258L19.7668 22.5258L19.5583 22.8375ZM19.5187 22.8112L19.7255 22.4982L19.7203 22.495L19.5187 22.8112ZM19.1327 22.549L18.9045 22.8467L18.9135 22.8532L19.1327 22.549ZM18.9448 22.4049L18.7147 22.7011L18.7167 22.7025L18.9448 22.4049ZM18.7146 22.2118L18.4689 22.4951L18.4689 22.4951L18.7146 22.2118ZM18.634 22.1427L18.8729 21.8537L18.8729 21.8537L18.634 22.1427ZM18.4802 22.0046L18.7367 21.731L18.7367 21.731L18.4802 22.0046ZM18.47 21.995L18.2102 22.2654L18.2135 22.2686L18.47 21.995ZM18.3778 21.9064L18.6376 21.636L18.0028 21.0259V21.9064H18.3778ZM18.3778 26.0094H18.0028V26.0237L18.0039 26.038L18.3778 26.0094ZM18.3778 26.0795L18.0039 26.0509L18.0009 26.0897L18.006 26.1284L18.3778 26.0795ZM18.3778 26.1128L18.006 26.0639L17.9999 26.1099L18.0053 26.156L18.3778 26.1128ZM18.4666 26.4821L18.1153 26.6133L18.1156 26.614L18.4666 26.4821ZM30.1834 14.375C33.7155 14.375 36.8279 14.9561 39.0664 15.9069C41.3356 16.8707 42.5768 18.1517 42.657 19.4809L43.4056 19.4358C43.298 17.6518 41.6833 16.2036 39.3596 15.2166C37.0052 14.2165 33.7875 13.625 30.1834 13.625V14.375ZM17.7131 19.4573C17.8006 18.1399 19.0417 16.8645 21.3083 15.9037C23.544 14.956 26.6514 14.375 30.1834 14.375V13.625C26.5793 13.625 23.3669 14.2165 21.0156 15.2132C18.6953 16.1968 17.0823 17.6377 16.9648 19.4077L17.7131 19.4573ZM17.7135 19.6098C17.7109 19.5569 17.7109 19.5038 17.7135 19.4509L16.9644 19.4141C16.9606 19.4916 16.9606 19.5692 16.9644 19.6466L17.7135 19.6098ZM17.714 25.7846V19.6282H16.964V25.7846H17.714ZM13.3439 29.8733C13.4399 28.508 14.7786 27.1461 17.4707 26.1357L17.2072 25.4335C14.4677 26.4617 12.7251 27.9803 12.5957 29.8206L13.3439 29.8733ZM13.3443 30.0428C13.3414 29.9837 13.3414 29.9244 13.3443 29.8653L12.5952 29.8286C12.5911 29.9122 12.5911 29.9959 12.5952 30.0795L13.3443 30.0428ZM13.3448 36.3763V30.0611H12.5948V36.3763H13.3448ZM13.3443 36.5484C13.3416 36.4977 13.3416 36.4469 13.3443 36.3962L12.5953 36.3564C12.5912 36.4336 12.5912 36.511 12.5953 36.5882L13.3443 36.5484ZM17.7923 40.409C14.904 39.4159 13.4491 38.0026 13.3438 36.5414L12.5958 36.5953C12.7364 38.5464 14.6156 40.1098 17.5484 41.1183L17.7923 40.409ZM17.7011 40.3886H17.6703V41.1386H17.7011V40.3886ZM25.8094 41.6222C23.104 41.657 20.4091 41.2474 17.8167 40.4069L17.5854 41.1204C20.2551 41.9858 23.0313 42.408 25.8191 42.3721L25.8094 41.6222ZM38.2846 36.5325C38.197 37.8571 36.9503 39.1343 34.6806 40.0952C32.4418 41.0429 29.3344 41.6221 25.8143 41.6221V42.3721C29.4065 42.3721 32.6187 41.7825 34.9729 40.7858C37.2962 39.8023 38.9155 38.3596 39.0329 36.582L38.2846 36.5325ZM38.2837 36.5092V36.5572H39.0337V36.5092H38.2837ZM38.2837 36.3763V36.5092H39.0337V36.3763H38.2837ZM38.2837 30.2162V36.3763H39.0337V30.2162H38.2837ZM42.6573 26.1275C42.5613 27.489 41.2227 28.851 38.5267 29.8653L38.7908 30.5672C41.5332 29.5355 43.2759 28.017 43.4054 26.1802L42.6573 26.1275ZM42.6563 26.1243V26.1539H43.4063V26.1243H42.6563ZM42.6579 26.1073C42.6574 26.1014 42.6574 26.0955 42.6579 26.0896L43.4047 26.159C43.4085 26.1188 43.4085 26.0782 43.4047 26.0379L42.6579 26.1073ZM42.6563 19.6245V26.0726H43.4063V19.6245H42.6563ZM42.6563 19.5064V19.6245H43.4063V19.5064H42.6563ZM42.6563 19.4584V19.5064H43.4063V19.4584H42.6563ZM30.1833 14.7175C26.6933 14.7175 23.723 15.2986 21.5956 16.1618C20.533 16.593 19.666 17.1005 19.0497 17.6537C18.4377 18.203 18.037 18.8312 17.9962 19.5014L18.7448 19.547C18.7689 19.1518 19.0143 18.6933 19.5506 18.2119C20.0826 17.7344 20.8663 17.2671 21.8776 16.8568C23.8982 16.0369 26.7694 15.4675 30.1833 15.4675V14.7175ZM42.3738 19.501C42.3321 18.827 41.9315 18.1967 41.3185 17.646C40.7015 17.0918 39.834 16.5848 38.7711 16.1547C36.6431 15.2938 33.6729 14.7175 30.1833 14.7175V15.4675C33.5976 15.4675 36.4689 16.0324 38.4898 16.85C39.5013 17.2592 40.285 17.7258 40.8173 18.204C41.3536 18.6858 41.6004 19.1468 41.6253 19.5474L42.3738 19.501ZM42.3734 19.6165C42.3766 19.576 42.3766 19.5353 42.3734 19.4947L41.6257 19.5537C41.6258 19.555 41.6258 19.5563 41.6257 19.5575L42.3734 19.6165ZM39.754 22.5767C40.5583 22.1687 41.2041 21.7108 41.6535 21.2169C42.1031 20.7226 42.3745 20.1705 42.3745 19.587H41.6245C41.6245 19.9268 41.4672 20.3071 41.0987 20.7122C40.73 21.1175 40.1682 21.5256 39.4147 21.9079L39.754 22.5767ZM30.1799 24.4639C33.9013 24.4639 37.3924 23.7867 39.7554 22.5761L39.4134 21.9086C37.192 23.0467 33.8304 23.7139 30.1799 23.7139V24.4639ZM20.6048 22.5763C22.9674 23.7829 26.4581 24.4639 30.1799 24.4639V23.7139C26.5298 23.7139 23.1678 23.0431 20.946 21.9084L20.6048 22.5763ZM17.9887 19.587C17.9887 20.1704 18.26 20.7226 18.7092 21.2167C19.158 21.7106 19.8029 22.1685 20.6054 22.5766L20.9454 21.908C20.1936 21.5258 19.6326 21.1177 19.2642 20.7123C18.896 20.3072 18.7387 19.9269 18.7387 19.587H17.9887ZM17.9895 19.4995C17.9878 19.5255 17.9861 19.5549 17.9861 19.5792C17.9861 19.5857 17.9862 19.5967 17.987 19.6096C17.9871 19.6111 17.9888 19.6544 18.0048 19.704C18.0097 19.7193 18.0196 19.7471 18.0382 19.7789C18.0547 19.807 18.0947 19.8676 18.1721 19.913C18.2653 19.9678 18.3778 19.9799 18.4809 19.9455C18.5665 19.917 18.6184 19.8657 18.6404 19.8414C18.6838 19.7936 18.7036 19.746 18.7075 19.7371C18.715 19.7196 18.7197 19.7051 18.722 19.6975L18.0053 19.4765C18.0072 19.4703 18.0115 19.4569 18.0186 19.4403C18.0221 19.4323 18.0416 19.3853 18.0846 19.3378C18.1065 19.3137 18.1583 19.2625 18.2437 19.234C18.3466 19.1997 18.4591 19.2118 18.5521 19.2665C18.6293 19.3119 18.6692 19.3723 18.6856 19.4002C18.7041 19.4318 18.7139 19.4594 18.7187 19.4743C18.7283 19.5042 18.7318 19.5284 18.733 19.5368C18.7345 19.548 18.7352 19.5569 18.7355 19.5617C18.7361 19.5712 18.7361 19.5779 18.7361 19.5792C18.7361 19.5822 18.7361 19.5747 18.7378 19.5489L17.9895 19.4995ZM18.3705 19.1492H18.3637V19.8992H18.3705V19.1492ZM17.1396 26.875C17.1361 26.9121 17.1361 26.9494 17.1396 26.9864L17.8863 26.9157C17.8872 26.9257 17.8872 26.9357 17.8863 26.9458L17.1396 26.875ZM17.5061 27.2854H17.5129V26.5354H17.5061V27.2854ZM14.3682 29.991C14.4016 29.5765 14.6655 29.1037 15.2254 28.6159C15.7812 28.1316 16.5947 27.6638 17.641 27.2603L17.3712 26.5605C16.2723 26.9843 15.3743 27.4914 14.7327 28.0504C14.0953 28.6059 13.676 29.2447 13.6206 29.9307L14.3682 29.991ZM14.3694 30.0532V29.9609H13.6194V30.0532H14.3694ZM14.3986 30.2001C14.3836 30.1414 14.3733 30.0813 14.3679 30.0204L13.6208 30.086C13.6297 30.1874 13.6469 30.288 13.6721 30.3864L14.3986 30.2001ZM15.7642 31.8496C14.9138 31.3065 14.4839 30.7386 14.4059 30.2358L13.6648 30.3507C13.7918 31.1701 14.4414 31.8947 15.3605 32.4817L15.7642 31.8496ZM16.591 32.3379C16.3097 32.1937 16.0362 32.0322 15.7715 31.8544L15.3532 32.4769C15.6421 32.671 15.941 32.8474 16.2486 33.0052L16.591 32.3379ZM17.7628 32.8444C17.3632 32.6963 16.9707 32.5266 16.5867 32.3358L16.2529 33.0074C16.6606 33.21 17.0776 33.3903 17.5022 33.5476L17.7628 32.8444ZM25.8311 34.1394C22.7906 34.1394 19.9272 33.6677 17.7658 32.8455L17.4992 33.5465C19.765 34.4084 22.7227 34.8894 25.8311 34.8894V34.1394ZM26.2376 34.1394H25.8311V34.8894H26.2376V34.1394ZM26.3606 34.1394H26.2376V34.8894H26.3606V34.1394ZM26.9178 34.1201C26.7372 34.128 26.5516 34.1361 26.3542 34.1395L26.367 34.8894C26.5758 34.8858 26.771 34.8773 26.9506 34.8694L26.9178 34.1201ZM27.5118 34.1025C27.3205 34.1025 27.1206 34.1113 26.9178 34.1201L26.9506 34.8694C27.157 34.8604 27.3398 34.8525 27.5118 34.8525V34.1025ZM28.102 34.0627L27.4871 34.1033L27.5366 34.8517L28.1514 34.8111L28.102 34.0627ZM29.0506 33.9646C28.7324 34.0012 28.4142 34.0341 28.0927 34.0634L28.1607 34.8103C28.4883 34.7805 28.8124 34.747 29.1363 34.7097L29.0506 33.9646ZM29.2745 33.9622H29.0935V34.7122H29.2745V33.9622ZM29.4387 33.9361L29.2235 33.9656L29.3255 34.7087L29.5407 34.6791L29.4387 33.9361ZM29.5615 33.9326H29.4897V34.6826H29.5615V33.9326ZM30.1173 33.845C29.9078 33.8784 29.7049 33.9107 29.513 33.9358L29.61 34.6795C29.8144 34.6528 30.0282 34.6187 30.2354 34.5856L30.1173 33.845ZM30.3169 33.812L30.1154 33.8453L30.2374 34.5853L30.4389 34.552L30.3169 33.812ZM30.4394 33.807H30.3779V34.557H30.4394V33.807ZM30.7088 33.7472C30.5945 33.7708 30.4871 33.793 30.3747 33.8127L30.5042 34.5514C30.6294 34.5295 30.7476 34.505 30.8604 34.4818L30.7088 33.7472ZM30.7111 33.7468L30.711 33.7468L30.8581 34.4822L30.8581 34.4822L30.7111 33.7468ZM30.7176 33.7455L30.7175 33.7455L30.8517 34.4834L30.8517 34.4834L30.7176 33.7455ZM31.1184 33.6682C30.9713 33.693 30.836 33.721 30.7089 33.7472L30.8605 34.4817C30.9891 34.4552 31.1114 34.43 31.243 34.4078L31.1184 33.6682ZM31.8423 33.5152C31.609 33.5728 31.3693 33.626 31.1184 33.6682L31.243 34.4078C31.5182 34.3614 31.7772 34.3038 32.0222 34.2433L31.8423 33.5152ZM31.9596 33.5042H31.9322V34.2542H31.9596V33.5042ZM32.1663 33.4472L31.8759 33.5137L32.0433 34.2448L32.3336 34.1783L32.1663 33.4472ZM32.2736 33.4198L32.1575 33.4493L32.3424 34.1762L32.4585 34.1466L32.2736 33.4198ZM32.6099 33.3289L32.2682 33.4212L32.4639 34.1452L32.8055 34.0529L32.6099 33.3289ZM32.7405 33.2883L32.597 33.3326L32.8184 34.0492L32.9618 34.0048L32.7405 33.2883ZM33.0806 33.1816L32.739 33.2887L32.9634 34.0044L33.305 33.8973L33.0806 33.1816ZM32.9321 33.2516L32.8774 33.3365L33.5081 33.7424L33.5628 33.6574L32.9321 33.2516ZM34.0034 32.7861C33.71 32.8976 33.4365 33.0014 33.1344 33.097L33.3605 33.8121C33.686 33.7092 33.9786 33.5979 34.2698 33.4872L34.0034 32.7861ZM34.0085 32.7842L34.0084 32.7843L34.2647 33.4891L34.2648 33.4891L34.0085 32.7842ZM34.0051 32.7855L34.005 32.7855L34.2683 33.4878L34.2684 33.4878L34.0051 32.7855ZM34.1392 32.7346L34.0037 32.786L34.2698 33.4872L34.4053 33.4358L34.1392 32.7346ZM34.2672 32.677C34.2166 32.7005 34.1745 32.72 34.13 32.7382L34.4145 33.4322C34.4775 33.4063 34.5349 33.3796 34.5835 33.357L34.2672 32.677ZM34.2811 32.6708L34.2811 32.6708L34.5695 33.3631L34.5696 33.3631L34.2811 32.6708ZM34.2577 32.6815L34.2577 32.6815L34.5931 33.3524L34.5931 33.3523L34.2577 32.6815ZM34.4058 32.6145C34.3554 32.6359 34.3082 32.6579 34.2673 32.6769L34.5836 33.3569C34.6261 33.3372 34.662 33.3205 34.699 33.3048L34.4058 32.6145ZM34.4601 32.5907C34.4405 32.5993 34.4209 32.6078 34.4016 32.6163L34.7032 33.303C34.7215 33.2949 34.7402 33.2868 34.7592 33.2785L34.4601 32.5907ZM34.5555 32.5494C34.5237 32.5632 34.4916 32.577 34.4601 32.5907L34.7592 33.2785C34.7899 33.2652 34.8211 33.2517 34.8531 33.2379L34.5555 32.5494ZM34.5528 32.5506L34.5525 32.5507L34.856 33.2366L34.8564 33.2364L34.5528 32.5506ZM35.0163 32.338C34.907 32.3971 34.7401 32.4696 34.5558 32.5493L34.8534 33.2377C35.0258 33.1632 35.2281 33.0761 35.3729 32.9978L35.0163 32.338ZM35.087 32.2998L35.0166 32.3378L35.3727 32.9979L35.4431 32.9599L35.087 32.2998ZM35.0791 32.3042L35.079 32.3043L35.4511 32.9555L35.4512 32.9554L35.0791 32.3042ZM35.5077 32.0654C35.3784 32.1427 35.233 32.2211 35.0872 32.2997L35.4431 32.9599C35.5858 32.883 35.7463 32.7966 35.8927 32.7091L35.5077 32.0654ZM35.6466 31.9796L35.5031 32.0682L35.8973 32.7062L36.0408 32.6176L35.6466 31.9796ZM35.9303 31.7949C35.8377 31.8593 35.7471 31.9199 35.6524 31.976L36.0349 32.6212C36.1521 32.5517 36.2596 32.4794 36.3583 32.4108L35.9303 31.7949ZM36.0871 31.683L35.9266 31.7975L36.362 32.4082L36.5226 32.2937L36.0871 31.683ZM36.3038 31.5102L36.0715 31.6948L36.5382 32.2819L36.7705 32.0973L36.3038 31.5102ZM36.4378 31.396L36.2944 31.5179L36.7799 32.0895L36.9234 31.9677L36.4378 31.396ZM36.628 31.2087C36.5667 31.2764 36.5019 31.3401 36.4341 31.3993L36.9271 31.9644C37.0175 31.8856 37.1033 31.8012 37.1842 31.7118L36.628 31.2087ZM36.733 31.1073L36.6476 31.1886L37.1645 31.7319L37.2499 31.6507L36.733 31.1073ZM36.9186 30.8668C36.855 30.959 36.786 31.0464 36.7123 31.1286L37.2706 31.6294C37.3658 31.5233 37.4543 31.4109 37.5358 31.2929L36.9186 30.8668ZM36.9616 30.7948C36.9487 30.82 36.9343 30.844 36.9186 30.8668L37.5357 31.293C37.5704 31.2428 37.6017 31.1904 37.6294 31.136L36.9616 30.7948ZM37.0818 30.5904C37.052 30.6482 37.0192 30.7039 36.9836 30.7572L37.6074 31.1735C37.6588 31.0966 37.7058 31.0167 37.7484 30.9341L37.0818 30.5904ZM37.1088 30.5383C37.1034 30.548 37.0848 30.5803 37.0694 30.6169L37.7608 30.9076C37.758 30.9141 37.7561 30.9176 37.7567 30.9164C37.757 30.916 37.7575 30.915 37.7586 30.913C37.7598 30.9109 37.761 30.9086 37.763 30.905L37.1088 30.5383ZM37.1103 30.5356L37.1103 30.5356L37.7615 30.9077L37.7615 30.9077L37.1103 30.5356ZM37.0913 30.6404C37.0913 30.585 37.1065 30.5466 37.1111 30.5357C37.1139 30.5292 37.1157 30.5257 37.1151 30.5269C37.1143 30.5284 37.1131 30.5307 37.1088 30.5383L37.763 30.905C37.7639 30.9035 37.8413 30.785 37.8413 30.6404H37.0913ZM37.1369 30.4473C37.1317 30.4651 37.1257 30.4825 37.1188 30.4993L37.8138 30.7814C37.8304 30.7405 37.8449 30.6987 37.8572 30.6562L37.1369 30.4473ZM37.4492 30.9268H37.497V30.1768H37.4492V30.9268ZM37.1739 31.0137L37.5462 30.914L37.3522 30.1895L36.9799 30.2892L37.1739 31.0137ZM36.653 31.1533C36.8379 31.1102 37.0142 31.0596 37.1803 31.0119L36.9735 30.291C36.8048 30.3394 36.6463 30.3848 36.4827 30.4229L36.653 31.1533ZM36.2476 31.2491L36.6541 31.1531L36.4817 30.4232L36.0752 30.5192L36.2476 31.2491ZM36.0521 31.292C36.1156 31.2779 36.1771 31.2641 36.2391 31.251L36.0836 30.5173C36.017 30.5314 35.9517 30.546 35.8889 30.56L36.0521 31.292ZM35.7158 31.3633C35.8323 31.3411 35.9451 31.3159 36.0521 31.292L35.8889 30.56C35.7801 30.5842 35.6785 30.6069 35.5753 30.6266L35.7158 31.3633ZM35.2886 31.4446L35.7156 31.3633L35.5754 30.6265L35.1484 30.7078L35.2886 31.4446ZM35.1453 31.469L35.2815 31.4459L35.1556 30.7065L35.0194 30.7297L35.1453 31.469ZM35.1433 31.4694L35.144 31.4693L35.0207 30.7295L35.02 30.7296L35.1433 31.4694ZM34.7487 31.5376C34.8563 31.5182 34.996 31.4944 35.1445 31.4692L35.0188 30.7298C34.8717 30.7548 34.7277 30.7793 34.6157 30.7994L34.7487 31.5376ZM34.4988 31.5768C34.5803 31.5651 34.6568 31.5541 34.7487 31.5376L34.6157 30.7994C34.5386 30.8133 34.4744 30.8226 34.3921 30.8344L34.4988 31.5768ZM34.3066 31.6054C34.3811 31.5937 34.4417 31.585 34.4988 31.5768L34.3921 30.8344C34.3349 30.8426 34.27 30.852 34.1901 30.8645L34.3066 31.6054ZM33.9041 31.6614C34.0349 31.6444 34.1704 31.6269 34.3066 31.6054L34.1901 30.8645C34.0654 30.8841 33.9399 30.9005 33.8075 30.9177L33.9041 31.6614ZM33.9087 31.6608L33.9088 31.6608L33.8028 30.9183L33.8027 30.9183L33.9087 31.6608ZM33.9087 31.6608L33.9087 31.6608L33.8027 30.9183L33.8026 30.9183L33.9087 31.6608ZM33.7315 31.6842C33.7888 31.6764 33.8459 31.669 33.904 31.6614L33.8073 30.9177C33.7496 30.9252 33.6906 30.9329 33.6311 30.9409L33.7315 31.6842ZM33.2924 31.7332L33.7229 31.6852L33.6397 30.9398L33.2093 30.9879L33.2924 31.7332ZM32.6754 31.7929L33.2869 31.7338L33.2148 30.9873L32.6033 31.0464L32.6754 31.7929ZM32.2598 31.8266L32.6697 31.7934L32.6091 31.0459L32.1991 31.0791L32.2598 31.8266ZM32.1843 31.833L32.2609 31.8265L32.198 31.0792L32.1215 31.0856L32.1843 31.833ZM32.2059 31.8305L32.2059 31.8305L32.0999 31.0881L32.0998 31.0881L32.2059 31.8305ZM31.5462 31.8685C31.7674 31.8685 31.9886 31.8496 32.1845 31.833L32.1212 31.0856C31.92 31.1027 31.7304 31.1185 31.5462 31.1185V31.8685ZM31.2046 31.8685H31.5462V31.1185H31.2046V31.8685ZM30.1525 31.8685H31.2046V31.1185H30.1525V31.8685ZM29.0252 31.8685H30.1525V31.1185H29.0252V31.8685ZM28.9261 31.8685H29.0252V31.1185H28.9261V31.8685ZM27.8599 31.8086C28.2009 31.8307 28.5469 31.8532 28.9107 31.8682L28.9415 31.1188C28.5879 31.1042 28.2506 31.0824 27.9085 31.0602L27.8599 31.8086ZM27.7373 31.8094H27.8842V31.0594H27.7373V31.8094ZM26.714 31.7109C27.0385 31.7482 27.3711 31.782 27.7081 31.8083L27.7665 31.0605C27.4407 31.0351 27.1175 31.0024 26.7997 30.9658L26.714 31.7109ZM26.5929 31.7134H26.7569V30.9634H26.5929V31.7134ZM25.599 31.5796C25.9121 31.6285 26.2276 31.6697 26.5453 31.7104L26.6405 30.9664C26.3229 30.9258 26.0166 30.8857 25.7148 30.8386L25.599 31.5796ZM25.441 31.5531L25.5947 31.5789L25.7191 30.8393L25.5654 30.8135L25.441 31.5531ZM24.524 31.3847C24.8223 31.4447 25.1303 31.5008 25.441 31.5531L25.5654 30.8135C25.2612 30.7623 24.9611 30.7076 24.6719 30.6495L24.524 31.3847ZM24.3964 31.3586L24.5228 31.3845L24.6731 30.6497L24.5467 30.6238L24.3964 31.3586ZM23.4933 31.1513C23.7878 31.2271 24.0911 31.2949 24.3949 31.3583L24.5482 30.6242C24.2507 30.562 23.9596 30.4969 23.6802 30.425L23.4933 31.1513ZM23.5116 31.1631H23.5867V30.4131H23.5116V31.1631ZM22.5441 30.9029C22.8261 30.9894 23.1179 31.072 23.4159 31.1507L23.6073 30.4255C23.3177 30.3491 23.0356 30.2692 22.7642 30.1859L22.5441 30.9029ZM22.6302 30.9194H22.6542V30.1694H22.6302V30.9194ZM21.6955 30.6234C21.9623 30.7208 22.2353 30.8154 22.5202 30.9029L22.7403 30.1859C22.4718 30.1035 22.2119 30.0135 21.9526 29.9188L21.6955 30.6234ZM21.616 30.5959L21.7014 30.6255L21.9467 29.9167L21.8612 29.8872L21.616 30.5959ZM20.8749 30.2973C21.1106 30.3999 21.3558 30.4984 21.6069 30.5926L21.8704 29.8905C21.6296 29.8001 21.3966 29.7065 21.1745 29.6097L20.8749 30.2973ZM20.7631 30.2451L20.8656 30.2931L21.1838 29.6139L21.0813 29.5659L20.7631 30.2451ZM20.1063 29.9276C20.3175 30.038 20.5367 30.145 20.7705 30.2484L21.0739 29.5625C20.8568 29.4665 20.6523 29.3667 20.4536 29.2629L20.1063 29.9276ZM20.0086 29.8784L20.1111 29.9301L20.4489 29.2605L20.3464 29.2088L20.0086 29.8784ZM19.4024 29.5261C19.5935 29.6447 19.7906 29.7588 19.9969 29.8722L20.3581 29.2149C20.1613 29.1067 19.9758 28.9993 19.7979 28.8889L19.4024 29.5261ZM19.3129 29.4703L19.4017 29.5257L19.7986 28.8893L19.7098 28.8339L19.3129 29.4703ZM19.1046 29.3238C19.1688 29.3687 19.2308 29.4121 19.2921 29.4563L19.7306 28.8479C19.6645 28.8002 19.5982 28.7538 19.5348 28.7094L19.1046 29.3238ZM19.1072 29.3256L19.1073 29.3256L19.5322 28.7076L19.5321 28.7076L19.1072 29.3256ZM19.1072 29.3256L19.1072 29.3256L19.5321 28.7076L19.5321 28.7075L19.1072 29.3256ZM19.1071 29.3255L19.1072 29.3256L19.5321 28.7075L19.532 28.7075L19.1071 29.3255ZM19.1025 29.3223L19.1025 29.3223L19.5366 28.7107L19.5365 28.7106L19.1025 29.3223ZM18.7675 29.0805C18.8789 29.1658 18.995 29.247 19.1044 29.3236L19.5346 28.7093C19.4228 28.631 19.32 28.559 19.2235 28.4851L18.7675 29.0805ZM18.7033 29.0304L18.7647 29.0784L19.2263 28.4872L19.1648 28.4392L18.7033 29.0304ZM18.2181 28.6116C18.3669 28.7528 18.5293 28.8933 18.7019 29.0293L19.1662 28.4403C19.0108 28.3178 18.8658 28.1923 18.7345 28.0676L18.2181 28.6116ZM18.1913 28.5862L18.2186 28.612L18.734 28.0672L18.7067 28.0413L18.1913 28.5862ZM17.767 28.1242C17.8992 28.2842 18.0391 28.4368 18.1862 28.5813L18.7118 28.0463C18.5833 27.9201 18.461 27.7867 18.3452 27.6465L17.767 28.1242ZM17.4302 27.6346C17.5306 27.8026 17.641 27.9636 17.7609 28.1166L18.3513 27.6541C18.251 27.5261 18.1584 27.3911 18.074 27.2498L17.4302 27.6346ZM17.4055 27.5964L17.4363 27.6444L18.0679 27.24L18.0371 27.192L17.4055 27.5964ZM17.1638 27.0879C17.2297 27.2559 17.3064 27.419 17.3933 27.576L18.0493 27.2124C17.9785 27.0847 17.916 26.9516 17.8621 26.8142L17.1638 27.0879ZM17.9169 40.0651C20.4825 40.8966 23.1507 41.3013 25.8297 41.2651L25.8196 40.5152C23.223 40.5503 20.6364 40.158 18.1482 39.3516L17.9169 40.0651ZM18.0018 40.0834H18.0325V39.3334H18.0018V40.0834ZM13.641 36.5043C13.6881 37.2491 14.1714 37.9355 14.8938 38.5203C15.6232 39.1107 16.6442 39.6384 17.88 40.063L18.1236 39.3537C16.9408 38.9473 16.0061 38.4558 15.3657 37.9373C14.7182 37.4133 14.4176 36.9012 14.3895 36.457L13.641 36.5043ZM13.6408 36.4088C13.6417 36.4259 13.6417 36.443 13.6408 36.4601L14.3897 36.5012C14.3921 36.4567 14.3921 36.4122 14.3897 36.3677L13.6408 36.4088ZM13.6402 32.337V36.3883H14.3902V32.337H13.6402ZM14.373 32.1552L14.2671 32.0592L13.7633 32.6148L13.8692 32.7108L14.373 32.1552ZM14.5116 32.2857L14.3783 32.1601L13.8639 32.7059L13.9972 32.8315L14.5116 32.2857ZM14.8349 32.5613C14.7175 32.4642 14.6085 32.374 14.5071 32.2815L14.0016 32.8356C14.1189 32.9426 14.2422 33.0444 14.357 33.1394L14.8349 32.5613ZM14.9832 32.6735L14.8227 32.5516L14.3692 33.149L14.5298 33.2709L14.9832 32.6735ZM15.3728 32.9354C15.2298 32.8455 15.0986 32.7588 14.9795 32.6707L14.5335 33.2737C14.6741 33.3776 14.823 33.4756 14.9737 33.5704L15.3728 32.9354ZM15.5419 33.048L15.3814 32.9409L14.9652 33.5648L15.1257 33.6719L15.5419 33.048ZM16.1055 33.3638C15.8995 33.256 15.7086 33.1492 15.529 33.0397L15.1387 33.6802C15.3348 33.7997 15.5402 33.9145 15.7578 34.0283L16.1055 33.3638ZM16.1702 33.4007L16.119 33.3712L15.7443 34.0209L15.7956 34.0505L16.1702 33.4007ZM16.6625 33.6232C16.48 33.5441 16.3078 33.4693 16.1515 33.3906L15.8143 34.0606C15.9932 34.1506 16.1856 34.2339 16.364 34.3113L16.6625 33.6232ZM16.681 33.6319L16.6809 33.6319L16.3455 34.3027L16.3455 34.3027L16.681 33.6319ZM16.7609 33.666L16.6627 33.6233L16.3638 34.3112L16.462 34.3539L16.7609 33.666ZM25.8349 35.3005C22.3492 35.3005 19.0941 34.7002 16.7634 33.6671L16.4595 34.3528C18.9114 35.4396 22.2766 36.0505 25.8349 36.0505V35.3005ZM26.3097 35.3005H25.8349V36.0505H26.3097V35.3005ZM26.5181 35.3005H26.3097V36.0505H26.5181V35.3005ZM27.2013 35.3005H26.5181V36.0505H27.2013V35.3005ZM27.4473 35.3005H27.2013V36.0505H27.4473V35.3005ZM28.1177 35.2609C27.8875 35.2814 27.67 35.3005 27.4473 35.3005V36.0505C27.7085 36.0505 27.9585 36.0281 28.1842 36.008L28.1177 35.2609ZM28.094 35.2638L28.0939 35.2638L28.208 36.0051L28.208 36.0051L28.094 35.2638ZM28.1965 35.254L28.1179 35.2609L28.184 36.008L28.2626 36.0011L28.1965 35.254ZM29.3371 35.1336C28.9642 35.1808 28.5627 35.221 28.1959 35.254L28.2632 36.001C28.6343 35.9676 29.0458 35.9265 29.4313 35.8777L29.3371 35.1336ZM29.575 35.1071L29.3427 35.1329L29.4257 35.8783L29.658 35.8525L29.575 35.1071ZM29.6814 35.1048H29.6165V35.8548H29.6814V35.1048ZM30.2459 35.0132L29.6242 35.1092L29.7386 35.8504L30.3604 35.7544L30.2459 35.0132ZM30.4922 34.973L30.2428 35.0137L30.3634 35.7539L30.6128 35.7133L30.4922 34.973ZM30.5696 34.9682H30.5525V35.7182H30.5696V34.9682ZM31.2922 34.8254C31.031 34.8826 30.7714 34.9294 30.5081 34.9732L30.6311 35.7131C30.9006 35.6682 31.174 35.6191 31.4526 35.5581L31.2922 34.8254ZM31.6076 34.76C31.508 34.78 31.4014 34.8015 31.2921 34.8254L31.4526 35.5581C31.5547 35.5357 31.6553 35.5154 31.7557 35.4952L31.6076 34.76ZM31.6068 34.7601L31.6065 34.7602L31.7568 35.495L31.7571 35.4949L31.6068 34.7601ZM31.5633 34.7718L31.5633 34.7718L31.8005 35.4833L31.8005 35.4833L31.5633 34.7718ZM32.025 34.6694C31.9027 34.7004 31.7654 34.7281 31.6078 34.7599L31.756 35.4951C31.9091 35.4643 32.0655 35.4328 32.2092 35.3964L32.025 34.6694ZM32.1098 34.6494L32.0313 34.6679L32.2029 35.398L32.2814 35.3795L32.1098 34.6494ZM32.24 34.6395H32.1956V35.3895H32.24V34.6395ZM32.7768 34.4884C32.5792 34.5464 32.3741 34.6025 32.1619 34.6477L32.3181 35.3812C32.5569 35.3304 32.7823 35.2684 32.9878 35.2081L32.7768 34.4884ZM32.8866 34.4596L32.7876 34.4854L32.977 35.2111L33.076 35.1853L32.8866 34.4596ZM33.494 34.2749C33.3007 34.3397 33.0969 34.4036 32.8849 34.46L33.0778 35.1848C33.3099 35.123 33.5297 35.054 33.7326 34.9859L33.494 34.2749ZM34.5641 33.8869C34.2188 34.0246 33.8645 34.1547 33.4976 34.2737L33.729 34.9871C34.1137 34.8623 34.4836 34.7265 34.842 34.5835L34.5641 33.8869ZM34.8104 33.7763C34.7221 33.8177 34.6439 33.8543 34.5613 33.8881L34.8448 34.5824C34.9478 34.5403 35.0428 34.4957 35.1288 34.4554L34.8104 33.7763ZM34.992 33.6928C34.9281 33.7211 34.867 33.7498 34.8104 33.7763L35.1288 34.4554C35.1865 34.4283 35.2402 34.4032 35.2954 34.3788L34.992 33.6928ZM35.0904 33.6496L34.9929 33.6925L35.2945 34.3792L35.392 34.3363L35.0904 33.6496ZM35.5297 33.4491C35.3974 33.5152 35.2334 33.587 35.0908 33.6495L35.3916 34.3365C35.53 34.2759 35.7122 34.1963 35.8645 34.1202L35.5297 33.4491ZM35.5611 33.4303L35.5098 33.4598L35.8844 34.1095L35.9357 34.08L35.5611 33.4303ZM36.1452 33.104C35.9683 33.2136 35.7797 33.3191 35.5792 33.4204L35.9175 34.0898C36.136 33.9794 36.3437 33.8633 36.5403 33.7415L36.1452 33.104ZM36.3067 33.0022L36.1427 33.1056L36.5428 33.74L36.7068 33.6365L36.3067 33.0022ZM36.361 32.9657L36.2984 33.0076L36.7151 33.6311L36.7777 33.5893L36.361 32.9657ZM36.3614 32.9655L36.3614 32.9655L36.7774 33.5895L36.7774 33.5895L36.3614 32.9655ZM36.7042 32.7308C36.5968 32.8082 36.4838 32.8837 36.3611 32.9656L36.7777 33.5893C36.8982 33.5088 37.0226 33.4258 37.1428 33.3392L36.7042 32.7308ZM36.8508 32.6168L36.6937 32.7387L37.1533 33.3313L37.3105 33.2094L36.8508 32.6168ZM37.1607 32.3526C37.0725 32.4384 36.9686 32.5248 36.8499 32.6175L37.3114 33.2087C37.4386 33.1094 37.567 33.0037 37.6838 32.8901L37.1607 32.3526ZM37.3052 32.2197L37.1685 32.3452L37.676 32.8975L37.8126 32.7719L37.3052 32.2197ZM37.3632 32.1656C37.3483 32.1786 37.3148 32.2074 37.2836 32.2412L37.8342 32.7504C37.8328 32.7519 37.8333 32.7512 37.8376 32.7473C37.8421 32.7431 37.8475 32.7384 37.8571 32.73L37.3632 32.1656ZM37.3861 32.1451C37.3875 32.1436 37.3869 32.1444 37.3827 32.1483C37.3781 32.1525 37.3728 32.1572 37.3632 32.1656L37.8571 32.73C37.872 32.717 37.9054 32.6882 37.9367 32.6544L37.3861 32.1451ZM38.0364 36.3735V32.3998H37.2864V36.3735H38.0364ZM38.0364 36.4141V36.3735H37.2864V36.4141H38.0364ZM38.0364 36.4695V36.4141H37.2864V36.4695H38.0364ZM25.8246 41.2651C29.3144 41.2651 32.2836 40.6879 34.4134 39.828C35.4773 39.3985 36.3462 38.8927 36.9659 38.3408C37.5812 37.7928 37.9861 37.1664 38.0354 36.4971L37.2874 36.442C37.2581 36.84 37.0071 37.2998 36.467 37.7807C35.9313 38.2578 35.1453 38.7238 34.1327 39.1326C32.1094 39.9494 29.2388 40.5151 25.8246 40.5151V41.2651ZM37.8636 28.9173C35.3721 29.725 32.7819 30.1184 30.1818 30.0845L30.172 30.8345C32.8545 30.8694 35.5261 30.4635 38.0949 29.6308L37.8636 28.9173ZM41.64 26.0041C41.6027 26.4519 41.2924 26.9675 40.6377 27.494C39.9899 28.0149 39.0487 28.5094 37.8572 28.9194L38.1013 29.6286C39.3456 29.2004 40.372 28.6701 41.1077 28.0784C41.8365 27.4924 42.3256 26.8077 42.3874 26.0663L41.64 26.0041ZM41.6387 25.9466V26.0352H42.3887V25.9466H41.6387ZM41.6387 21.9064V25.9466H42.3887V21.9064H41.6387ZM42.2215 22.2238C42.2333 22.2135 42.2533 22.1961 42.2735 22.1768L41.7538 21.636C41.7489 21.6407 41.7426 21.6463 41.7285 21.6587L42.2215 22.2238ZM42.1967 22.2459C42.1957 22.2471 42.1965 22.2461 42.2009 22.242C42.2058 22.2376 42.2114 22.2326 42.2214 22.2239L41.7285 21.6586C41.7126 21.6725 41.6784 21.7018 41.6461 21.7367L42.1967 22.2459ZM42.0089 22.4215L42.1763 22.2664L41.6665 21.7162L41.4992 21.8714L42.0089 22.4215ZM41.6767 22.701C41.7951 22.609 41.9011 22.518 42.0041 22.4259L41.504 21.8669C41.4088 21.9521 41.3167 22.0309 41.2165 22.1088L41.6767 22.701ZM41.4809 22.8485L41.6722 22.7045L41.221 22.1053L41.0297 22.2494L41.4809 22.8485ZM41.0743 23.1274C41.2163 23.0369 41.3492 22.9435 41.4746 22.8532L41.036 22.2447C40.9154 22.3317 40.7956 22.4156 40.6711 22.495L41.0743 23.1274ZM41.0103 23.1684C41.0325 23.154 41.0519 23.1414 41.0717 23.129L40.6737 22.4933C40.6477 22.5096 40.6229 22.5257 40.6015 22.5396L41.0103 23.1684ZM40.8703 23.2553C40.9234 23.225 40.9717 23.1936 41.0103 23.1685L40.6015 22.5396C40.5602 22.5665 40.5302 22.5859 40.4994 22.6034L40.8703 23.2553ZM40.2124 23.633C40.4439 23.5155 40.6749 23.3891 40.8952 23.2397L40.4744 22.619C40.2916 22.7429 40.0922 22.8529 39.8728 22.9643L40.2124 23.633ZM30.194 25.631C34.0636 25.631 37.7183 24.9128 40.2138 23.6323L39.8714 22.965C37.5161 24.1736 33.9901 24.881 30.194 24.881V25.631ZM20.1742 23.6323C22.6698 24.9128 26.3244 25.631 30.194 25.631V24.881C26.3979 24.881 22.8719 24.1736 20.5166 22.965L20.1742 23.6323ZM19.5092 23.2502C19.7156 23.3751 19.932 23.4995 20.1651 23.6274L20.5258 22.9699C20.3011 22.8466 20.0939 22.7274 19.8973 22.6085L19.5092 23.2502ZM19.3499 23.1493C19.3957 23.1799 19.4533 23.2186 19.5178 23.2553L19.8887 22.6034C19.8514 22.5822 19.8157 22.5585 19.7668 22.5258L19.3499 23.1493ZM19.312 23.1241C19.3243 23.1322 19.3366 23.1404 19.3499 23.1493L19.7668 22.5258C19.7538 22.5171 19.7398 22.5078 19.7254 22.4983L19.312 23.1241ZM18.9135 22.8532C19.0417 22.9456 19.1774 23.0383 19.3171 23.1274L19.7203 22.495C19.5936 22.4142 19.4697 22.3296 19.352 22.2447L18.9135 22.8532ZM18.7167 22.7025L18.9046 22.8466L19.3609 22.2513L19.173 22.1073L18.7167 22.7025ZM18.4689 22.4951C18.5347 22.5523 18.6317 22.6365 18.7148 22.701L19.1749 22.1088C19.1111 22.0592 19.0304 21.9894 18.9603 21.9285L18.4689 22.4951ZM18.395 22.4317C18.4098 22.444 18.434 22.4649 18.4689 22.4951L18.9603 21.9285C18.9287 21.9011 18.8963 21.873 18.8729 21.8537L18.395 22.4317ZM18.2238 22.2782C18.2707 22.3222 18.3303 22.3783 18.395 22.4317L18.8729 21.8537C18.8292 21.8175 18.7863 21.7775 18.7367 21.731L18.2238 22.2782ZM18.2135 22.2686L18.2238 22.2782L18.7367 21.731L18.7265 21.7214L18.2135 22.2686ZM18.1179 22.1768L18.2102 22.2654L18.7298 21.7246L18.6376 21.636L18.1179 22.1768ZM18.7528 26.0094V21.9064H18.0028V26.0094H18.7528ZM18.7517 26.1082C18.7549 26.0658 18.7549 26.0231 18.7517 25.9807L18.0039 26.038C18.0042 26.0423 18.0042 26.0466 18.0039 26.0509L18.7517 26.1082ZM18.7496 26.1616C18.7553 26.1182 18.7553 26.0741 18.7496 26.0307L18.006 26.1284C18.0032 26.107 18.0032 26.0853 18.006 26.0639L18.7496 26.1616ZM18.8179 26.3508C18.7843 26.261 18.7615 26.1665 18.7503 26.0695L18.0053 26.156C18.0234 26.3126 18.0604 26.4663 18.1153 26.6133L18.8179 26.3508ZM30.1769 30.0845C27.0412 30.0845 24.3469 29.5977 22.3543 28.8718C21.3577 28.5088 20.5461 28.0894 19.9443 27.6486C19.3382 27.2046 18.9709 26.7582 18.8176 26.3502L18.1156 26.614C18.3397 27.2105 18.8321 27.7635 19.5012 28.2536C20.1747 28.747 21.054 29.1963 22.0976 29.5765C24.1856 30.3372 26.969 30.8345 30.1769 30.8345V30.0845Z" fill="#27D17F"/>
</svg>
