<svg width="40" height="41" viewBox="0 0 40 41" fill="none" xmlns="http://www.w3.org/2000/svg">
<path fill-rule="evenodd" clip-rule="evenodd" d="M20.2395 2.7975C20.7561 2.79607 21.2679 2.89706 21.7452 3.09462C22.2226 3.29218 22.656 3.5824 23.0205 3.9485L24.0285 4.95747C24.2079 5.13748 24.4211 5.28019 24.6559 5.37733C24.8907 5.47448 25.1424 5.52418 25.3965 5.52351H26.8215C27.8645 5.52457 28.8646 5.93936 29.6021 6.67689C30.3397 7.41443 30.7544 8.41444 30.7555 9.45747V10.8825C30.7548 11.1364 30.8045 11.388 30.9016 11.6226C30.9988 11.8573 31.1415 12.0703 31.3215 12.2495L32.3285 13.2575C32.6948 13.6218 32.9852 14.0553 33.183 14.5326C33.3807 15.01 33.4819 15.5218 33.4805 16.0385C33.482 16.5553 33.3809 17.0673 33.1832 17.5449C32.9854 18.0224 32.6949 18.456 32.3285 18.8205L31.3215 19.8275C31.1415 20.0068 30.9988 20.2201 30.9017 20.4548C30.8045 20.6896 30.7548 20.9414 30.7555 21.1955V22.6205C30.7544 23.6635 30.3397 24.6635 29.6021 25.4011C28.8646 26.1386 27.8645 26.5534 26.8215 26.5545H25.3965C25.1422 26.5538 24.8902 26.6037 24.6553 26.701C24.4203 26.7983 24.2069 26.9412 24.0275 27.1215L23.0215 28.1275C22.657 28.494 22.2234 28.7845 21.7459 28.9822C21.2892 29.1713 20.801 29.272 20.3072 29.2791L26.3135 35.2853L26.1205 32.4423C26.1064 32.2356 26.1367 32.0283 26.2093 31.8343C26.2819 31.6403 26.3952 31.464 26.5415 31.3173C26.6882 31.1702 26.8646 31.0562 27.059 30.9828C27.2534 30.9095 27.4612 30.8787 27.6685 30.8923L30.5135 31.0864L28.1885 28.7623L29.6025 27.3483L32.9555 30.7004C33.1671 30.9086 33.3094 31.177 33.3631 31.469C33.4168 31.761 33.3792 32.0624 33.2555 32.3323C33.134 32.6025 32.9324 32.8287 32.6781 32.9806C32.4238 33.1324 32.1289 33.2025 31.8335 33.1813L28.1635 32.9313L28.4135 36.6014C28.4351 36.8971 28.3651 37.1924 28.213 37.447C28.0609 37.7016 27.8341 37.9031 27.5635 38.0244C27.3709 38.1114 27.1618 38.1558 26.9505 38.1544C26.76 38.1541 26.5715 38.1161 26.3958 38.0427C26.22 37.9692 26.0605 37.8617 25.9265 37.7264L14.7546 26.5545H14.4914L9.96052 31.0845L12.8025 30.8915C13.0097 30.8776 13.2174 30.9081 13.4118 30.9811C13.6061 31.054 13.7827 31.1677 13.9295 31.3145C14.076 31.4611 14.1896 31.6373 14.2625 31.8313C14.3355 32.0253 14.3661 32.2326 14.3525 32.4395L14.1595 35.2834L17.1515 32.2925L18.5655 33.7065L14.5455 37.7255C14.4115 37.8611 14.2518 37.9688 14.0759 38.0424C13.9 38.116 13.7112 38.1541 13.5205 38.1545C13.3117 38.1542 13.1055 38.1091 12.9155 38.0225C12.645 37.9014 12.4182 37.7 12.2661 37.4456C12.114 37.1912 12.044 36.8961 12.0655 36.6005L12.3155 32.9294L8.64552 33.1794C8.35003 33.2009 8.05505 33.131 7.80067 32.9791C7.54629 32.8272 7.34482 32.6007 7.22352 32.3304C7.09915 32.0613 7.06063 31.7604 7.11323 31.4686C7.16583 31.1768 7.307 30.9083 7.51753 30.6995L12.0211 26.1966C11.5994 26.0034 11.2112 25.7354 10.8769 25.4011C10.1394 24.6635 9.72457 23.6635 9.72351 22.6205V21.1955C9.72412 20.9412 9.67435 20.6892 9.57703 20.4542C9.47971 20.2193 9.33675 20.0059 9.15649 19.8265L8.14948 18.8205C7.41333 18.082 7 17.0818 7 16.039C7 14.9963 7.41333 13.996 8.14948 13.2575L9.15753 12.2495C9.3376 12.0704 9.4803 11.8573 9.57745 11.6227C9.67461 11.388 9.72427 11.1364 9.72351 10.8825V9.45747C9.72457 8.41444 10.1394 7.41443 10.8769 6.67689C11.6144 5.93936 12.6145 5.52457 13.6575 5.52351H15.0825C15.3365 5.52427 15.588 5.47461 15.8227 5.37746C16.0573 5.2803 16.2704 5.13754 16.4495 4.95747L17.4575 3.94948C17.8221 3.58312 18.2556 3.29266 18.7332 3.09492C19.2107 2.89719 19.7227 2.79612 20.2395 2.7975ZM26.8215 24.5545C27.3342 24.5539 27.8259 24.35 28.1885 23.9874C28.5511 23.6249 28.755 23.1333 28.7555 22.6205V21.1955C28.7542 20.6789 28.8553 20.1672 29.0529 19.6899C29.2504 19.2126 29.5405 18.7791 29.9065 18.4145L30.9145 17.4065C31.0947 17.2275 31.2376 17.0144 31.3349 16.7798C31.4322 16.5452 31.4821 16.2935 31.4815 16.0395C31.4821 15.7855 31.4322 15.5339 31.3349 15.2992C31.2376 15.0646 31.0947 14.8516 30.9145 14.6725L29.9075 13.6645C29.5413 13.3001 29.251 12.8667 29.0535 12.3893C28.8559 11.9119 28.755 11.4001 28.7565 10.8835V9.45851C28.756 8.94574 28.552 8.45409 28.1895 8.09151C27.8269 7.72893 27.3353 7.52502 26.8225 7.52449H25.3975C24.8809 7.52576 24.3692 7.42468 23.8919 7.22713C23.4146 7.02957 22.9811 6.73946 22.6165 6.37349L21.6085 5.36452C21.4292 5.18412 21.2158 5.04107 20.9808 4.94374C20.7458 4.84641 20.4939 4.79672 20.2395 4.7975C19.9854 4.79672 19.7337 4.84634 19.4988 4.9435C19.264 5.04065 19.0508 5.18338 18.8715 5.36348L17.8635 6.37147C17.4992 6.73785 17.0657 7.02835 16.5884 7.22609C16.111 7.42383 15.5992 7.52493 15.0825 7.52351H13.6575C13.1448 7.52404 12.6531 7.72795 12.2905 8.09053C11.9279 8.45311 11.724 8.94471 11.7235 9.45747V10.8825C11.7249 11.3992 11.6238 11.911 11.4261 12.3884C11.2283 12.8657 10.9378 13.2991 10.5715 13.6635L9.56348 14.6715C9.20179 15.0347 8.99872 15.5264 8.99872 16.039C8.99872 16.5516 9.20179 17.0433 9.56348 17.4065L10.5705 18.4125C10.9367 18.7772 11.2271 19.2108 11.4248 19.6882C11.6225 20.1657 11.7237 20.6777 11.7225 21.1945V22.6195C11.723 23.1322 11.927 23.6239 12.2896 23.9865C12.6521 24.349 13.1437 24.553 13.6565 24.5535H15.0815C15.5982 24.5521 16.11 24.6532 16.5874 24.8509C17.0648 25.0486 17.4981 25.3391 17.8625 25.7055L18.8705 26.7125C19.0497 26.8928 19.2629 27.0358 19.4977 27.1331C19.7325 27.2305 19.9843 27.2802 20.2385 27.2795C20.4926 27.2801 20.7442 27.2302 20.9788 27.1329C21.2135 27.0356 21.4265 26.8927 21.6055 26.7125L22.6125 25.7055C22.9771 25.3392 23.4107 25.0489 23.8882 24.8512C24.3657 24.6534 24.8777 24.5523 25.3945 24.5535L26.8215 24.5545Z" fill="#27D17F"/>
</svg>
