<svg width="40" height="41" viewBox="0 0 40 41" fill="none" xmlns="http://www.w3.org/2000/svg">
<g clip-path="url(#clip0_5466_3272)">
<path fill-rule="evenodd" clip-rule="evenodd" d="M15.4748 2.31403C14.9708 1.97724 14.3782 1.79749 13.772 1.79749C12.9594 1.79828 12.1802 2.12145 11.6056 2.69608C11.031 3.27071 10.7078 4.04984 10.707 4.86249C10.707 5.46869 10.8868 6.06127 11.2235 6.56531C11.5603 7.06934 12.039 7.46219 12.5991 7.69418C12.9486 7.83894 13.3199 7.917 13.6943 7.9265L16.0793 14.1011C15.5425 14.4164 15.038 14.7916 14.576 15.2225L15.934 16.6835C17.1507 15.5501 18.7522 14.9207 20.415 14.9225C22.1605 14.9243 23.834 15.6186 25.0682 16.853C26.3024 18.0874 26.9964 19.7609 26.998 21.5065C26.9961 23.2518 26.302 24.9252 25.0678 26.1593C23.8337 27.3935 22.1604 28.0876 20.415 28.0895C18.6696 28.0876 16.9963 27.3935 15.7622 26.1593C14.528 24.9252 13.8339 23.2518 13.832 21.5065H11.832C11.8326 22.0031 11.8761 22.4953 11.9607 22.9781L9.509 23.6545L9.5157 23.6787C9.30919 23.4038 9.05678 23.1641 8.76782 22.971C8.26379 22.6342 7.6712 22.4545 7.065 22.4545C6.25236 22.4553 5.47322 22.7784 4.89859 23.3531C4.32397 23.9277 4.00079 24.7068 4 25.5195C4 26.1257 4.17976 26.7183 4.51655 27.2223C4.85333 27.7263 5.33202 28.1192 5.89208 28.3512C6.45213 28.5831 7.0684 28.6438 7.66295 28.5256C8.2575 28.4073 8.80363 28.1154 9.23228 27.6868C9.66093 27.2581 9.95284 26.712 10.0711 26.1174C10.1081 25.9316 10.1275 25.7437 10.1298 25.556L12.5323 24.8942C12.9586 25.8846 13.5716 26.7954 14.3488 27.5727C15.1057 28.3295 15.9892 28.9306 16.9496 29.3553L15.6181 33.9982C14.8667 34.0401 14.1545 34.3571 13.6196 34.8921C13.045 35.4667 12.7218 36.2458 12.721 37.0585C12.721 37.6647 12.9008 38.2573 13.2376 38.7613C13.5743 39.2653 14.053 39.6582 14.6131 39.8902C15.1731 40.1221 15.7894 40.1828 16.384 40.0646C16.9785 39.9463 17.5246 39.6544 17.9533 39.2257C18.3819 38.7971 18.6739 38.251 18.7921 37.6564C18.9104 37.0619 18.8497 36.4456 18.6177 35.8855C18.394 35.3454 18.0206 34.8809 17.5421 34.5464L18.8614 29.9461C19.3704 30.0403 19.8902 30.0889 20.415 30.0895C22.4356 30.0881 24.3824 29.375 25.9203 28.0893L29.5573 31.3852C29.3137 31.8313 29.1825 32.3351 29.182 32.8525C29.182 33.4587 29.3618 34.0513 29.6986 34.5553C30.0353 35.0593 30.514 35.4522 31.0741 35.6842C31.6341 35.9161 32.2504 35.9768 32.845 35.8586C33.4395 35.7403 33.9856 35.4484 34.4143 35.0198C34.8429 34.5911 35.1348 34.045 35.2531 33.4504C35.3714 32.8559 35.3107 32.2396 35.0787 31.6796C34.8467 31.1195 34.4539 30.6408 33.9498 30.304C33.4458 29.9672 32.8532 29.7875 32.247 29.7875C31.8297 29.7879 31.4213 29.8733 31.0448 30.0341L27.2957 26.6359C28.3951 25.1627 29.0001 23.3655 29.002 21.5055C28.9998 19.6296 28.3843 17.8176 27.2668 16.3376L30.6671 13.1238C30.7014 13.1395 30.7361 13.1547 30.7711 13.1692C31.3311 13.4011 31.9474 13.4618 32.542 13.3436C33.1365 13.2253 33.6826 12.9334 34.1113 12.5047C34.5399 12.0761 34.8318 11.53 34.9501 10.9354C35.0684 10.3409 35.0077 9.72459 34.7757 9.16454C34.5437 8.60448 34.1509 8.12579 33.6468 7.78901C33.1428 7.45222 32.5502 7.27246 31.944 7.27246C31.1314 7.27326 30.3522 7.59643 29.7776 8.17106C29.203 8.74568 28.8798 9.52482 28.879 10.3375C28.879 10.8272 28.9963 11.3081 29.219 11.7406L25.8838 14.8923C24.3527 13.6266 22.4223 12.9248 20.419 12.9225C19.562 12.9219 18.7176 13.05 17.9118 13.2963L15.604 7.31976C15.7221 7.23167 15.8342 7.13483 15.9393 7.02977C16.3679 6.60112 16.6598 6.05499 16.7781 5.46044C16.8964 4.86589 16.8357 4.24962 16.6037 3.68956C16.3717 3.12951 15.9789 2.65082 15.4748 2.31403ZM14.3637 5.748C14.1885 5.86502 13.9826 5.92749 13.772 5.92749C13.4896 5.92722 13.2189 5.81493 13.0192 5.61526C12.8196 5.41559 12.7073 5.14486 12.707 4.86249C12.707 4.65185 12.7695 4.44594 12.8865 4.2708C13.0035 4.09566 13.1698 3.95916 13.3644 3.87855C13.559 3.79795 13.7732 3.77686 13.9798 3.81795C14.1864 3.85904 14.3761 3.96047 14.5251 4.10942C14.674 4.25836 14.7754 4.44812 14.8165 4.65471C14.8576 4.8613 14.8365 5.07544 14.7559 5.27004C14.6753 5.46465 14.5388 5.63098 14.3637 5.748ZM32.5357 11.223C32.3605 11.34 32.1546 11.4025 31.944 11.4025C31.6616 11.4022 31.3909 11.2899 31.1912 11.0902C30.9916 10.8906 30.8793 10.6198 30.879 10.3375C30.879 10.1268 30.9415 9.92092 31.0585 9.74578C31.1755 9.57064 31.3418 9.43414 31.5364 9.35353C31.731 9.27292 31.9452 9.25183 32.1518 9.29292C32.3584 9.33402 32.5481 9.43545 32.6971 9.58439C32.846 9.73334 32.9474 9.9231 32.9885 10.1297C33.0296 10.3363 33.0085 10.5504 32.9279 10.745C32.8473 10.9396 32.7108 11.106 32.5357 11.223ZM32.247 33.9175C32.4576 33.9175 32.6636 33.855 32.8387 33.738C33.0138 33.621 33.1503 33.4546 33.2309 33.26C33.3115 33.0654 33.3326 32.8513 33.2915 32.6447C33.2505 32.4381 33.149 32.2484 33.0001 32.0994C32.8511 31.9505 32.6614 31.849 32.4548 31.8079C32.2482 31.7668 32.0341 31.7879 31.8394 31.8685C31.6448 31.9492 31.4785 32.0857 31.3615 32.2608C31.2445 32.4359 31.182 32.6418 31.182 32.8525C31.1823 33.1348 31.2946 33.4056 31.4942 33.6053C31.6939 33.8049 31.9646 33.9172 32.247 33.9175ZM16.3777 37.944C16.2026 38.061 15.9966 38.1235 15.786 38.1235C15.5036 38.1232 15.2329 38.0109 15.0332 37.8112C14.8336 37.6116 14.7213 37.3408 14.721 37.0585C14.721 36.8478 14.7835 36.6419 14.9005 36.4668C15.0175 36.2916 15.1838 36.1551 15.3785 36.0745C15.5731 35.9939 15.7872 35.9728 15.9938 36.0139C16.2004 36.055 16.3901 36.1565 16.5391 36.3054C16.688 36.4543 16.7895 36.6441 16.8305 36.8507C16.8716 37.0573 16.8505 37.2714 16.7699 37.466C16.6893 37.6606 16.5528 37.827 16.3777 37.944ZM7.065 26.5845C7.27564 26.5845 7.48154 26.522 7.65668 26.405C7.83182 26.288 7.96832 26.1216 8.04893 25.927C8.12954 25.7324 8.15063 25.5183 8.10954 25.3117C8.06844 25.1051 7.96701 24.9153 7.81807 24.7664C7.66913 24.6175 7.47936 24.516 7.27277 24.4749C7.06618 24.4338 6.85205 24.4549 6.65744 24.5355C6.46284 24.6161 6.29651 24.7526 6.17948 24.9278C6.06246 25.1029 6 25.3088 6 25.5195C6.00026 25.8018 6.11255 26.0726 6.31222 26.2722C6.51189 26.4719 6.78263 26.5842 7.065 26.5845Z" fill="#27D17F"/>
</g>
<defs>
<clipPath id="clip0_5466_3272">
<rect width="40" height="40" fill="white" transform="translate(0 0.797485)"/>
</clipPath>
</defs>
</svg>
