<svg width="40" height="41" viewBox="0 0 40 41" fill="none" xmlns="http://www.w3.org/2000/svg">
<path fill-rule="evenodd" clip-rule="evenodd" d="M30.816 10.7975H33.767V6.79749H7V10.7975H9.95203V34.2265H30.816V10.7975ZM11.952 10.7975H28.816V32.2265H11.952V10.7975ZM20.1501 25.6124C19.6089 25.5849 19.0775 25.4571 18.5831 25.2354C18.1451 25.0502 17.7596 24.7596 17.4611 24.3895L18.5301 23.2125C18.7267 23.4677 18.9818 23.6718 19.274 23.8074C19.5507 23.9364 19.8466 24.0192 20.1501 24.0524V21.9525L19.705 21.7844C19.1572 21.603 18.6656 21.283 18.278 20.8555C17.8951 20.4162 17.6931 19.8479 17.713 19.2654C17.7092 18.9421 17.7708 18.6214 17.894 18.3224C18.0079 18.0446 18.1782 17.7933 18.394 17.5845C18.6178 17.3704 18.8801 17.2008 19.1671 17.0845C19.4796 16.9572 19.8097 16.8786 20.1461 16.8514V15.9144H20.7931V16.8384C21.2593 16.8716 21.7123 17.0083 22.119 17.2385C22.4778 17.4307 22.7861 17.7047 23.019 18.0385L21.89 19.0944C21.6149 18.7507 21.2289 18.5131 20.7981 18.4224V20.3784L21.2981 20.5704C21.8532 20.7485 22.3493 21.0745 22.7331 21.5134C23.0874 21.9835 23.2644 22.5636 23.2331 23.1514C23.2494 23.469 23.1985 23.7864 23.0837 24.083C22.9689 24.3796 22.7929 24.6486 22.567 24.8724C22.0778 25.3111 21.4524 25.5678 20.7961 25.5994V26.5464H20.149L20.1501 25.6124ZM19.3581 19.2045C19.352 19.3052 19.3667 19.4062 19.4011 19.5011C19.4355 19.596 19.4889 19.6829 19.558 19.7565C19.7289 19.9163 19.9284 20.0425 20.1461 20.1284V18.4285C19.9374 18.461 19.7419 18.5506 19.5811 18.6874C19.5078 18.7516 19.4497 18.8313 19.4112 18.9208C19.3726 19.0102 19.3545 19.1071 19.3581 19.2045ZM21.5891 23.1644C21.5948 22.9602 21.5234 22.7613 21.3891 22.6074C21.224 22.43 21.0237 22.289 20.8011 22.1934V24.0294C21.016 23.9902 21.2145 23.8879 21.3711 23.7354C21.444 23.6603 21.5009 23.5711 21.5384 23.4733C21.5759 23.3755 21.5931 23.2711 21.5891 23.1664V23.1644Z" fill="#27D17F"/>
</svg>
