<svg width="40" height="41" viewBox="0 0 40 41" fill="none" xmlns="http://www.w3.org/2000/svg">
<path fill-rule="evenodd" clip-rule="evenodd" d="M35.0313 12.1546C34.8434 9.04132 29.3196 6.69623 22.1834 6.69623C15.0472 6.69623 9.54389 9.04132 9.33892 12.1287C9.33572 12.1939 9.33572 12.2593 9.33892 12.3245V18.4808C6.62314 19.5001 5.08248 20.9404 4.96975 22.5432C4.96626 22.6145 4.96626 22.686 4.96975 22.7574V29.0725C4.96635 29.1365 4.96635 29.2006 4.96975 29.2646C5.09273 30.9707 6.75978 32.4591 9.67028 33.4599H9.70103C12.332 34.3128 15.0677 34.7287 17.8142 34.6934C24.9265 34.6934 30.4537 32.3556 30.6587 29.2535V29.2055V29.0725V22.9125C33.3779 21.8895 34.9186 20.4492 35.0313 18.8501V18.8206C35.0329 18.8034 35.0329 18.786 35.0313 18.7689V12.3208V12.2026V12.1546ZM10.3705 12.2205C10.5003 10.0896 15.2794 7.78877 22.1833 7.78877C29.0872 7.78877 33.8663 10.0711 33.9995 12.2205C34.0012 12.2413 34.0012 12.2623 33.9995 12.2832C33.9995 13.2065 33.1421 14.1482 31.5843 14.9385C29.2922 16.1129 25.8658 16.7851 22.1799 16.7851C18.4939 16.7851 15.0676 16.1093 12.7754 14.9385C11.2211 14.1482 10.3636 13.2065 10.3636 12.2832C10.3602 12.2943 10.3602 12.2722 10.3636 12.2205H10.3705ZM9.51292 19.6473C9.51164 19.6337 9.51164 19.6201 9.51292 19.6066H9.50609C7.36078 20.4339 6.08317 21.5566 5.99435 22.6571V22.7494C6.00147 22.8306 6.01519 22.9109 6.03534 22.9895C6.13782 23.6505 6.67757 24.2968 7.56233 24.8619C7.83909 25.0479 8.12536 25.2168 8.41977 25.3678C8.81561 25.5645 9.22036 25.7395 9.63248 25.8922C11.8461 26.7342 14.7566 27.2106 17.8311 27.2106H18.2376H18.3606C18.5637 27.2072 18.7541 27.1989 18.9342 27.191C19.1388 27.1821 19.3301 27.1737 19.5118 27.1737L20.1267 27.1331C20.4512 27.1035 20.7723 27.0703 21.0934 27.0334H21.2745L21.4897 27.0038H21.5615C21.7596 26.978 21.968 26.9447 22.1763 26.9115L22.3779 26.8783H22.4394C22.5582 26.8574 22.671 26.8342 22.7845 26.8107L22.7846 26.8107L22.7846 26.8107C22.9125 26.7843 23.0413 26.7577 23.1807 26.7342C23.4437 26.6899 23.6931 26.6345 23.9322 26.5754H23.9595L24.2499 26.509L24.3661 26.4794L24.7077 26.3871L24.8511 26.3428L25.1928 26.2357L25.2474 26.1507C25.5612 26.0515 25.8443 25.944 26.1366 25.8329L26.1366 25.8329L26.1367 25.8329L26.2722 25.7814C26.326 25.7594 26.3757 25.7362 26.4253 25.7132L26.4253 25.7132L26.4254 25.7131C26.4671 25.6938 26.5087 25.6744 26.5524 25.6559C26.5712 25.6476 26.5903 25.6393 26.6096 25.6309C26.6407 25.6173 26.6724 25.6036 26.7042 25.5899L26.7046 25.5897C26.883 25.5126 27.0675 25.4328 27.1946 25.3641L27.265 25.3261L27.2651 25.3261C27.4094 25.2483 27.5623 25.1659 27.7002 25.0834L27.8436 24.9948C27.9495 24.932 28.0486 24.8656 28.1442 24.7991L28.3048 24.6846L28.5371 24.4999L28.6806 24.3781C28.7597 24.309 28.835 24.2351 28.906 24.1565L28.9914 24.0752C29.0759 23.9811 29.1546 23.8812 29.2271 23.7761C29.2523 23.7397 29.2751 23.7014 29.2955 23.6616C29.3389 23.5965 29.3789 23.5287 29.415 23.4585C29.4207 23.445 29.4283 23.4314 29.4359 23.4179L29.4359 23.4179C29.4511 23.3908 29.4663 23.3637 29.4663 23.3366C29.478 23.3077 29.4883 23.2781 29.497 23.248H29.4492L29.0768 23.3477C28.9095 23.3957 28.7421 23.4437 28.5678 23.4843L28.1613 23.5804C28.097 23.594 28.0336 23.6081 27.9705 23.6222C27.8626 23.6463 27.7554 23.6702 27.6455 23.6912L27.2185 23.7724L27.0823 23.7956L27.0816 23.7957C26.9338 23.8208 26.792 23.8449 26.6822 23.8647C26.5976 23.88 26.5273 23.8901 26.4454 23.9018C26.3883 23.91 26.3255 23.9191 26.2483 23.9312C26.1178 23.9517 25.9874 23.9687 25.8558 23.9858L25.8557 23.9858L25.8556 23.9858C25.7977 23.9933 25.7397 24.0009 25.6812 24.0088L25.2508 24.0568L24.6393 24.1159L24.2294 24.1491L24.1529 24.1555L24.1528 24.1555C23.9543 24.1723 23.7489 24.1897 23.5462 24.1897H23.2046H22.1524H21.0251H20.9261C20.5674 24.1749 20.2258 24.1528 19.8842 24.1306H19.7373C19.4059 24.1048 19.078 24.0715 18.7568 24.0346H18.5929C18.2752 23.994 17.9643 23.9534 17.6569 23.9054L17.5031 23.8795C17.1957 23.8278 16.8917 23.7724 16.5979 23.7133L16.4715 23.6875C16.1709 23.6247 15.8737 23.5582 15.5867 23.4843H15.5116C15.2178 23.4068 14.9308 23.3255 14.6541 23.2406H14.6302C14.3535 23.1557 14.0871 23.0633 13.824 22.9673L13.7386 22.9378C13.4927 22.8454 13.2535 22.7494 13.0247 22.6497L12.9222 22.6017C12.6967 22.502 12.4849 22.3986 12.2799 22.2915L12.1775 22.2398C11.9759 22.129 11.7846 22.0182 11.6001 21.9037L11.5113 21.8483C11.4476 21.8024 11.3835 21.7575 11.3197 21.7128L11.3196 21.7128L11.3196 21.7128L11.3195 21.7127L11.3195 21.7127C11.2089 21.6352 11.0994 21.5586 10.9955 21.479L10.934 21.431C10.77 21.3017 10.6163 21.1688 10.4763 21.0358L10.4489 21.01C10.3112 20.8747 10.1801 20.7317 10.0561 20.5816C9.94601 20.4411 9.84446 20.2931 9.75204 20.1384L9.7213 20.0904C9.64242 19.9481 9.57279 19.8 9.51292 19.6473ZM17.8246 33.5864C15.1868 33.622 12.5594 33.2235 10.0325 32.4046H10.0018C7.58318 31.5736 6.09035 30.366 6.0152 29.1768C6.01689 29.1461 6.01689 29.1153 6.0152 29.0845V25.0332L6.1211 25.1292L6.25433 25.2548C6.36364 25.3545 6.47979 25.4505 6.59593 25.5466L6.75649 25.6684C6.8863 25.7645 7.02636 25.8568 7.17325 25.9491L7.33381 26.0562C7.52169 26.1707 7.71983 26.2815 7.93162 26.3923L7.98286 26.4218C8.15049 26.5062 8.33278 26.5852 8.5132 26.6635L8.51322 26.6635L8.61142 26.7062C11.0027 27.7661 14.3129 28.3718 17.8349 28.3718H18.3097H18.5181H19.2013H19.4472C19.6892 28.3718 19.923 28.351 20.1509 28.3307L20.151 28.3307L20.2295 28.3237C20.5985 28.2905 21.005 28.2499 21.3842 28.2019L21.6165 28.176H21.6814L22.3031 28.08L22.5525 28.0394H22.5695C22.836 27.9951 23.1025 27.9471 23.3723 27.888C23.478 27.8648 23.5816 27.844 23.6816 27.8238L23.6819 27.8237L23.6819 27.8237C23.8372 27.7924 23.9841 27.7628 24.117 27.7292L24.1956 27.7107H24.24C24.4655 27.6627 24.6807 27.6036 24.8822 27.5445L24.9813 27.5187C25.2033 27.4596 25.4151 27.3931 25.6133 27.3266C25.989 27.2047 26.3512 27.0718 26.703 26.9315C26.7958 26.8935 26.8824 26.8529 26.9696 26.8121C27.0267 26.7853 27.0841 26.7584 27.1437 26.732L27.2412 26.6892C27.3817 26.6277 27.5547 26.5519 27.6971 26.4809L27.7483 26.4514C27.9579 26.3455 28.156 26.2347 28.3427 26.119L28.5067 26.0156L28.5693 25.9737L28.5694 25.9737C28.691 25.8925 28.8097 25.8132 28.9235 25.7312L29.0806 25.6093C29.2036 25.5133 29.3197 25.4173 29.4222 25.3176L29.5589 25.192C29.5742 25.1754 29.5922 25.1597 29.6101 25.144C29.628 25.1283 29.646 25.1126 29.6613 25.096V29.0697V29.1104V29.1658C29.5042 31.3004 24.7285 33.5864 17.8246 33.5864ZM22.1769 23.1557C24.8182 23.1902 27.449 22.7904 29.9792 21.9703C32.4149 21.1319 33.9146 19.9206 34.0136 18.7314V18.6428V14.6026C34.0011 14.6147 33.9879 14.6261 33.9749 14.6375C33.9561 14.6539 33.9376 14.6701 33.9214 14.6875L33.754 14.8426C33.6549 14.9313 33.5559 15.0162 33.4466 15.1012L33.2553 15.2452C33.1323 15.3338 33.0059 15.4225 32.8727 15.5074C32.8497 15.5217 32.8277 15.5361 32.8059 15.5503C32.7659 15.5763 32.7268 15.6017 32.6848 15.6256C32.4832 15.7622 32.268 15.8804 32.0426 15.9949C29.6171 17.2394 26.0268 17.9522 22.194 17.9522C18.3611 17.9522 14.7708 17.2394 12.3454 15.9949C12.1165 15.8693 11.9047 15.7474 11.7032 15.6256C11.6523 15.5966 11.6057 15.5654 11.5583 15.5338C11.5452 15.525 11.532 15.5162 11.5187 15.5074C11.3855 15.4225 11.2557 15.3338 11.1327 15.2452L10.9448 15.1012C10.8714 15.0441 10.7825 14.9671 10.7145 14.9081C10.6813 14.8792 10.653 14.8547 10.6339 14.839C10.5797 14.7941 10.5285 14.7461 10.4802 14.7008L10.47 14.6912L10.3777 14.6026V18.7056C10.3795 18.7289 10.3795 18.7524 10.3777 18.7758C10.3792 18.7868 10.3792 18.798 10.3777 18.809C10.3925 18.9357 10.4223 19.0599 10.4666 19.1783C11.2215 21.1873 15.8332 23.1557 22.1769 23.1557Z" fill="#27D17F"/>
<path d="M35.0313 12.1546H35.4063V12.1433L35.4056 12.132L35.0313 12.1546ZM9.33892 12.1287L8.96469 12.1039L8.96438 12.1103L9.33892 12.1287ZM9.33892 12.3245H9.71392V12.3153L9.71347 12.3061L9.33892 12.3245ZM9.33892 18.4808L9.47069 18.8319L9.71392 18.7406V18.4808H9.33892ZM4.96975 22.5432L4.59559 22.5169L4.5952 22.5248L4.96975 22.5432ZM4.96975 22.7574H5.34475V22.7482L5.3443 22.739L4.96975 22.7574ZM4.96975 29.0725L5.34422 29.0924L5.34475 29.0825V29.0725H4.96975ZM4.96975 29.2646L4.59521 29.2845L4.59572 29.2915L4.96975 29.2646ZM9.67028 33.4599L9.54834 33.8145L9.60761 33.8349H9.67028V33.4599ZM9.70103 33.4599L9.81668 33.1031L9.7603 33.0849H9.70103V33.4599ZM17.8142 34.6934V34.3183L17.8094 34.3184L17.8142 34.6934ZM30.6587 29.2535L31.0329 29.2782L31.0337 29.2658V29.2535H30.6587ZM30.6587 22.9125L30.5267 22.5615L30.2837 22.6529V22.9125H30.6587ZM35.0313 18.8501L35.4054 18.8765L35.4063 18.8633V18.8501H35.0313ZM35.0313 18.8206L34.6579 18.7858L34.6563 18.8032V18.8206H35.0313ZM35.0313 18.7689H34.6563V18.7863L34.6579 18.8036L35.0313 18.7689ZM10.3705 12.2205V12.5955H10.7233L10.7448 12.2433L10.3705 12.2205ZM33.9995 12.2205L33.6252 12.2437L33.6257 12.2499L33.9995 12.2205ZM33.9995 12.2832L33.6257 12.2537L33.6245 12.2685V12.2832H33.9995ZM31.5843 14.9385L31.4147 14.6041L31.4133 14.6048L31.5843 14.9385ZM12.7754 14.9385L12.9459 14.6046L12.9453 14.6043L12.7754 14.9385ZM10.3636 12.2832H10.7386L10.0053 12.1727L10.3636 12.2832ZM10.3636 12.2205V11.8455H10.0126L9.98944 12.1957L10.3636 12.2205ZM9.51292 19.6066L9.88625 19.642L9.9251 19.2316H9.51292V19.6066ZM9.51292 19.6473L9.13959 19.6826L9.14455 19.735L9.16377 19.7841L9.51292 19.6473ZM9.50609 19.6066V19.2316H9.43629L9.37117 19.2567L9.50609 19.6066ZM5.99435 22.6571L5.62056 22.6269L5.61935 22.642V22.6571H5.99435ZM5.99435 22.7494H5.61935V22.7658L5.62078 22.7822L5.99435 22.7494ZM6.03534 22.9895L6.40592 22.932L6.40312 22.914L6.39858 22.8963L6.03534 22.9895ZM7.56233 24.8619L7.77157 24.5505L7.76417 24.5458L7.56233 24.8619ZM8.41977 25.3678L8.2486 25.7015L8.2529 25.7036L8.41977 25.3678ZM9.63248 25.8922L9.76581 25.5417L9.76277 25.5406L9.63248 25.8922ZM18.3606 27.2106V27.5857L18.367 27.5856L18.3606 27.2106ZM18.9342 27.191L18.9178 26.8164L18.9342 27.191ZM19.5118 27.1737V27.5487H19.5242L19.5365 27.5479L19.5118 27.1737ZM20.1267 27.1331L20.1514 27.5074L20.1607 27.5065L20.1267 27.1331ZM21.0934 27.0334V26.6584H21.072L21.0506 26.6608L21.0934 27.0334ZM21.2745 27.0334V27.4084H21.3001L21.3255 27.4049L21.2745 27.0334ZM21.4897 27.0038V26.6288H21.4641L21.4387 26.6323L21.4897 27.0038ZM21.5615 27.0038V27.3788H21.5858L21.61 27.3757L21.5615 27.0038ZM22.1763 26.9115L22.2354 27.2818L22.2374 27.2815L22.1763 26.9115ZM22.3779 26.8783V26.5033H22.3472L22.3169 26.5083L22.3779 26.8783ZM22.4394 26.8783V27.2533H22.472L22.5041 27.2476L22.4394 26.8783ZM22.7845 26.8107L22.711 26.443L22.7087 26.4435L22.7845 26.8107ZM22.7846 26.8107L22.7175 26.4417L22.711 26.443L22.7846 26.8107ZM22.7846 26.8107L22.8517 27.1798L22.8604 27.178L22.7846 26.8107ZM23.1807 26.7342L23.1184 26.3645L23.1184 26.3645L23.1807 26.7342ZM23.9322 26.5754V26.2004H23.8866L23.8423 26.2114L23.9322 26.5754ZM23.9595 26.5754V26.9504H24.0019L24.0432 26.941L23.9595 26.5754ZM24.2499 26.509L24.3336 26.8746L24.3424 26.8724L24.2499 26.509ZM24.3661 26.4794L24.4585 26.8429L24.4639 26.8414L24.3661 26.4794ZM24.7077 26.3871L24.8056 26.7493L24.8183 26.7454L24.7077 26.3871ZM24.8511 26.3428L24.9618 26.7011L24.9633 26.7006L24.8511 26.3428ZM25.1928 26.2357L25.3049 26.5935L25.4346 26.5529L25.5081 26.4386L25.1928 26.2357ZM25.2474 26.1507L25.1344 25.7932L25.0053 25.834L24.9321 25.9478L25.2474 26.1507ZM26.1366 25.8329L26.0084 25.4805L26.0034 25.4824L26.1366 25.8329ZM26.1366 25.8329L26.2648 26.1853L26.2683 26.184L26.1366 25.8329ZM26.1367 25.8329L26.2684 26.184L26.2697 26.1835L26.1367 25.8329ZM26.2722 25.7814L26.4053 26.1322L26.4145 26.1284L26.2722 25.7814ZM26.4253 25.7132L26.281 25.3671L26.274 25.37L26.2671 25.3732L26.4253 25.7132ZM26.4253 25.7132L26.5696 26.0593L26.5815 26.0544L26.5931 26.0486L26.4253 25.7132ZM26.4254 25.7131L26.2672 25.373L26.2577 25.3777L26.4254 25.7131ZM26.5524 25.6559L26.699 26.0011L26.7032 25.9992L26.5524 25.6559ZM26.6096 25.6309L26.4601 25.287L26.4601 25.287L26.6096 25.6309ZM26.7042 25.5899L26.853 25.9341L26.856 25.9328L26.7042 25.5899ZM26.7046 25.5897L26.5558 25.2455L26.5528 25.2468L26.7046 25.5897ZM27.1946 25.3641L27.0165 25.0341L27.0163 25.0342L27.1946 25.3641ZM27.265 25.3261L27.4431 25.6562L27.4511 25.6517L27.265 25.3261ZM27.2651 25.3261L27.0871 24.9959L27.0791 25.0005L27.2651 25.3261ZM27.7002 25.0834L27.8927 25.4053L27.8972 25.4025L27.7002 25.0834ZM27.8436 24.9948L27.6524 24.6722L27.6465 24.6758L27.8436 24.9948ZM28.1442 24.7991L28.3583 25.107L28.362 25.1044L28.1442 24.7991ZM28.3048 24.6846L28.5225 24.9899L28.5305 24.9842L28.5382 24.9781L28.3048 24.6846ZM28.5371 24.4999L28.7706 24.7936L28.7799 24.7857L28.5371 24.4999ZM28.6806 24.3781L28.9234 24.6639L28.9271 24.6606L28.6806 24.3781ZM28.906 24.1565L28.6476 23.8848L28.6374 23.8945L28.6279 23.9049L28.906 24.1565ZM28.9914 24.0752L29.2499 24.3469L29.2607 24.3367L29.2706 24.3256L28.9914 24.0752ZM29.2271 23.7761L28.9186 23.563L28.9186 23.563L29.2271 23.7761ZM29.2955 23.6616L28.9835 23.4535L28.9714 23.4716L28.9615 23.491L29.2955 23.6616ZM29.415 23.4585L29.7483 23.6303L29.755 23.6173L29.7607 23.6038L29.415 23.4585ZM29.4359 23.4179L29.1103 23.2319L29.1088 23.2345L29.4359 23.4179ZM29.4359 23.4179L29.7615 23.6039L29.763 23.6012L29.4359 23.4179ZM29.4663 23.3366L29.1188 23.1956L29.0913 23.2634V23.3366H29.4663ZM29.497 23.248L29.8572 23.3525L29.9963 22.873H29.497V23.248ZM29.4492 23.248V22.873H29.3998L29.3522 22.8858L29.4492 23.248ZM29.0768 23.3477L28.9798 22.9854L28.9735 22.9872L29.0768 23.3477ZM28.5678 23.4843L28.4827 23.1191L28.4816 23.1194L28.5678 23.4843ZM28.1613 23.5804L28.2391 23.9473L28.2475 23.9453L28.1613 23.5804ZM27.9705 23.6222L28.0521 23.9882L28.0521 23.9882L27.9705 23.6222ZM27.6455 23.6912L27.7156 24.0595L27.7158 24.0595L27.6455 23.6912ZM27.2185 23.7724L27.2814 24.1422L27.2886 24.1408L27.2185 23.7724ZM27.0823 23.7956L27.144 24.1655L27.1453 24.1653L27.0823 23.7956ZM27.0816 23.7957L27.02 23.4258L27.0188 23.426L27.0816 23.7957ZM26.6822 23.8647L26.7487 24.2338H26.7487L26.6822 23.8647ZM26.4454 23.9018L26.3921 23.5307H26.3921L26.4454 23.9018ZM26.2483 23.9312L26.3066 24.3017L26.2483 23.9312ZM25.8558 23.9858L25.8074 23.6139L25.8027 23.6145L25.8558 23.9858ZM25.8556 23.9858L25.9039 24.3577L25.9086 24.357L25.8556 23.9858ZM25.6812 24.0088L25.7228 24.3816L25.7315 24.3804L25.6812 24.0088ZM25.2508 24.0568L25.2869 24.4301L25.2924 24.4295L25.2508 24.0568ZM24.6393 24.1159L24.6697 24.4897L24.6754 24.4891L24.6393 24.1159ZM24.2294 24.1491L24.1991 23.7753L24.198 23.7754L24.2294 24.1491ZM24.1529 24.1555L24.1214 23.7819L24.1106 23.7828L24.0998 23.7843L24.1529 24.1555ZM24.1528 24.1555L24.1844 24.5292L24.1952 24.5283L24.2059 24.5268L24.1528 24.1555ZM20.9261 24.1897L20.9106 24.5644L20.9183 24.5647H20.9261V24.1897ZM19.8842 24.1306L19.9084 23.7564L19.8963 23.7556H19.8842V24.1306ZM19.7373 24.1306L19.7081 24.5045L19.7227 24.5056H19.7373V24.1306ZM18.7568 24.0346L18.7997 23.6621L18.7783 23.6596H18.7568V24.0346ZM18.5929 24.0346L18.5453 24.4066L18.569 24.4096H18.5929V24.0346ZM17.6569 23.9054L17.5947 24.2752L17.599 24.2759L17.6569 23.9054ZM17.5031 23.8795L17.4409 24.2493L17.441 24.2493L17.5031 23.8795ZM16.5979 23.7133L16.5227 24.0807L16.5239 24.081L16.5979 23.7133ZM16.4715 23.6875L16.3948 24.0545L16.3963 24.0549L16.4715 23.6875ZM15.5867 23.4843L15.6802 23.1212L15.6342 23.1093H15.5867V23.4843ZM15.5116 23.4843L15.4158 23.8469L15.4629 23.8593H15.5116V23.4843ZM14.6541 23.2406L14.7642 22.8821L14.7104 22.8656H14.6541V23.2406ZM14.6302 23.2406L14.5202 23.5991L14.574 23.6156H14.6302V23.2406ZM13.824 22.9673L13.9526 22.615L13.9466 22.6129L13.824 22.9673ZM13.7386 22.9378L13.6068 23.289L13.616 23.2922L13.7386 22.9378ZM13.0247 22.6497L12.8655 22.9894L12.8749 22.9935L13.0247 22.6497ZM12.9222 22.6017L13.0813 22.262L13.0738 22.2587L12.9222 22.6017ZM12.2799 22.2915L12.4536 21.9591L12.4489 21.9567L12.2799 22.2915ZM12.1775 22.2398L11.9967 22.5686L12.0086 22.5746L12.1775 22.2398ZM11.6001 21.9037L11.4017 22.2219L11.4024 22.2223L11.6001 21.9037ZM11.5113 21.8483L11.2921 22.1525L11.3022 22.1599L11.3129 22.1665L11.5113 21.8483ZM11.3197 21.7128L11.5348 21.4056L11.5321 21.4038L11.3197 21.7128ZM11.3195 21.7127L11.1025 22.0186L11.1071 22.0217L11.3195 21.7127ZM11.3195 21.7127L11.5365 21.4069L11.5346 21.4055L11.3195 21.7127ZM10.9955 21.479L10.7647 21.7746L10.7675 21.7767L10.9955 21.479ZM10.934 21.431L10.7019 21.7255L10.7032 21.7266L10.934 21.431ZM10.4763 21.0358L10.7344 20.7639L10.734 20.7634L10.4763 21.0358ZM10.4489 21.01L10.1861 21.2775L10.1912 21.2824L10.4489 21.01ZM10.0561 20.5816L9.76077 20.8129L9.76696 20.8204L10.0561 20.5816ZM9.75204 20.1384L10.0741 19.946L10.0678 19.9362L9.75204 20.1384ZM9.7213 20.0904L9.39331 20.2722L9.39908 20.2826L9.4055 20.2927L9.7213 20.0904ZM10.0325 32.4046L10.1481 32.0478L10.0918 32.0296H10.0325V32.4046ZM17.8246 33.5864V33.2113L17.8195 33.2114L17.8246 33.5864ZM10.0018 32.4046L9.87992 32.7592L9.93915 32.7796H10.0018V32.4046ZM6.0152 29.1768L5.64076 29.1563L5.63955 29.1784L5.64095 29.2005L6.0152 29.1768ZM6.0152 29.0845H5.6402V29.0948L5.64076 29.1051L6.0152 29.0845ZM6.0152 25.0332L6.26709 24.7554L5.6402 24.187V25.0332H6.0152ZM6.1211 25.1292L6.37835 24.8563L6.37299 24.8514L6.1211 25.1292ZM6.25433 25.2548L5.99709 25.5277L6.00161 25.5319L6.25433 25.2548ZM6.59593 25.5466L6.357 25.8356L6.363 25.8405L6.3692 25.8453L6.59593 25.5466ZM6.75649 25.6684L6.52974 25.9671L6.53348 25.9699L6.75649 25.6684ZM7.17325 25.9491L7.38142 25.637L7.37281 25.6316L7.17325 25.9491ZM7.33381 26.0562L7.12571 26.3682L7.13211 26.3724L7.13868 26.3764L7.33381 26.0562ZM7.93162 26.3923L8.11894 26.0674L8.11227 26.0636L8.10544 26.06L7.93162 26.3923ZM7.98286 26.4218L7.79555 26.7467L7.80477 26.752L7.81429 26.7568L7.98286 26.4218ZM8.5132 26.6635L8.6809 26.3281L8.67178 26.3235L8.66242 26.3195L8.5132 26.6635ZM8.51322 26.6635L8.34551 26.9989L8.35454 27.0034L8.36379 27.0075L8.51322 26.6635ZM8.61142 26.7062L8.76339 26.3633L8.76086 26.3622L8.61142 26.7062ZM20.1509 28.3307L20.1841 28.7042L20.1961 28.7032L20.2079 28.7013L20.1509 28.3307ZM20.151 28.3307L20.1179 27.9572L20.1059 27.9582L20.0939 27.9601L20.151 28.3307ZM20.2295 28.3237L20.2626 28.6973L20.2632 28.6972L20.2295 28.3237ZM21.3842 28.2019L21.3427 27.8291L21.3371 27.8298L21.3842 28.2019ZM21.6165 28.176V27.801H21.5957L21.575 27.8033L21.6165 28.176ZM21.6814 28.176V28.551H21.7102L21.7386 28.5466L21.6814 28.176ZM22.3031 28.08L22.3603 28.4506L22.3634 28.4501L22.3031 28.08ZM22.5525 28.0394V27.6644H22.5221L22.4922 27.6693L22.5525 28.0394ZM22.5695 28.0394V28.4144H22.6005L22.6311 28.4093L22.5695 28.0394ZM23.3723 27.888L23.4525 28.2543H23.4525L23.3723 27.888ZM23.6816 27.8238L23.7557 28.1914L23.7568 28.1912L23.6816 27.8238ZM23.6819 27.8237L23.757 28.1911L23.7791 28.1866L23.8005 28.1795L23.6819 27.8237ZM23.6819 27.8237L23.6078 27.4561L23.5852 27.4607L23.5633 27.468L23.6819 27.8237ZM24.117 27.7292L24.0312 27.3641L24.0249 27.3656L24.117 27.7292ZM24.1956 27.7107V27.3357H24.1521L24.1098 27.3456L24.1956 27.7107ZM24.24 27.7107V28.0857H24.2795L24.3181 28.0775L24.24 27.7107ZM24.8822 27.5445L24.7875 27.1815L24.7767 27.1847L24.8822 27.5445ZM24.9813 27.5187L25.076 27.8815L25.0777 27.881L24.9813 27.5187ZM25.6133 27.3266L25.4976 26.9699L25.494 26.9711L25.6133 27.3266ZM26.703 26.9315L26.8419 27.2798L26.8448 27.2786L26.703 26.9315ZM26.9696 26.8121L27.1288 27.1516L26.9696 26.8121ZM27.1437 26.732L26.9929 26.3887L26.992 26.3891L27.1437 26.732ZM27.2412 26.6892L27.0908 26.3457L27.0904 26.3459L27.2412 26.6892ZM27.6971 26.4809L27.8645 26.8165L27.8746 26.8114L27.8844 26.8058L27.6971 26.4809ZM27.7483 26.4514L27.5792 26.1167L27.57 26.1213L27.561 26.1265L27.7483 26.4514ZM28.3427 26.119L28.5403 26.4378L28.5428 26.4362L28.3427 26.119ZM28.5067 26.0156L28.7068 26.3329L28.7151 26.3274L28.5067 26.0156ZM28.5693 25.9737L28.3613 25.6617L28.361 25.6619L28.5693 25.9737ZM28.5694 25.9737L28.7774 26.2857L28.7776 26.2856L28.5694 25.9737ZM28.9235 25.7312L29.1429 26.0356L29.1533 26.0275L28.9235 25.7312ZM29.0806 25.6093L29.3104 25.9057L29.3114 25.9049L29.0806 25.6093ZM29.4222 25.3176L29.1684 25.0414L29.1607 25.0488L29.4222 25.3176ZM29.5589 25.192L29.8126 25.4681L29.8238 25.4578L29.8342 25.4467L29.5589 25.192ZM29.6613 25.096H30.0363V24.1383L29.386 24.8414L29.6613 25.096ZM29.6613 29.1658L30.0353 29.1933L30.0363 29.1795V29.1658H29.6613ZM29.9792 21.9703L30.0949 22.327L30.1013 22.3248L29.9792 21.9703ZM22.1769 23.1557L22.1818 22.7807H22.1769V23.1557ZM34.0136 18.7314L34.3873 18.7626L34.3886 18.747V18.7314H34.0136ZM34.0136 14.6026H34.3886V13.7222L33.7538 14.3322L34.0136 14.6026ZM33.9749 14.6375L34.2214 14.9201L34.2214 14.9201L33.9749 14.6375ZM33.9214 14.6875L34.1763 14.9626L34.1869 14.9528L34.1967 14.9422L33.9214 14.6875ZM33.754 14.8426L34.0041 15.1222L34.0089 15.1177L33.754 14.8426ZM33.4466 15.1012L33.6721 15.4008L33.6767 15.3973L33.4466 15.1012ZM33.2553 15.2452L33.4746 15.5495L33.4808 15.5448L33.2553 15.2452ZM32.8727 15.5074L33.0716 15.8253L33.0743 15.8236L32.8727 15.5074ZM32.8059 15.5503L33.0102 15.8647L33.0102 15.8647L32.8059 15.5503ZM32.6848 15.6256L32.4993 15.2996L32.4865 15.3069L32.4743 15.3152L32.6848 15.6256ZM32.0426 15.9949L31.8728 15.6605L31.8714 15.6612L32.0426 15.9949ZM12.3454 15.9949L12.165 16.3238L12.1742 16.3285L12.3454 15.9949ZM11.7032 15.6256L11.8973 15.3046L11.8886 15.2996L11.7032 15.6256ZM11.5583 15.5338L11.7667 15.222L11.7667 15.222L11.5583 15.5338ZM11.5187 15.5074L11.7254 15.1945L11.7203 15.1912L11.5187 15.5074ZM11.1327 15.2452L10.9044 15.5429L10.9134 15.5494L11.1327 15.2452ZM10.9448 15.1012L10.7147 15.3973L10.7167 15.3988L10.9448 15.1012ZM10.7145 14.9081L10.4688 15.1914L10.4688 15.1914L10.7145 14.9081ZM10.6339 14.839L10.8729 14.5499L10.8729 14.5499L10.6339 14.839ZM10.4802 14.7008L10.7367 14.4273L10.7367 14.4272L10.4802 14.7008ZM10.47 14.6912L10.2101 14.9616L10.2135 14.9648L10.47 14.6912ZM10.3777 14.6026L10.6376 14.3322L10.0027 13.7222V14.6026H10.3777ZM10.3777 18.7056H10.0027V18.72L10.0038 18.7343L10.3777 18.7056ZM10.3777 18.7758L10.0038 18.7471L10.0009 18.786L10.0059 18.8246L10.3777 18.7758ZM10.3777 18.809L10.0059 18.7602L9.99989 18.8062L10.0052 18.8522L10.3777 18.809ZM10.4666 19.1783L10.1153 19.3096L10.1155 19.3102L10.4666 19.1783ZM22.1834 7.07123C25.7155 7.07123 28.8279 7.65229 31.0664 8.60309C33.3356 9.56694 34.5768 10.8479 34.657 12.1772L35.4056 12.132C35.298 10.348 33.6833 8.89979 31.3596 7.91278C29.0051 6.91271 25.7875 6.32123 22.1834 6.32123V7.07123ZM9.7131 12.1536C9.80056 10.8361 11.0417 9.56077 13.3083 8.59996C15.544 7.65227 18.6514 7.07123 22.1834 7.07123V6.32123C18.5792 6.32123 15.3669 6.91274 13.0156 7.90944C10.6952 8.89303 9.08225 10.3339 8.96475 12.1039L9.7131 12.1536ZM9.71347 12.3061C9.71087 12.2531 9.71087 12.2001 9.71347 12.1471L8.96438 12.1103C8.96057 12.1878 8.96057 12.2654 8.96438 12.3428L9.71347 12.3061ZM9.71392 18.4808V12.3245H8.96392V18.4808H9.71392ZM5.34383 22.5695C5.43985 21.2043 6.7786 19.8423 9.47069 18.8319L9.20715 18.1297C6.46767 19.1579 4.72511 20.6765 4.59568 22.5169L5.34383 22.5695ZM5.3443 22.739C5.34141 22.6799 5.34141 22.6206 5.3443 22.5615L4.5952 22.5248C4.59111 22.6084 4.59111 22.6921 4.5952 22.7757L5.3443 22.739ZM5.34475 29.0725V22.7574H4.59475V29.0725H5.34475ZM5.34422 29.2446C5.34153 29.1939 5.34153 29.1431 5.34422 29.0924L4.59528 29.0526C4.59117 29.1298 4.59117 29.2072 4.59528 29.2845L5.34422 29.2446ZM9.79223 33.1053C6.90398 32.1121 5.44911 30.6989 5.34378 29.2376L4.59572 29.2915C4.73635 31.2426 6.61558 32.806 9.54834 33.8145L9.79223 33.1053ZM9.70103 33.0849H9.67028V33.8349H9.70103V33.0849ZM17.8094 34.3184C15.104 34.3532 12.4091 33.9436 9.81668 33.1031L9.58538 33.8166C12.255 34.6821 15.0313 35.1042 17.8191 35.0683L17.8094 34.3184ZM30.2845 29.2287C30.197 30.5533 28.9502 31.8305 26.6805 32.7914C24.4418 33.7392 21.3343 34.3184 17.8142 34.3184V35.0684C21.4064 35.0684 24.6187 34.4787 26.9729 33.4821C29.2961 32.4985 30.9154 31.0558 31.0329 29.2782L30.2845 29.2287ZM30.2837 29.2055V29.2535H31.0337V29.2055H30.2837ZM30.2837 29.0725V29.2055H31.0337V29.0725H30.2837ZM30.2837 22.9125V29.0725H31.0337V22.9125H30.2837ZM34.6572 18.8237C34.5613 20.1852 33.2227 21.5472 30.5267 22.5615L30.7908 23.2635C33.5331 22.2318 35.2759 20.7132 35.4054 18.8765L34.6572 18.8237ZM34.6563 18.8206V18.8501H35.4063V18.8206H34.6563ZM34.6579 18.8036C34.6574 18.7977 34.6574 18.7917 34.6579 18.7858L35.4047 18.8553C35.4084 18.815 35.4084 18.7744 35.4047 18.7341L34.6579 18.8036ZM34.6563 12.3208V18.7689H35.4063V12.3208H34.6563ZM34.6563 12.2026V12.3208H35.4063V12.2026H34.6563ZM34.6563 12.1546V12.2026H35.4063V12.1546H34.6563ZM22.1833 7.41377C18.6933 7.41377 15.723 7.99481 13.5956 8.85804C12.5329 9.28924 11.666 9.79676 11.0496 10.35C10.4377 10.8992 10.037 11.5274 9.99615 12.1977L10.7448 12.2433C10.7688 11.8481 11.0142 11.3895 11.5506 10.9081C12.0826 10.4306 12.8662 9.96337 13.8776 9.55301C15.8981 8.73313 18.7694 8.16377 22.1833 8.16377V7.41377ZM34.3738 12.1973C34.332 11.5232 33.9315 10.8929 33.3185 10.3423C32.7015 9.78801 31.834 9.28101 30.771 8.85097C28.6431 7.99007 25.6729 7.41377 22.1833 7.41377V8.16377C25.5976 8.16377 28.4689 8.72864 30.4898 9.54623C31.5012 9.95544 32.285 10.422 32.8173 10.9002C33.3536 11.382 33.6004 11.843 33.6252 12.2437L34.3738 12.1973ZM34.3734 12.3127C34.3766 12.2722 34.3766 12.2315 34.3734 12.191L33.6257 12.2499C33.6258 12.2512 33.6258 12.2525 33.6257 12.2537L34.3734 12.3127ZM31.754 15.273C32.5583 14.8649 33.2041 14.407 33.6535 13.9131C34.1031 13.4189 34.3745 12.8667 34.3745 12.2832H33.6245C33.6245 12.6231 33.4672 13.0034 33.0987 13.4084C32.7299 13.8137 32.1681 14.2219 31.4147 14.6041L31.754 15.273ZM22.1799 17.1601C25.9013 17.1601 29.3923 16.483 31.7553 15.2723L31.4133 14.6048C29.192 15.7429 25.8304 16.4101 22.1799 16.4101V17.1601ZM12.6048 15.2725C14.9674 16.4791 18.4581 17.1601 22.1799 17.1601V16.4101C18.5297 16.4101 15.1678 15.7394 12.9459 14.6046L12.6048 15.2725ZM9.98862 12.2832C9.98862 12.8666 10.26 13.4188 10.7091 13.913C11.158 14.4069 11.8029 14.8648 12.6054 15.2728L12.9453 14.6043C12.1936 14.222 11.6326 13.8139 11.2641 13.4085C10.896 13.0034 10.7386 12.6231 10.7386 12.2832H9.98862ZM9.98944 12.1957C9.98772 12.2217 9.98606 12.2511 9.98606 12.2754C9.98606 12.282 9.98616 12.293 9.98699 12.3058C9.98708 12.3073 9.98876 12.3506 10.0047 12.4002C10.0096 12.4155 10.0196 12.4433 10.0382 12.4751C10.0546 12.5033 10.0947 12.5638 10.172 12.6093C10.2652 12.664 10.3778 12.6761 10.4808 12.6418C10.5664 12.6132 10.6183 12.562 10.6404 12.5376C10.6837 12.4898 10.7036 12.4422 10.7074 12.4333C10.7149 12.4159 10.7196 12.4013 10.722 12.3937L10.0053 12.1727C10.0072 12.1665 10.0115 12.1531 10.0186 12.1366C10.0221 12.1285 10.0416 12.0815 10.0846 12.034C10.1065 12.0099 10.1583 11.9587 10.2437 11.9302C10.3466 11.8959 10.459 11.908 10.5521 11.9627C10.6293 12.0081 10.6692 12.0685 10.6856 12.0964C10.704 12.128 10.7139 12.1556 10.7187 12.1705C10.7283 12.2004 10.7318 12.2246 10.7329 12.233C10.7345 12.2442 10.7351 12.2531 10.7355 12.2579C10.7361 12.2674 10.7361 12.2741 10.7361 12.2754C10.7361 12.2784 10.7361 12.2709 10.7378 12.2452L9.98944 12.1957ZM10.3705 11.8455H10.3636V12.5955H10.3705V11.8455ZM9.13959 19.5713C9.13608 19.6083 9.13608 19.6456 9.13959 19.6826L9.88625 19.6119C9.88719 19.6219 9.88719 19.632 9.88625 19.642L9.13959 19.5713ZM9.50609 19.9816H9.51292V19.2316H9.50609V19.9816ZM6.36813 22.6873C6.40159 22.2728 6.66551 21.8 7.22539 21.3121C7.78114 20.8279 8.59462 20.36 9.64101 19.9565L9.37117 19.2567C8.27224 19.6805 7.37427 20.1876 6.73268 20.7467C6.09522 21.3021 5.67593 21.9409 5.62056 22.6269L6.36813 22.6873ZM6.36935 22.7494V22.6571H5.61935V22.7494H6.36935ZM6.39858 22.8963C6.38353 22.8376 6.37325 22.7775 6.36791 22.7167L5.62078 22.7822C5.62968 22.8837 5.64684 22.9842 5.67211 23.0827L6.39858 22.8963ZM7.76417 24.5458C6.91378 24.0027 6.48386 23.4348 6.40592 22.932L5.66477 23.0469C5.79179 23.8663 6.44135 24.5909 7.36049 25.1779L7.76417 24.5458ZM8.59093 25.0341C8.30972 24.8899 8.03614 24.7285 7.77151 24.5506L7.35315 25.1731C7.64203 25.3673 7.94099 25.5437 8.24861 25.7015L8.59093 25.0341ZM9.76277 25.5406C9.36318 25.3925 8.97064 25.2228 8.58664 25.032L8.2529 25.7036C8.66058 25.9062 9.07754 26.0865 9.50219 26.2439L9.76277 25.5406ZM17.8311 26.8356C14.7906 26.8356 11.9272 26.3639 9.7658 25.5417L9.49916 26.2427C11.765 27.1046 14.7227 27.5856 17.8311 27.5856V26.8356ZM18.2376 26.8356H17.8311V27.5856H18.2376V26.8356ZM18.3606 26.8356H18.2376V27.5856H18.3606V26.8356ZM18.9178 26.8164C18.7372 26.8243 18.5516 26.8323 18.3542 26.8357L18.367 27.5856C18.5758 27.582 18.7709 27.5735 18.9505 27.5657L18.9178 26.8164ZM19.5118 26.7987C19.3204 26.7987 19.1206 26.8075 18.9178 26.8164L18.9505 27.5657C19.157 27.5566 19.3398 27.5487 19.5118 27.5487V26.7987ZM20.102 26.7589L19.4871 26.7995L19.5365 27.5479L20.1514 27.5073L20.102 26.7589ZM21.0506 26.6608C20.7323 26.6974 20.4142 26.7304 20.0927 26.7596L20.1607 27.5065C20.4883 27.4767 20.8123 27.4432 21.1363 27.4059L21.0506 26.6608ZM21.2745 26.6584H21.0934V27.4084H21.2745V26.6584ZM21.4387 26.6323L21.2235 26.6619L21.3255 27.4049L21.5407 27.3754L21.4387 26.6323ZM21.5615 26.6288H21.4897V27.3788H21.5615V26.6288ZM22.1173 26.5412C21.9078 26.5746 21.7048 26.607 21.5129 26.632L21.61 27.3757C21.8143 27.349 22.0281 27.3149 22.2354 27.2818L22.1173 26.5412ZM22.3169 26.5083L22.1153 26.5415L22.2374 27.2815L22.4389 27.2483L22.3169 26.5083ZM22.4394 26.5033H22.3779V27.2533H22.4394V26.5033ZM22.7087 26.4435C22.5945 26.467 22.4871 26.4892 22.3746 26.5089L22.5041 27.2476C22.6294 27.2257 22.7476 27.2013 22.8603 27.178L22.7087 26.4435ZM22.711 26.443L22.711 26.443L22.8581 27.1784L22.8581 27.1784L22.711 26.443ZM22.7175 26.4418L22.7175 26.4418L22.8516 27.1797L22.8517 27.1797L22.7175 26.4418ZM23.1184 26.3645C22.9713 26.3892 22.836 26.4172 22.7088 26.4434L22.8604 27.178C22.9891 27.1514 23.1114 27.1262 23.243 27.104L23.1184 26.3645ZM23.8423 26.2114C23.609 26.269 23.3693 26.3222 23.1184 26.3645L23.243 27.104C23.5181 27.0577 23.7772 27 24.0222 26.9395L23.8423 26.2114ZM23.9595 26.2004H23.9322V26.9504H23.9595V26.2004ZM24.1662 26.1434L23.8759 26.2099L24.0432 26.941L24.3336 26.8745L24.1662 26.1434ZM24.2736 26.116L24.1575 26.1455L24.3424 26.8724L24.4585 26.8429L24.2736 26.116ZM24.6098 26.0251L24.2682 26.1174L24.4639 26.8414L24.8055 26.7491L24.6098 26.0251ZM24.7405 25.9845L24.597 26.0288L24.8183 26.7454L24.9618 26.7011L24.7405 25.9845ZM25.0806 25.8779L24.739 25.985L24.9633 26.7006L25.3049 26.5935L25.0806 25.8779ZM24.9321 25.9478L24.8774 26.0328L25.5081 26.4386L25.5628 26.3537L24.9321 25.9478ZM26.0034 25.4824C25.71 25.5938 25.4365 25.6977 25.1344 25.7932L25.3605 26.5083C25.686 26.4054 25.9786 26.2941 26.2698 26.1835L26.0034 25.4824ZM26.0085 25.4805L26.0084 25.4805L26.2647 26.1853L26.2648 26.1853L26.0085 25.4805ZM26.005 25.4817L26.0049 25.4818L26.2683 26.184L26.2684 26.184L26.005 25.4817ZM26.1392 25.4308L26.0037 25.4822L26.2697 26.1835L26.4053 26.132L26.1392 25.4308ZM26.2671 25.3732C26.2166 25.3967 26.1745 25.4162 26.13 25.4345L26.4145 26.1284C26.4775 26.1026 26.5349 26.0758 26.5834 26.0532L26.2671 25.3732ZM26.2811 25.367L26.281 25.3671L26.5695 26.0594L26.5696 26.0593L26.2811 25.367ZM26.2577 25.3777L26.2576 25.3778L26.5931 26.0486L26.5931 26.0486L26.2577 25.3777ZM26.4058 25.3107C26.3553 25.3321 26.3081 25.3541 26.2673 25.3731L26.5836 26.0532C26.6261 26.0334 26.662 26.0167 26.6989 26.001L26.4058 25.3107ZM26.4601 25.287C26.4404 25.2955 26.4209 25.304 26.4016 25.3125L26.7032 25.9992C26.7215 25.9912 26.7401 25.983 26.7592 25.9747L26.4601 25.287ZM26.5554 25.2457C26.5236 25.2594 26.4916 25.2732 26.4601 25.287L26.7592 25.9747C26.7898 25.9614 26.8211 25.9479 26.853 25.9341L26.5554 25.2457ZM26.5528 25.2468L26.5524 25.247L26.856 25.9328L26.8564 25.9326L26.5528 25.2468ZM27.0163 25.0342C26.907 25.0933 26.7401 25.1658 26.5558 25.2455L26.8534 25.9339C27.0258 25.8594 27.228 25.7723 27.3729 25.694L27.0163 25.0342ZM27.087 24.9961L27.0165 25.0341L27.3726 25.6942L27.4431 25.6562L27.087 24.9961ZM27.0791 25.0005L27.079 25.0005L27.4511 25.6517L27.4512 25.6517L27.0791 25.0005ZM27.5077 24.7616C27.3783 24.839 27.233 24.9174 27.0872 24.996L27.443 25.6562C27.5857 25.5793 27.7463 25.4928 27.8926 25.4053L27.5077 24.7616ZM27.6465 24.6758L27.5031 24.7644L27.8972 25.4025L28.0407 25.3138L27.6465 24.6758ZM27.9302 24.4911C27.8377 24.5555 27.747 24.6161 27.6524 24.6722L28.0349 25.3174C28.152 25.2479 28.2595 25.1756 28.3583 25.107L27.9302 24.4911ZM28.0871 24.3793L27.9265 24.4937L28.362 25.1044L28.5225 24.9899L28.0871 24.3793ZM28.3037 24.2064L28.0715 24.391L28.5382 24.9781L28.7704 24.7935L28.3037 24.2064ZM28.4378 24.0923L28.2943 24.2141L28.7799 24.7857L28.9233 24.6639L28.4378 24.0923ZM28.6279 23.9049C28.5667 23.9727 28.5019 24.0363 28.434 24.0955L28.9271 24.6606C29.0174 24.5818 29.1033 24.4975 29.1841 24.408L28.6279 23.9049ZM28.733 23.8035L28.6476 23.8848L29.1645 24.4282L29.2499 24.3469L28.733 23.8035ZM28.9186 23.563C28.8549 23.6552 28.786 23.7426 28.7123 23.8249L29.2706 24.3256C29.3657 24.2196 29.4543 24.1072 29.5357 23.9892L28.9186 23.563ZM28.9615 23.491C28.9486 23.5162 28.9343 23.5403 28.9186 23.563L29.5357 23.9892C29.5703 23.9391 29.6016 23.8866 29.6294 23.8322L28.9615 23.491ZM29.0817 23.2866C29.0519 23.3444 29.0191 23.4001 28.9835 23.4535L29.6074 23.8698C29.6587 23.7928 29.7058 23.7129 29.7483 23.6303L29.0817 23.2866ZM29.1088 23.2345C29.1034 23.2442 29.0847 23.2766 29.0693 23.3132L29.7607 23.6038C29.758 23.6103 29.7561 23.6138 29.7567 23.6126C29.7569 23.6122 29.7575 23.6112 29.7586 23.6092C29.7597 23.6071 29.761 23.6048 29.763 23.6013L29.1088 23.2345ZM29.1103 23.2318L29.1103 23.2319L29.7615 23.604L29.7615 23.6039L29.1103 23.2318ZM29.0913 23.3366C29.0913 23.2813 29.1065 23.2429 29.1111 23.2319C29.1138 23.2254 29.1157 23.222 29.1151 23.2231C29.1143 23.2246 29.113 23.2269 29.1088 23.2345L29.763 23.6012C29.7639 23.5997 29.8413 23.4813 29.8413 23.3366H29.0913ZM29.1369 23.1435C29.1317 23.1613 29.1257 23.1787 29.1188 23.1956L29.8137 23.4777C29.8304 23.4367 29.8448 23.3949 29.8572 23.3525L29.1369 23.1435ZM29.4492 23.623H29.497V22.873H29.4492V23.623ZM29.1738 23.7099L29.5462 23.6102L29.3522 22.8858L28.9798 22.9855L29.1738 23.7099ZM28.653 23.8496C28.8379 23.8064 29.0142 23.7558 29.1802 23.7082L28.9735 22.9872C28.8047 23.0356 28.6463 23.081 28.4827 23.1191L28.653 23.8496ZM28.2475 23.9453L28.654 23.8493L28.4816 23.1194L28.0751 23.2154L28.2475 23.9453ZM28.0521 23.9882C28.1155 23.9741 28.177 23.9604 28.2391 23.9472L28.0836 23.2135C28.017 23.2276 27.9517 23.2422 27.8888 23.2562L28.0521 23.9882ZM27.7158 24.0595C27.8323 24.0373 27.9451 24.0121 28.0521 23.9882L27.8888 23.2562C27.7801 23.2805 27.6785 23.3031 27.5752 23.3228L27.7158 24.0595ZM27.2886 24.1408L27.7156 24.0595L27.5754 23.3228L27.1484 23.404L27.2886 24.1408ZM27.1453 24.1653L27.2814 24.1421L27.1556 23.4027L27.0194 23.4259L27.1453 24.1653ZM27.1433 24.1656L27.144 24.1655L27.0207 23.4257L27.02 23.4258L27.1433 24.1656ZM26.7487 24.2338C26.8562 24.2144 26.996 24.1906 27.1445 24.1654L27.0188 23.426C26.8716 23.451 26.7277 23.4755 26.6157 23.4957L26.7487 24.2338ZM26.4987 24.273C26.5803 24.2613 26.6567 24.2504 26.7487 24.2338L26.6157 23.4957C26.5385 23.5096 26.4744 23.5188 26.3921 23.5307L26.4987 24.273ZM26.3066 24.3017C26.3811 24.2899 26.4417 24.2812 26.4988 24.273L26.3921 23.5307C26.3349 23.5389 26.2699 23.5482 26.1901 23.5608L26.3066 24.3017ZM25.9041 24.3577C26.0349 24.3407 26.1703 24.3231 26.3066 24.3017L26.1901 23.5608C26.0654 23.5804 25.9399 23.5967 25.8074 23.6139L25.9041 24.3577ZM25.9087 24.357L25.9088 24.357L25.8027 23.6145L25.8026 23.6146L25.9087 24.357ZM25.9086 24.357L25.9087 24.357L25.8026 23.6146L25.8026 23.6146L25.9086 24.357ZM25.7315 24.3804C25.7888 24.3726 25.8459 24.3652 25.9039 24.3577L25.8073 23.6139C25.7496 23.6214 25.6905 23.6291 25.631 23.6371L25.7315 24.3804ZM25.2924 24.4295L25.7228 24.3815L25.6397 23.6361L25.2093 23.6841L25.2924 24.4295ZM24.6754 24.4891L25.2869 24.43L25.2148 23.6835L24.6033 23.7426L24.6754 24.4891ZM24.2597 24.5229L24.6697 24.4896L24.609 23.7421L24.1991 23.7753L24.2597 24.5229ZM24.1843 24.5292L24.2608 24.5228L24.198 23.7754L24.1214 23.7819L24.1843 24.5292ZM24.2059 24.5268L24.2059 24.5268L24.0998 23.7843L24.0998 23.7843L24.2059 24.5268ZM23.5462 24.5647C23.7674 24.5647 23.9886 24.5458 24.1844 24.5292L24.1212 23.7819C23.9199 23.7989 23.7304 23.8147 23.5462 23.8147V24.5647ZM23.2046 24.5647H23.5462V23.8147H23.2046V24.5647ZM22.1524 24.5647H23.2046V23.8147H22.1524V24.5647ZM21.0251 24.5647H22.1524V23.8147H21.0251V24.5647ZM20.9261 24.5647H21.0251V23.8147H20.9261V24.5647ZM19.8599 24.5048C20.2009 24.527 20.5468 24.5494 20.9106 24.5644L20.9415 23.815C20.5879 23.8005 20.2506 23.7786 19.9084 23.7564L19.8599 24.5048ZM19.7373 24.5056H19.8842V23.7556H19.7373V24.5056ZM18.714 24.4072C19.0385 24.4445 19.3711 24.4782 19.7081 24.5045L19.7664 23.7568C19.4407 23.7314 19.1175 23.6986 18.7997 23.6621L18.714 24.4072ZM18.5929 24.4096H18.7568V23.6596H18.5929V24.4096ZM17.599 24.2759C17.9121 24.3248 18.2275 24.366 18.5453 24.4066L18.6404 23.6626C18.3228 23.622 18.0165 23.582 17.7147 23.5348L17.599 24.2759ZM17.441 24.2493L17.5947 24.2752L17.7191 23.5355L17.5653 23.5097L17.441 24.2493ZM16.5239 24.081C16.8222 24.141 17.1303 24.1971 17.4409 24.2493L17.5653 23.5097C17.2611 23.4585 16.9611 23.4039 16.6718 23.3457L16.5239 24.081ZM16.3963 24.0549L16.5227 24.0807L16.673 23.3459L16.5466 23.3201L16.3963 24.0549ZM15.4932 23.8475C15.7878 23.9233 16.0911 23.9911 16.3948 24.0545L16.5481 23.3204C16.2507 23.2583 15.9595 23.1931 15.6802 23.1212L15.4932 23.8475ZM15.5116 23.8593H15.5867V23.1093H15.5116V23.8593ZM14.5441 23.5991C14.8261 23.6857 15.1179 23.7683 15.4158 23.8469L15.6073 23.1218C15.3177 23.0453 15.0355 22.9654 14.7642 22.8821L14.5441 23.5991ZM14.6302 23.6156H14.6541V22.8656H14.6302V23.6156ZM13.6954 23.3196C13.9623 23.417 14.2352 23.5116 14.5202 23.5991L14.7403 22.8821C14.4718 22.7997 14.2119 22.7097 13.9526 22.6151L13.6954 23.3196ZM13.616 23.2922L13.7014 23.3217L13.9466 22.6129L13.8612 22.5834L13.616 23.2922ZM12.8749 22.9935C13.1105 23.0962 13.3557 23.1946 13.6068 23.2889L13.8704 22.5867C13.6296 22.4963 13.3965 22.4027 13.1744 22.3059L12.8749 22.9935ZM12.7631 22.9413L12.8656 22.9893L13.1837 22.3101L13.0813 22.2621L12.7631 22.9413ZM12.1063 22.6238C12.3175 22.7342 12.5367 22.8412 12.7705 22.9447L13.0738 22.2587C12.8567 22.1627 12.6523 22.063 12.4536 21.9591L12.1063 22.6238ZM12.0086 22.5746L12.111 22.6263L12.4489 21.9567L12.3464 21.905L12.0086 22.5746ZM11.4024 22.2223C11.5935 22.3409 11.7906 22.455 11.9968 22.5684L12.3581 21.9112C12.1612 21.8029 11.9758 21.6955 11.7979 21.5851L11.4024 22.2223ZM11.3129 22.1665L11.4017 22.2219L11.7986 21.5855L11.7098 21.5301L11.3129 22.1665ZM11.1046 22.02C11.1687 22.0649 11.2308 22.1084 11.2921 22.1525L11.7306 21.5441C11.6645 21.4964 11.5982 21.4501 11.5348 21.4056L11.1046 22.02ZM11.1072 22.0218L11.1072 22.0218L11.5321 21.4038L11.5321 21.4038L11.1072 22.0218ZM11.1072 22.0218L11.1072 22.0218L11.5321 21.4038L11.5321 21.4038L11.1072 22.0218ZM11.1071 22.0217L11.1072 22.0218L11.5321 21.4038L11.532 21.4037L11.1071 22.0217ZM11.1024 22.0185L11.1025 22.0185L11.5365 21.4069L11.5365 21.4069L11.1024 22.0185ZM10.7675 21.7767C10.8789 21.862 10.995 21.9433 11.1044 22.0199L11.5346 21.4055C11.4228 21.3272 11.32 21.2552 11.2235 21.1813L10.7675 21.7767ZM10.7032 21.7266L10.7647 21.7746L11.2263 21.1834L11.1648 21.1354L10.7032 21.7266ZM10.2181 21.3078C10.3669 21.449 10.5293 21.5895 10.7019 21.7255L11.1662 21.1365C11.0108 21.014 10.8658 20.8885 10.7344 20.7639L10.2181 21.3078ZM10.1912 21.2824L10.2186 21.3083L10.734 20.7634L10.7066 20.7376L10.1912 21.2824ZM9.76696 20.8204C9.89914 20.9804 10.039 21.133 10.1861 21.2775L10.7117 20.7425C10.5833 20.6163 10.461 20.4829 10.3452 20.3428L9.76696 20.8204ZM9.43014 20.3308C9.53056 20.4988 9.64101 20.6599 9.76087 20.8129L10.3513 20.3503C10.251 20.2224 10.1584 20.0873 10.0739 19.9461L9.43014 20.3308ZM9.4055 20.2927L9.43625 20.3407L10.0678 19.9362L10.0371 19.8882L9.4055 20.2927ZM9.16377 19.7841C9.22965 19.9522 9.30632 20.1153 9.39331 20.2722L10.0493 19.9086C9.97851 19.7809 9.91593 19.6479 9.86206 19.5104L9.16377 19.7841ZM9.9169 32.7613C12.4825 33.5928 15.1507 33.9975 17.8297 33.9613L17.8195 33.2114C15.223 33.2465 12.6363 32.8543 10.1481 32.0478L9.9169 32.7613ZM10.0018 32.7796H10.0325V32.0296H10.0018V32.7796ZM5.64095 29.2005C5.68802 29.9454 6.17133 30.6317 6.89376 31.2165C7.62317 31.807 8.64416 32.3347 9.87992 32.7592L10.1236 32.0499C8.94079 31.6436 8.00607 31.152 7.36564 30.6336C6.71821 30.1095 6.41753 29.5975 6.38945 29.1532L5.64095 29.2005ZM5.64076 29.1051C5.6417 29.1221 5.6417 29.1392 5.64076 29.1563L6.38964 29.1974C6.39207 29.153 6.39207 29.1084 6.38964 29.064L5.64076 29.1051ZM5.6402 25.0332V29.0845H6.3902V25.0332H5.6402ZM6.37299 24.8514L6.26709 24.7554L5.76331 25.311L5.86921 25.407L6.37299 24.8514ZM6.51153 24.9819L6.3783 24.8563L5.8639 25.4021L5.99712 25.5277L6.51153 24.9819ZM6.83487 25.2575C6.71745 25.1605 6.60846 25.0703 6.50704 24.9778L6.00161 25.5319C6.11882 25.6388 6.24212 25.7406 6.357 25.8356L6.83487 25.2575ZM6.98322 25.3697L6.82266 25.2479L6.3692 25.8453L6.52976 25.9671L6.98322 25.3697ZM7.37281 25.6316C7.22978 25.5417 7.09857 25.455 6.97949 25.3669L6.53348 25.9699C6.67403 26.0739 6.82294 26.1718 6.97369 26.2666L7.37281 25.6316ZM7.5419 25.7442L7.38135 25.6371L6.96516 26.2611L7.12571 26.3682L7.5419 25.7442ZM8.10544 26.06C7.89947 25.9522 7.70861 25.8455 7.52894 25.736L7.13868 26.3764C7.33477 26.4959 7.54018 26.6107 7.7578 26.7246L8.10544 26.06ZM8.17018 26.0969L8.11894 26.0674L7.74431 26.7171L7.79555 26.7467L8.17018 26.0969ZM8.66242 26.3195C8.47998 26.2403 8.3078 26.1655 8.15144 26.0868L7.81429 26.7568C7.99317 26.8468 8.18559 26.9302 8.36397 27.0075L8.66242 26.3195ZM8.68092 26.3281L8.6809 26.3281L8.34549 26.9989L8.34551 26.9989L8.68092 26.3281ZM8.76086 26.3622L8.66265 26.3196L8.36379 27.0075L8.46199 27.0501L8.76086 26.3622ZM17.8349 27.9968C14.3492 27.9968 11.094 27.3964 8.76338 26.3633L8.45947 27.049C10.9113 28.1358 14.2766 28.7468 17.8349 28.7468V27.9968ZM18.3097 27.9968H17.8349V28.7468H18.3097V27.9968ZM18.5181 27.9968H18.3097V28.7468H18.5181V27.9968ZM19.2013 27.9968H18.5181V28.7468H19.2013V27.9968ZM19.4472 27.9968H19.2013V28.7468H19.4472V27.9968ZM20.1177 27.9572C19.8875 27.9776 19.67 27.9968 19.4472 27.9968V28.7468C19.7085 28.7468 19.9585 28.7243 20.1841 28.7042L20.1177 27.9572ZM20.0939 27.9601L20.0939 27.9601L20.2079 28.7013L20.208 28.7013L20.0939 27.9601ZM20.1965 27.9502L20.1179 27.9572L20.184 28.7042L20.2626 28.6973L20.1965 27.9502ZM21.3371 27.8298C20.9642 27.8771 20.5626 27.9172 20.1959 27.9503L20.2632 28.6972C20.6343 28.6638 21.0458 28.6227 21.4313 28.5739L21.3371 27.8298ZM21.575 27.8033L21.3427 27.8292L21.4256 28.5746L21.6579 28.5487L21.575 27.8033ZM21.6814 27.801H21.6165V28.551H21.6814V27.801ZM22.2459 27.7094L21.6241 27.8054L21.7386 28.5466L22.3603 28.4506L22.2459 27.7094ZM22.4922 27.6693L22.2428 27.7099L22.3634 28.4501L22.6128 28.4095L22.4922 27.6693ZM22.5695 27.6644H22.5525V28.4144H22.5695V27.6644ZM23.2921 27.5216C23.031 27.5788 22.7714 27.6257 22.508 27.6695L22.6311 28.4093C22.9006 28.3645 23.174 28.3153 23.4525 28.2543L23.2921 27.5216ZM23.6075 27.4562C23.5079 27.4763 23.4013 27.4977 23.2921 27.5216L23.4525 28.2543C23.5547 28.2319 23.6552 28.2116 23.7557 28.1914L23.6075 27.4562ZM23.6067 27.4563L23.6065 27.4564L23.7568 28.1912L23.757 28.1911L23.6067 27.4563ZM23.5633 27.468L23.5633 27.468L23.8005 28.1795L23.8005 28.1795L23.5633 27.468ZM24.0249 27.3656C23.9027 27.3966 23.7654 27.4244 23.6078 27.4561L23.756 28.1913C23.9091 28.1605 24.0655 28.1291 24.2091 28.0927L24.0249 27.3656ZM24.1098 27.3456L24.0312 27.3641L24.2028 28.0942L24.2814 28.0757L24.1098 27.3456ZM24.24 27.3357H24.1956V28.0857H24.24V27.3357ZM24.7767 27.1847C24.5791 27.2426 24.3741 27.2987 24.1619 27.3439L24.3181 28.0775C24.5568 28.0266 24.7822 27.9646 24.9877 27.9044L24.7767 27.1847ZM24.8866 27.1558L24.7875 27.1817L24.9769 27.9074L25.076 27.8815L24.8866 27.1558ZM25.494 26.9711C25.3006 27.036 25.0968 27.0999 24.8849 27.1563L25.0777 27.881C25.3099 27.8193 25.5297 27.7502 25.7326 27.6821L25.494 26.9711ZM26.5641 26.5831C26.2188 26.7209 25.8645 26.8509 25.4976 26.9699L25.729 27.6833C26.1136 27.5586 26.4835 27.4227 26.8419 27.2798L26.5641 26.5831ZM26.8104 26.4726C26.7221 26.514 26.6439 26.5505 26.5612 26.5843L26.8448 27.2786C26.9478 27.2366 27.0428 27.1919 27.1288 27.1516L26.8104 26.4726ZM26.992 26.3891C26.9281 26.4173 26.867 26.446 26.8104 26.4726L27.1288 27.1516C27.1865 27.1246 27.2402 27.0994 27.2954 27.075L26.992 26.3891ZM27.0904 26.3459L26.9929 26.3887L27.2945 27.0754L27.392 27.0326L27.0904 26.3459ZM27.5297 26.1454C27.3973 26.2114 27.2334 26.2833 27.0908 26.3457L27.3916 27.0327C27.53 26.9721 27.7121 26.8925 27.8645 26.8165L27.5297 26.1454ZM27.561 26.1265L27.5098 26.156L27.8844 26.8058L27.9356 26.7762L27.561 26.1265ZM28.1452 25.8002C27.9683 25.9098 27.7797 26.0154 27.5792 26.1167L27.9175 26.7861C28.136 26.6756 28.3437 26.5596 28.5403 26.4377L28.1452 25.8002ZM28.3067 25.6984L28.1427 25.8018L28.5428 26.4362L28.7067 26.3328L28.3067 25.6984ZM28.361 25.6619L28.2983 25.7038L28.7151 26.3274L28.7777 26.2855L28.361 25.6619ZM28.3614 25.6617L28.3613 25.6617L28.7773 26.2857L28.7774 26.2857L28.3614 25.6617ZM28.7042 25.427C28.5968 25.5044 28.4837 25.58 28.3611 25.6618L28.7776 26.2856C28.8982 26.205 29.0226 26.122 29.1427 26.0354L28.7042 25.427ZM28.8508 25.313L28.6936 25.4349L29.1533 26.0275L29.3104 25.9057L28.8508 25.313ZM29.1607 25.0488C29.0725 25.1347 28.9686 25.2211 28.8498 25.3138L29.3114 25.9049C29.4386 25.8056 29.567 25.6999 29.6837 25.5864L29.1607 25.0488ZM29.3051 24.9159L29.1685 25.0415L29.6759 25.5937L29.8126 25.4681L29.3051 24.9159ZM29.3631 24.8618C29.3483 24.8748 29.3148 24.9036 29.2836 24.9374L29.8342 25.4467C29.8328 25.4482 29.8333 25.4474 29.8376 25.4435C29.8421 25.4393 29.8475 25.4346 29.8571 25.4262L29.3631 24.8618ZM29.386 24.8414C29.3874 24.8399 29.3869 24.8406 29.3826 24.8445C29.3781 24.8487 29.3727 24.8534 29.3631 24.8618L29.8571 25.4262C29.8719 25.4132 29.9054 25.3844 29.9366 25.3506L29.386 24.8414ZM30.0363 29.0697V25.096H29.2863V29.0697H30.0363ZM30.0363 29.1104V29.0697H29.2863V29.1104H30.0363ZM30.0363 29.1658V29.1104H29.2863V29.1658H30.0363ZM17.8246 33.9614C21.3144 33.9614 24.2836 33.3841 26.4134 32.5243C27.4773 32.0948 28.3461 31.5889 28.9658 31.0371C29.5812 30.489 29.9861 29.8626 30.0353 29.1933L29.2874 29.1382C29.2581 29.5362 29.007 29.996 28.467 30.477C27.9313 30.9541 27.1453 31.42 26.1326 31.8288C24.1093 32.6456 21.2388 33.2114 17.8246 33.2114V33.9614ZM29.8636 21.6135C27.372 22.4212 24.7819 22.8147 22.1818 22.7808L22.172 23.5307C24.8545 23.5657 27.526 23.1597 30.0949 22.327L29.8636 21.6135ZM33.6399 18.7003C33.6026 19.1482 33.2924 19.6637 32.6377 20.1902C31.9899 20.7111 31.0486 21.2056 29.8572 21.6157L30.1013 22.3248C31.3455 21.8966 32.3719 21.3663 33.1077 20.7747C33.8365 20.1886 34.3256 19.5039 34.3873 18.7626L33.6399 18.7003ZM33.6386 18.6428V18.7314H34.3886V18.6428H33.6386ZM33.6386 14.6026V18.6428H34.3886V14.6026H33.6386ZM34.2214 14.9201C34.2333 14.9097 34.2533 14.8924 34.2735 14.873L33.7538 14.3322C33.7488 14.337 33.7426 14.3426 33.7284 14.3549L34.2214 14.9201ZM34.1967 14.9422C34.1956 14.9433 34.1965 14.9423 34.2009 14.9382C34.2057 14.9338 34.2114 14.9289 34.2214 14.9201L33.7284 14.3549C33.7126 14.3687 33.6783 14.3981 33.6461 14.4329L34.1967 14.9422ZM34.0089 15.1177L34.1763 14.9626L33.6665 14.4125L33.4991 14.5676L34.0089 15.1177ZM33.6767 15.3973C33.7951 15.3053 33.9011 15.2142 34.0041 15.1221L33.504 14.5632C33.4088 14.6483 33.3167 14.7272 33.2165 14.805L33.6767 15.3973ZM33.4808 15.5448L33.6721 15.4007L33.221 14.8016L33.0297 14.9456L33.4808 15.5448ZM33.0743 15.8236C33.2162 15.7331 33.3492 15.6397 33.4745 15.5494L33.036 14.941C32.9154 15.0279 32.7956 15.1118 32.6711 15.1912L33.0743 15.8236ZM33.0102 15.8647C33.0325 15.8502 33.0519 15.8376 33.0716 15.8253L32.6737 15.1895C32.6476 15.2059 32.6229 15.2219 32.6015 15.2359L33.0102 15.8647ZM32.8702 15.9515C32.9234 15.9213 32.9716 15.8898 33.0102 15.8647L32.6015 15.2359C32.5602 15.2627 32.5301 15.2821 32.4993 15.2996L32.8702 15.9515ZM32.2123 16.3292C32.4439 16.2117 32.6749 16.0853 32.8952 15.936L32.4743 15.3152C32.2916 15.4391 32.0922 15.5491 31.8728 15.6605L32.2123 16.3292ZM22.194 18.3272C26.0635 18.3272 29.7182 17.6091 32.2138 16.3285L31.8714 15.6612C29.516 16.8698 25.9901 17.5772 22.194 17.5772V18.3272ZM12.1742 16.3285C14.6697 17.6091 18.3244 18.3272 22.194 18.3272V17.5772C18.3979 17.5772 14.8719 16.8698 12.5166 15.6612L12.1742 16.3285ZM11.5091 15.9465C11.7156 16.0713 11.9319 16.1958 12.165 16.3237L12.5258 15.6661C12.3011 15.5429 12.0939 15.4236 11.8972 15.3047L11.5091 15.9465ZM11.3498 15.8455C11.3957 15.8761 11.4533 15.9148 11.5177 15.9515L11.8886 15.2996C11.8514 15.2785 11.8157 15.2548 11.7667 15.222L11.3498 15.8455ZM11.312 15.8203C11.3243 15.8284 11.3366 15.8366 11.3498 15.8455L11.7667 15.222C11.7538 15.2134 11.7398 15.204 11.7254 15.1945L11.312 15.8203ZM10.9134 15.5494C11.0417 15.6418 11.1774 15.7345 11.3171 15.8236L11.7203 15.1912C11.5936 15.1104 11.4697 15.0258 11.352 14.941L10.9134 15.5494ZM10.7167 15.3988L10.9045 15.5428L11.3608 14.9476L11.173 14.8035L10.7167 15.3988ZM10.4688 15.1914C10.5347 15.2485 10.6317 15.3328 10.7147 15.3973L11.1749 14.805C11.1111 14.7554 11.0304 14.6856 10.9602 14.6248L10.4688 15.1914ZM10.395 15.128C10.4098 15.1402 10.4339 15.1611 10.4688 15.1914L10.9602 14.6248C10.9286 14.5974 10.8962 14.5692 10.8729 14.5499L10.395 15.128ZM10.2237 14.9744C10.2707 15.0184 10.3303 15.0745 10.395 15.128L10.8729 14.5499C10.8291 14.5138 10.7863 14.4737 10.7367 14.4273L10.2237 14.9744ZM10.2135 14.9648L10.2238 14.9744L10.7367 14.4272L10.7264 14.4176L10.2135 14.9648ZM10.1179 14.873L10.2101 14.9616L10.7298 14.4208L10.6376 14.3322L10.1179 14.873ZM10.7527 18.7056V14.6026H10.0027V18.7056H10.7527ZM10.7516 18.8044C10.7549 18.762 10.7549 18.7194 10.7516 18.6769L10.0038 18.7343C10.0042 18.7385 10.0042 18.7428 10.0038 18.7471L10.7516 18.8044ZM10.7495 18.8578C10.7553 18.8144 10.7553 18.7704 10.7495 18.7269L10.0059 18.8246C10.0031 18.8032 10.0031 18.7816 10.0059 18.7602L10.7495 18.8578ZM10.8178 19.0471C10.7843 18.9573 10.7615 18.8627 10.7502 18.7658L10.0052 18.8522C10.0234 19.0088 10.0603 19.1625 10.1153 19.3096L10.8178 19.0471ZM22.1769 22.7807C19.0412 22.7807 16.3468 22.2939 14.3543 21.5681C13.3577 21.205 12.5461 20.7856 11.9443 20.3448C11.3381 19.9008 10.9709 19.4544 10.8176 19.0464L10.1155 19.3102C10.3397 19.9067 10.832 20.4598 11.5011 20.9499C12.1746 21.4432 13.054 21.8926 14.0976 22.2728C16.1856 23.0334 18.9689 23.5307 22.1769 23.5307V22.7807Z" fill="#27D17F"/>
</svg>
